<svg xmlns="http://www.w3.org/2000/svg" viewBox="0 0 500 500">
  <defs>
    <style>
      .cls-1 {
        fill: none;
      }

      .cls-2 {
        fill: #6259fa;
      }
    </style>
  </defs>
  <g id="Layer_9" data-name="Layer 9">
    <g>
      <path class="cls-1" d="M122.13,451.56c0,11.43,5.3,16.69,16.8,16.69H359.85c11.48,0,16.81-5.29,16.82-16.68q0-46.62,0-93.23v-5.15c4.1.6,7.72,1.11,11.33,1.65,6,.89,8.88-1.09,10-7.06q6.9-37.53,13.77-75.08c.7-3.77-.54-6.53-3.49-8.86-9.47-7.49-18.81-15.15-28.34-22.56a7.82,7.82,0,0,1-3.32-7q.15-86.61.07-173.2c0-11.82-5.18-17-16.89-17Q249.53,44,139.3,44c-12,0-17.17,5.18-17.17,17.2q0,86.37.06,172.76c0,3.06-.65,5.16-3.27,7-6.85,4.85-13.48,10-20.19,15-5.32,4-5.88,5.89-3.5,12,8.45,21.79,17,43.57,25.31,65.4a23.12,23.12,0,0,1,1.52,8.09Q122.21,396.56,122.13,451.56ZM475.66,29v453.4H22.26V29Z"/>
      <path class="cls-1" d="M389.9,267.31l-13,3.88V256.88Z"/>
      <path class="cls-1" d="M362.32,433.19v20.7H136.62v-20.7Z"/>
      <path class="cls-2" d="M339.54,72.31c6.34,0,8.83,2.49,8.84,8.83q0,33.57,0,67.16c0,6.34-2.5,8.82-8.84,8.83q-19.44.06-38.88,0c-6.34,0-8.81-2.49-8.83-8.83,0-11.34,0-22.68,0-34,0-11,0-22.1,0-33.14,0-6.35,2.49-8.81,8.83-8.83Q320.1,72.27,339.54,72.31ZM334,142.65v-56H306.27v56Z"/>
      <path class="cls-2" d="M339.59,171.3c6.31,0,8.78,2.5,8.79,8.87q0,33.57,0,67.16c0,6.31-2.51,8.78-8.88,8.79q-19.44.06-38.88,0c-6.31,0-8.77-2.51-8.79-8.87,0-11.2,0-22.39,0-33.58s0-22.39,0-33.59c0-6.32,2.5-8.77,8.87-8.78Q320.14,171.24,339.59,171.3Zm-5.53,70.44v-56H306.32v56Z"/>
      <path class="cls-2" d="M359.78,44c11.71,0,16.89,5.22,16.89,17q0,86.6-.07,173.2a7.82,7.82,0,0,0,3.32,7c9.53,7.41,18.87,15.07,28.34,22.56,2.95,2.33,4.19,5.09,3.49,8.86q-6.93,37.53-13.77,75.08c-1.1,6-4,8-10,7.06-3.61-.54-7.23-1-11.33-1.65v5.15q0,46.61,0,93.23c0,11.39-5.34,16.68-16.82,16.68H138.93c-11.5,0-16.8-5.26-16.8-16.69q0-55-.07-110a23.12,23.12,0,0,0-1.52-8.09c-8.35-21.83-16.86-43.61-25.31-65.4-2.38-6.13-1.82-8,3.5-12,6.71-5,13.34-10.18,20.19-15,2.62-1.86,3.28-4,3.27-7q-.12-86.39-.06-172.76c0-12,5.18-17.2,17.17-17.2Q249.53,44,359.78,44ZM163.85,284.66c.82,2.64.82,5.93,2.29,6.85,8.46,5.25,17.26,9.94,26.48,15.12v-22Zm131.7,88.09c2.54,1.71,3.62.4,5.11-1.1,11.34-11.37,22.75-22.65,34-34.1,3-3.05,6.13-3.93,10.32-3.27,13.2,2.08,26.45,3.84,40.09,5.78,3.59-19.82,7.14-39.39,10.82-59.7l-164.8,48.82a23.12,23.12,0,0,0,2.07,1.88C254,345,274.82,358.76,295.55,372.75Zm10.22,13.8c-4.92,4.91-7.22,5.12-13,1.23-24.49-16.31-49-32.57-73.39-49-3.27-2.2-5.07-2.32-8,.65-17.95,18.27-36.13,36.32-54.26,54.41-5.94,5.93-11,4.89-14.06-2.85-2-5.09-4-10.2-6-15.29l-.6.2v42.61H362.23V351.15c-5.05-.74-9.85-1.35-14.61-2.2a6.72,6.72,0,0,0-6.6,2.27C329.36,363.08,317.55,374.8,305.77,386.55ZM268.43,270.28c6.91,0,9.22,2.36,9.25,9.31s0,13.7,0,21c4.42-1.31,8.26-2.28,11.95-3.66a4.11,4.11,0,0,0,2.09-3c.23-4.85.08-9.72.11-14.58,0-6.65,2.41-9,9.05-9.06q18.35,0,36.68,0c8.28,0,9.46.92,11.45,9.17l13.2-3.89V58.38H136.27V241.87c0,9.87-.06,19.74.06,29.61,0,1.42.43,3.49,1.41,4.14,3.88,2.55,8.06,4.65,12.48,7.12.09-1.26.17-2,.19-2.66.18-7.87,2.16-9.8,10.08-9.8q18.56,0,37.12,0c7,0,9.34,2.33,9.36,9.2,0,10.46,0,20.91,0,31.37,0,4.08,5.3,8.58,9.39,7.94,3.21-.49,5-1.69,4.87-5.68-.35-11.33-.15-22.68-.11-34,0-6.32,2.49-8.78,8.86-8.8Q249.21,270.24,268.43,270.28Zm108.46.91,13-3.88-13-10.43Zm-14.57,182.7v-20.7H136.62v20.7ZM329.65,285.22c0-.21-.09-.42-.14-.62H306.12v7.56Zm-66.36,19.64V284.6H235.45v28.52Zm-61.84,23L114.66,279c13.07,33.59,25.62,65.87,38,97.64Zm-79.46-61V256.24l-8.09,6.15Z"/>
      <path class="cls-1" d="M334.06,185.75v56H306.32v-56Z"/>
      <path class="cls-1" d="M334,86.64v56H306.27v-56Z"/>
      <path class="cls-1" d="M329.51,284.6c.05.2.1.41.14.62l-23.53,6.94V284.6Z"/>
      <path class="cls-1" d="M300.66,371.65c-1.49,1.5-2.57,2.81-5.11,1.1-20.73-14-41.58-27.8-62.39-41.69a23.12,23.12,0,0,1-2.07-1.88l164.8-48.82c-3.68,20.31-7.23,39.88-10.82,59.7-13.64-1.94-26.89-3.7-40.09-5.78-4.19-.66-7.33.22-10.32,3.27C323.41,349,312,360.28,300.66,371.65Z"/>
      <path class="cls-2" d="M268.83,72.31c6.35,0,8.83,2.49,8.84,8.82q0,33.59,0,67.17c0,6.34-2.5,8.82-8.83,8.83q-19.44.06-38.88,0c-6.34,0-8.81-2.49-8.83-8.83,0-11.19,0-22.38,0-33.58s0-22.39,0-33.58c0-6.35,2.48-8.81,8.82-8.83Q249.39,72.25,268.83,72.31Zm-5.6,70.49v-56H235.49v56Z"/>
      <path class="cls-2" d="M268.84,171.3c6.34,0,8.82,2.49,8.83,8.82q0,33.58,0,67.17c0,6.33-2.5,8.82-8.83,8.83q-19.44.06-38.88,0c-6.34,0-8.81-2.49-8.83-8.83,0-11.19,0-22.39,0-33.58s0-22.39,0-33.58c0-6.35,2.48-8.82,8.82-8.83Q249.39,171.24,268.84,171.3Zm-5.5,70.47v-56H235.6v56Z"/>
      <path class="cls-1" d="M263.34,185.73v56H235.6v-56Z"/>
      <path class="cls-1" d="M263.29,284.6v20.26l-27.84,8.26V284.6Z"/>
      <path class="cls-1" d="M263.23,86.79v56H235.49v-56Z"/>
      <path class="cls-1" d="M292.73,387.78c5.82,3.89,8.12,3.68,13-1.23,11.78-11.75,23.59-23.47,35.25-35.33a6.72,6.72,0,0,1,6.6-2.27c4.76.85,9.56,1.46,14.61,2.2v67.32H136.39V375.86l.6-.2c2,5.09,4,10.2,6,15.29,3.1,7.74,8.12,8.78,14.06,2.85,18.13-18.09,36.31-36.14,54.26-54.41,2.92-3,4.72-2.85,8-.65C243.72,355.21,268.24,371.47,292.73,387.78Z"/>
      <path class="cls-2" d="M207,179.86c0,11.34,0,22.69,0,34s0,22.38,0,33.58c0,6.08-2.53,8.63-8.57,8.65q-19.66.06-39.32,0c-6.09,0-8.63-2.53-8.64-8.57q-.06-33.81,0-67.6c0-6.1,2.53-8.63,8.57-8.65q19.66-.06,39.32,0C204.4,171.32,206.94,173.83,207,179.86ZM192.52,241.8v-56H164.79v56Z"/>
      <path class="cls-2" d="M198.71,72.32c5.54,0,8.23,2.62,8.24,8.07q.09,34.24,0,68.49c0,5.53-2.63,8.21-8.07,8.24q-20.1.1-40.21,0c-5.69,0-8.22-2.67-8.24-8.51-.05-11.35,0-22.69,0-34,0-11.19,0-22.39,0-33.58,0-6.1,2.52-8.67,8.52-8.69Q178.83,72.25,198.71,72.32Zm-6.06,70.44v-56H164.91v56Z"/>
      <path class="cls-1" d="M192.65,86.76v56H164.91v-56Z"/>
      <path class="cls-1" d="M192.62,284.66v22c-9.22-5.18-18-9.87-26.48-15.12-1.47-.92-1.47-4.21-2.29-6.85Z"/>
      <path class="cls-1" d="M192.52,185.78v56H164.79v-56Z"/>
      <path class="cls-1" d="M114.66,279l86.79,48.82-48.81,48.82C140.28,344.91,127.73,312.63,114.66,279Z"/>
      <path class="cls-1" d="M158.67,157.12q20.1.1,40.21,0c5.44,0,8.06-2.71,8.07-8.24q.08-34.25,0-68.49c0-5.45-2.7-8-8.24-8.07q-19.89-.09-39.77,0c-6,0-8.49,2.59-8.52,8.69,0,11.19,0,22.39,0,33.58,0,11.34,0,22.68,0,34C150.45,154.45,153,157.1,158.67,157.12Zm-8.24,90.43c0,6,2.55,8.55,8.64,8.57q19.67.06,39.32,0c6,0,8.55-2.57,8.57-8.65,0-11.2,0-22.39,0-33.58s0-22.69,0-34c0-6-2.56-8.54-8.65-8.56q-19.67-.06-39.32,0c-6,0-8.56,2.55-8.57,8.65Q150.38,213.75,150.43,247.55Zm65.94,71.24c-4.09.64-9.39-3.86-9.39-7.94,0-10.46,0-20.91,0-31.37,0-6.87-2.39-9.19-9.36-9.2q-18.56,0-37.12,0c-7.92,0-9.9,1.93-10.08,9.8,0,.7-.1,1.4-.19,2.66-4.42-2.47-8.6-4.57-12.48-7.12-1-.65-1.39-2.72-1.41-4.14-.12-9.87-.06-19.74-.06-29.61V58.38H362.21V275.56L349,279.45c-2-8.25-3.17-9.17-11.45-9.17q-18.35,0-36.68,0c-6.64,0-9,2.41-9.05,9.06,0,4.86.12,9.73-.11,14.58a4.11,4.11,0,0,1-2.09,3c-3.69,1.38-7.53,2.35-11.95,3.66,0-7.32,0-14.17,0-21s-2.34-9.3-9.25-9.31q-19.22,0-38.44,0c-6.37,0-8.84,2.48-8.86,8.8,0,11.35-.24,22.7.11,34C221.37,317.1,219.58,318.3,216.37,318.79Zm4.76-170.49c0,6.34,2.49,8.82,8.83,8.83q19.44.06,38.88,0c6.33,0,8.82-2.49,8.83-8.83q0-33.59,0-67.17c0-6.33-2.49-8.8-8.84-8.82q-19.44,0-38.88,0c-6.34,0-8.8,2.48-8.82,8.83,0,11.19,0,22.39,0,33.58S221.09,137.11,221.13,148.3Zm0,99c0,6.34,2.49,8.82,8.83,8.83q19.44.06,38.88,0c6.33,0,8.82-2.5,8.83-8.83q0-33.58,0-67.17c0-6.33-2.49-8.81-8.83-8.82q-19.44-.06-38.89,0c-6.34,0-8.8,2.48-8.82,8.83,0,11.19,0,22.38,0,33.58S221.09,236.1,221.13,247.29Zm79.53-90.16q19.44.06,38.88,0c6.34,0,8.83-2.49,8.84-8.83q0-33.59,0-67.16c0-6.34-2.5-8.81-8.84-8.83q-19.44,0-38.88,0c-6.34,0-8.81,2.48-8.83,8.83,0,11,0,22.09,0,33.14,0,11.34,0,22.68,0,34C291.85,154.64,294.32,157.12,300.66,157.13Zm0,99q19.44.06,38.88,0c6.37,0,8.87-2.48,8.88-8.79q0-33.59,0-67.16c0-6.37-2.48-8.86-8.79-8.87q-19.45-.06-38.89,0c-6.37,0-8.85,2.46-8.87,8.78,0,11.2,0,22.39,0,33.59s0,22.38,0,33.58C291.85,253.61,294.31,256.1,300.62,256.12Z"/>
      <path class="cls-1" d="M122,256.24v10.63l-8.09-4.48Z"/>
    </g>
  </g>
</svg>
