<svg xmlns="http://www.w3.org/2000/svg" viewBox="0 0 500 500">
  <defs>
    <style>
      .cls-1 {
        fill: #6259fa;
      }

      .cls-2 {
        fill: none;
      }
    </style>
  </defs>
  <g id="Layer_9" data-name="Layer 9">
    <g>
      <path class="cls-1" d="M389.74,127.91c3.77.21,5.27-1.72,5.25-5.32-.05-6.91,0-13.82,0-20.72,0-7.65-.51-8.15-8.11-8.15H176.37a42.33,42.33,0,0,1-5.17-.19,5.31,5.31,0,0,1-5-5.34c-.2-2.94,1.19-5.22,4.2-5.94a23.73,23.73,0,0,1,5.53-.5q88.69,0,177.41,0h5.52c-1.45-7.09-3-13.65-4.06-20.29-.57-3.54-1.88-4.71-5.59-4.7q-108.44.17-216.88.08c-.8,0-1.73-.26-2.36.07-1,.52-2.36,1.3-2.57,2.2-1.69,7.34-3.16,14.74-4.8,22.64,4.19,0,8,0,11.84,0,3.44,0,6.92-.08,10.34.28s5.26,2.51,5.13,6-2.13,5.31-5.52,5.63c-1.32.12-2.66.1-4,.1-15.81,0-31.62,0-47.44,0-5.27,0-6.35,1.09-6.38,6.25,0,6.77,0,13.55,0,20.33,0,7.27.34,7.6,7.71,7.6h293C388.15,127.91,389,127.87,389.74,127.91ZM358,45.64c5,2.6,7.39,6.86,8.36,12.3,1.23,6.92,3,13.75,4.18,20.67.45,2.6,1.53,3.22,3.92,3.16,5-.14,10.1-.11,15.15,0,10.92.19,17.26,6.46,17.45,17.41q.19,11.76,0,23.52c-.21,11-6.49,17.1-17.52,17.22-6.08.07-6.12.07-7,6.24-1.12,7.48-2.24,15-3.13,22.47a5.27,5.27,0,0,0,1.48,4c4.22,3.7,5.59,8.29,4.83,13.62q-12.15,85.14-24.34,170.26c-1.63,11.43-3.31,22.86-4.84,34.3-.8,5.94-3.28,10.48-9,13.09-1.09.5-2,2.33-2.2,3.67-1.44,8.91-2.48,17.88-4,26.77-2,11.67-10.95,19.47-22.74,19.5q-38.85.09-77.72.09t-77.73-.09c-11.93,0-20.91-8-22.83-19.88-1.45-8.9-2.54-17.87-4-26.77a5.31,5.31,0,0,0-2.46-3.43A14.61,14.61,0,0,1,125.26,392c-4.1-28.37-8.08-56.76-12.11-85.14q-6.93-48.88-13.89-97.76c-1.13-7.88-2.37-15.75-3.39-23.64a13.89,13.89,0,0,1,4.87-12.83,5.25,5.25,0,0,0,1.53-3.94c-1-8.56-2.38-17.08-3.46-25.64-.29-2.29-1.08-3.31-3.49-3.14a42.37,42.37,0,0,1-6.37-.11c-7.41-.59-13.76-6.43-14-13.85-.39-9.94-.37-19.92,0-29.87A14.43,14.43,0,0,1,88,82.22a161.73,161.73,0,0,1,18.69-.43c2.71,0,4-.58,4.46-3.51,1.15-6.79,2.94-13.48,4.11-20.27.95-5.46,3.34-9.69,8.27-12.37ZM262.86,398.55a5.32,5.32,0,0,1-4.29,5.9,23.72,23.72,0,0,1-5.53.48q-50,0-100.06,0h-4.83c1.16,8.27,2.32,15.87,3.29,23.5,1.28,10.05,5,13.4,15.08,13.4H293.29c8,0,15.94,0,23.91,0,6.21-.05,10.71-2.75,11.77-8.1,1.85-9.33,3-18.79,4.56-28.78h-4.78q-20.34,0-40.67,0a21,21,0,0,1-4.34-.37,5.38,5.38,0,0,1-4.67-6c.17-3.16,2-5.11,5.27-5.49a39.71,39.71,0,0,1,4.37-.16c17,0,34-.05,51,0,3,0,4.45-.82,4.91-4.14,3.77-27.21,7.75-54.4,11.63-81.6q8.64-60.71,17.31-121.4c.53-3.68-.57-4.69-4.1-4.68q-128.76.09-257.52,0c-3.66,0-4.48,1.19-4,4.78,4.49,30.73,8.78,61.49,13.16,92.24q7.77,54.58,15.61,109.18c.81,5.59.92,5.58,6.75,5.58H253.16a36.2,36.2,0,0,1,4.77.23A5.39,5.39,0,0,1,262.86,398.55Zm108.2-258.33H110.48c1.39,9.8,2.73,19.22,4.07,28.68H367.06C368.41,159.22,369.72,149.81,371.06,140.22Z"/>
      <path class="cls-2" d="M110.48,140.22H371.06c-1.34,9.59-2.65,19-4,28.68H114.55C113.21,159.44,111.87,150,110.48,140.22Z"/>
      <path class="cls-2" d="M288.08,404.94q20.34,0,40.67,0h4.78c-1.55,10-2.71,19.45-4.56,28.78-1.06,5.35-5.56,8-11.77,8.1-8,.07-15.94,0-23.91,0H166.52c-10.12,0-13.8-3.35-15.08-13.4-1-7.63-2.13-15.23-3.29-23.5H153q50,0,100.06,0a23.72,23.72,0,0,0,5.53-.48,5.32,5.32,0,0,0,4.29-5.9,5.39,5.39,0,0,0-4.93-5.39,36.2,36.2,0,0,0-4.77-.23H143.53c-5.83,0-5.94,0-6.75-5.58q-7.84-54.58-15.61-109.18c-4.38-30.75-8.67-61.51-13.16-92.24-.52-3.59.3-4.79,4-4.78q128.76.09,257.52,0c3.53,0,4.63,1,4.1,4.68q-8.77,60.68-17.31,121.4c-3.88,27.2-7.86,54.39-11.63,81.6-.46,3.32-1.89,4.15-4.91,4.14-17-.08-34,0-51,0a39.71,39.71,0,0,0-4.37.16c-3.23.38-5.1,2.33-5.27,5.49a5.38,5.38,0,0,0,4.67,6A21,21,0,0,0,288.08,404.94ZM183,292.46c0,30.21,19.56,49.12,47.13,48.12,35.17-1.28,67.78-34.54,68.34-69.72.42-26.42-18.07-45.57-44.55-45.72-16.33-.09-30.65,5.89-43.09,16.19C194,255.25,183.89,272.8,183,292.46Z"/>
      <path class="cls-2" d="M444.85,455.35H240.79v-1.5q38.86,0,77.72-.09c11.79,0,20.73-7.83,22.74-19.5,1.53-8.89,2.57-17.86,4-26.77.22-1.34,1.11-3.17,2.2-3.67,5.71-2.61,8.19-7.15,9-13.09,1.53-11.44,3.21-22.87,4.84-34.3q12.16-85.12,24.34-170.26c.76-5.33-.61-9.92-4.83-13.62a5.27,5.27,0,0,1-1.48-4c.89-7.51,2-15,3.13-22.47.92-6.17,1-6.17,7-6.24,11-.12,17.31-6.2,17.52-17.22q.21-11.76,0-23.52c-.19-11-6.53-17.22-17.45-17.41-5.05-.08-10.1-.11-15.15,0-2.39.06-3.47-.56-3.92-3.16-1.2-6.92-2.95-13.75-4.18-20.67-1-5.44-3.36-9.7-8.36-12.3h86.9Z"/>
      <path class="cls-2" d="M280.16,249.48c6.64,9,7.5,19,5.56,29.1-4.76,24.88-26.61,45.71-51.48,49.62a36.88,36.88,0,0,1-23.62-4.06c1.72-1.24,3.25-2.37,4.8-3.46,9.82-6.89,19.21-14.32,26.42-24,3.52-4.72,7-9.88,8.83-15.39C255.74,266.27,266.52,257,280.16,249.48Z"/>
      <path class="cls-1" d="M255.15,252.66c4.6-4.12,9.65-7.73,14.72-11.75a34.26,34.26,0,0,0-21.2-3.64c-25.91,3.34-48.62,25-53,50.9-1.65,9.71-.63,19.22,6,28.11,7.68-6.12,15.36-11.81,22.55-18.07,7.38-6.42,13.43-14,16.45-23.54A49.13,49.13,0,0,1,255.15,252.66ZM254,225.14c26.48.15,45,19.3,44.55,45.72-.56,35.18-33.17,68.44-68.34,69.72-27.57,1-47.16-17.91-47.13-48.12.86-19.66,11-37.21,27.83-51.13C223.3,231,237.62,225.05,254,225.14Zm31.77,53.44c1.94-10.13,1.08-20.06-5.56-29.1-13.64,7.49-24.42,16.79-29.49,31.83-1.86,5.51-5.31,10.67-8.83,15.39-7.21,9.66-16.6,17.09-26.42,24-1.55,1.09-3.08,2.22-4.8,3.46a36.88,36.88,0,0,0,23.62,4.06C259.11,324.29,281,303.46,285.72,278.58Z"/>
      <path class="cls-2" d="M248.67,237.27a34.26,34.26,0,0,1,21.2,3.64c-5.07,4-10.12,7.63-14.72,11.75a49.13,49.13,0,0,0-14.51,22c-3,9.56-9.07,17.12-16.45,23.54-7.19,6.26-14.87,12-22.55,18.07-6.62-8.89-7.64-18.4-6-28.11C200.05,262.28,222.76,240.61,248.67,237.27Z"/>
      <path class="cls-2" d="M349.25,56.73c3.71,0,5,1.16,5.59,4.7,1.05,6.64,2.61,13.2,4.06,20.29h-5.52q-88.71,0-177.41,0a23.73,23.73,0,0,0-5.53.5c-3,.72-4.4,3-4.2,5.94a5.31,5.31,0,0,0,5,5.34,42.33,42.33,0,0,0,5.17.19h210.5c7.6,0,8.1.5,8.11,8.15,0,6.9,0,13.81,0,20.72,0,3.6-1.48,5.53-5.25,5.32-.79,0-1.59,0-2.39,0h-293c-7.37,0-7.7-.33-7.71-7.6,0-6.78,0-13.56,0-20.33,0-5.16,1.11-6.25,6.38-6.25,15.82,0,31.63,0,47.44,0,1.33,0,2.67,0,4-.1,3.39-.32,5.39-2.2,5.52-5.63s-1.79-5.61-5.13-6-6.9-.24-10.34-.28c-3.83,0-7.65,0-11.84,0,1.64-7.9,3.11-15.3,4.8-22.64.21-.9,1.57-1.68,2.57-2.2.63-.33,1.56-.07,2.36-.07Q240.81,56.81,349.25,56.73Z"/>
      <path class="cls-2" d="M74.9,125.9c.29,7.42,6.64,13.26,14,13.85a42.37,42.37,0,0,0,6.37.11c2.41-.17,3.2.85,3.49,3.14,1.08,8.56,2.44,17.08,3.46,25.64a5.25,5.25,0,0,1-1.53,3.94,13.89,13.89,0,0,0-4.87,12.83c1,7.89,2.26,15.76,3.39,23.64q6.94,48.88,13.89,97.76c4,28.38,8,56.77,12.11,85.14a14.61,14.61,0,0,0,8.51,11.73,5.31,5.31,0,0,1,2.46,3.43c1.46,8.9,2.55,17.87,4,26.77,1.92,11.84,10.9,19.85,22.83,19.88q38.87.09,77.73.09v1.5H36V45.64h87.58c-4.93,2.68-7.32,6.91-8.27,12.37-1.17,6.79-3,13.48-4.11,20.27-.49,2.93-1.75,3.54-4.46,3.51A161.73,161.73,0,0,0,88,82.22,14.43,14.43,0,0,0,74.88,96C74.53,106,74.51,116,74.9,125.9Z"/>
    </g>
  </g>
</svg>
