<svg xmlns="http://www.w3.org/2000/svg" viewBox="0 0 500 500">
  <defs>
    <style>
      .cls-1 {
        fill: #6259fa;
      }

      .cls-2 {
        fill: none;
      }
    </style>
  </defs>
  <g id="Layer_9" data-name="Layer 9">
    <g>
      <path class="cls-1" d="M154.38,440.18c2.27,2.72,4.14,4.07,7.73,4.06q78.75-.17,157.48-.09c5.75,0,12.48,1.62,17-.8s6.64-9.08,10.11-13.66c2.62-3.44,3.47-7,3.47-11.34-.1-85-.38-169.92.21-254.88.11-14.9-2.37-27.94-11.36-39.8-1.77-2.34-3.29-3.32-6.19-3.31q-85.58.12-171.13,0c-3.06,0-5,.72-6.51,3.55-2.63,4.94-5.93,9.54-8.46,14.53a20.62,20.62,0,0,0-2.44,8.87c-.15,45.37-.1,90.73-.1,136.09,0,40.81.44,81.63-.27,122.43C143.69,418.88,146,430.1,154.38,440.18Zm-4.91,36.5c2.22-17.43-2.5-32.4-13.8-45.68-1.56-1.83-2.27-4.95-2.28-7.47q-.16-140,0-280c0-2.42,1.18-4.84,1.88-7.24a4.76,4.76,0,0,1,.92-1.56C146.7,121.1,151.7,106,149.46,88.63c-.77-5.93,1.36-7.48,7.47-7.49q39.38,0,78.77,0h6.1c-.74-6.05-1.39-11.68-2.11-17.31-.89-6.92-1.83-13.83-2.76-20.74-1.56-11.55,3.56-19.76,14.58-23.38,1-.32,1.94-.73,2.9-1.1h33.7l4.54,1.84C302.09,24.24,306.74,32,305.34,42c-1.52,11-3.29,21.89-4.93,32.84-.29,1.9-.46,3.83-.75,6.27h25c4.56,0,9.11-.06,13.66,0,5.27.1,7,1.87,7,7.24.05,7.14-.16,14.28.11,21.4.09,2.43,1.26,4.82,1.95,7.23a2.22,2.22,0,0,0,.23.39c4.4,7.43,10.49,14.4,12.7,22.43S361,157,361,165.64q0,128.63-.1,257.25c0,2.82-.71,6.32-2.45,8.32-11,12.78-15.46,27.33-13,44a13.34,13.34,0,0,1,0,2.28c-.1,5.52-1.87,7.32-7.41,7.33H157.67C150.73,484.84,148.61,483.4,149.47,476.68Zm184.91-3V455.16H160.43v18.49Zm-.21-364.43V92.28H160.4v16.94ZM294.48,41.41c.92-6.42-1.56-10.9-7.89-11.35a239.46,239.46,0,0,0-31.24.05c-5,.3-8.52,4.48-8.06,8.36C249,52.55,251,66.6,252.9,81.1c11.31,0,22.33.07,33.34-.12.91,0,2.41-1.72,2.59-2.8Q291.84,59.82,294.48,41.41Z"/>
      <path class="cls-2" d="M332.82,120.36c2.9,0,4.42,1,6.19,3.31,9,11.86,11.47,24.9,11.36,39.8-.59,85-.31,169.92-.21,254.88,0,4.3-.85,7.9-3.47,11.34-3.47,4.58-5.61,11.24-10.11,13.66s-11.24.8-17,.8q-78.73,0-157.48.09c-3.59,0-5.46-1.34-7.73-4.06-8.42-10.08-10.69-21.3-10.47-34.36.71-40.8.27-81.62.27-122.43,0-45.36-.05-90.72.1-136.09a20.62,20.62,0,0,1,2.44-8.87c2.53-5,5.83-9.59,8.46-14.53,1.51-2.83,3.45-3.55,6.51-3.55Q247.25,120.49,332.82,120.36ZM224.22,298.78c1.57,0,3.13.16,5.14.27-2.52,10.8-4.88,21-7.26,31.12q-3.69,15.7-7.4,31.4c-.74,3.13-1,6.16,2.54,7.81s5.75-.33,7.74-2.89l.56-.72q34.83-44.67,69.55-89.42c1.51-2,2.72-5.77,1.8-7.52s-4.65-3-7.2-3.09c-8.3-.37-16.62-.14-25.51-.14.75-1.92,1.25-3.31,1.82-4.66,5-11.87,10-23.72,14.94-35.62,2.12-5.15.07-8.59-5.42-8.65-14.56-.16-29.13-.23-43.69.13-2.16,0-5.41,2.1-6.22,4-9.76,23.17-19.2,46.47-28.59,69.79-1.91,4.72.48,8,5.81,8.09C210,298.88,217.09,298.75,224.22,298.78Z"/>
      <path class="cls-2" d="M481.16,485.75H302.46v-.91H338c5.54,0,7.31-1.81,7.41-7.33a13.34,13.34,0,0,0,0-2.28c-2.43-16.68,2-31.23,13-44,1.74-2,2.44-5.5,2.45-8.32q.18-128.62.1-257.25c0-8.64,1.63-17.76-.59-25.81s-8.3-15-12.7-22.43a2.22,2.22,0,0,1-.23-.39c-.69-2.41-1.86-4.8-1.95-7.23-.27-7.12-.06-14.26-.11-21.4,0-5.37-1.75-7.14-7-7.24-4.55-.08-9.1,0-13.66,0h-25c.29-2.44.46-4.37.75-6.27C302.05,63.9,303.82,53,305.34,42c1.4-10.06-3.25-17.77-12.69-21.58l-4.54-1.84H481.16Z"/>
      <path class="cls-2" d="M334.38,455.16v18.49H160.43V455.16Z"/>
      <path class="cls-2" d="M334.17,92.28v16.94H160.4V92.28Z"/>
      <path class="cls-1" d="M233.93,288c6.92,0,8.61,2.2,7,9q-5,21.57-10,43.14l.63.31,49.92-64c-8.51,0-15.89,0-23.26,0-7.14,0-9.18-3.16-6.37-9.87q7.38-17.6,14.81-35.16c.48-1.14.8-2.36,1.32-3.95-10.35,0-20,.12-29.74-.07-2.93-.06-4.23,1-5.27,3.64C227.06,245.76,221,260.46,215,275.18c-1.64,4-3.28,8.06-5.2,12.8C218.48,288,226.2,288,233.93,288Zm-9,78.51c-2,2.56-4.27,4.52-7.74,2.89s-3.28-4.68-2.54-7.81q3.72-15.7,7.4-31.4c2.38-10.16,4.74-20.32,7.26-31.12-2-.11-3.57-.27-5.14-.27-7.13,0-14.26.1-21.39-.06-5.33-.13-7.72-3.37-5.81-8.09,9.39-23.32,18.83-46.62,28.59-69.79.81-1.94,4.06-4,6.22-4,14.56-.36,29.13-.29,43.69-.13,5.49.06,7.54,3.5,5.42,8.65-4.92,11.9-10,23.75-14.94,35.62-.57,1.35-1.07,2.74-1.82,4.66,8.89,0,17.21-.23,25.51.14,2.55.12,6.23,1.26,7.2,3.09s-.29,5.56-1.8,7.52q-34.59,44.85-69.55,89.42Z"/>
      <path class="cls-2" d="M286.59,30.06c6.33.45,8.81,4.93,7.89,11.35q-2.67,18.41-5.65,36.77c-.18,1.08-1.68,2.78-2.59,2.8-11,.19-22,.12-33.34.12C251,66.6,249,52.55,247.29,38.47c-.46-3.88,3-8.06,8.06-8.36A239.46,239.46,0,0,1,286.59,30.06ZM265.63,55h10.58V40.76a67.85,67.85,0,0,0-8.24.12,3.46,3.46,0,0,0-2.23,2.46C265.48,47.07,265.63,50.83,265.63,55Z"/>
      <path d="M276.21,40.76V55H265.63c0-4.14-.15-7.9.11-11.63A3.46,3.46,0,0,1,268,40.88,67.85,67.85,0,0,1,276.21,40.76Z"/>
      <path class="cls-2" d="M209.8,288c1.92-4.74,3.56-8.77,5.2-12.8,6-14.72,12.06-29.42,17.94-44.18,1-2.63,2.34-3.7,5.27-3.64,9.69.19,19.39.07,29.74.07-.52,1.59-.84,2.81-1.32,3.95q-7.39,17.6-14.81,35.16c-2.81,6.71-.77,9.84,6.37,9.87,7.37,0,14.75,0,23.26,0l-49.92,64-.63-.31q5-21.57,10-43.14c1.59-6.8-.1-9-7-9C226.2,288,218.48,288,209.8,288Z"/>
      <path class="cls-2" d="M302.46,485.75H14V18.59h240.4c-1,.37-1.92.78-2.9,1.1-11,3.62-16.14,11.83-14.58,23.38.93,6.91,1.87,13.82,2.76,20.74.72,5.63,1.37,11.26,2.11,17.31h-6.1q-39.39,0-78.77,0c-6.11,0-8.24,1.56-7.47,7.49,2.24,17.4-2.76,32.47-13.28,46.08a4.76,4.76,0,0,0-.92,1.56c-.7,2.4-1.88,4.82-1.88,7.24q-.15,140,0,280c0,2.52.72,5.64,2.28,7.47,11.3,13.28,16,28.25,13.8,45.68-.86,6.72,1.26,8.16,8.2,8.16H302.46Z"/>
    </g>
  </g>
</svg>
