<svg xmlns="http://www.w3.org/2000/svg" viewBox="0 0 500 500">
  <defs>
    <style>
      .cls-1 {
        fill: none;
      }

      .cls-2 {
        fill: #6259fa;
      }
    </style>
  </defs>
  <g id="Layer_9" data-name="Layer 9">
    <g>
      <path class="cls-1" d="M466,457H249.69v-1.83q69.76,0,139.53-.12c28.53,0,51.1-17.62,56.71-44.79,1.9-9.24,1.36-19.05,1.4-28.6,0-5.43,1.05-9.55,4.92-14,8.83-10.19,9.73-22.17,3.85-34.38-1-2.11-1-3.44.4-5.34a43.77,43.77,0,0,0,8.84-26H466Z"/>
      <path class="cls-1" d="M76.79,208.46c6.14.26,11.89.7,17.64.71q165.06.06,330.12,0c5.83,0,11.65-1.12,18-1.76,3.55,6-1.55,15-6.84,18.09A19.07,19.07,0,0,1,419,227.14c-16.15-5.79-30.87-3.28-44.8,6.63s-24.51,9.88-38.34,0c-12.19-8.73-25.44-12.13-39.76-8.15-6.7,1.86-12.59,6.5-19,9.49-4.69,2.17-9.55,4.45-14.57,5.36-7.63,1.38-14.65-1.19-20.81-5.9-10.29-7.87-21.73-11.58-34.8-10.24-9.39,1-17.16,5.27-24.59,10.57a28.83,28.83,0,0,1-14.88,5.76,29.14,29.14,0,0,1-20.2-5.59c-8.4-6.18-17.39-11.28-28.17-10.77a107.39,107.39,0,0,0-19,3.12c-5.23,1.22-10.1,1.19-14.89-1.32C78.22,222.46,75.21,216,76.79,208.46Z"/>
      <path class="cls-2" d="M437.89,260a5.31,5.31,0,0,0,2.57,3.75c16,7.7,24.88,22.53,24.88,38.09a43.77,43.77,0,0,1-8.84,26c-1.4,1.9-1.42,3.23-.4,5.34,5.88,12.21,5,24.19-3.85,34.38-3.87,4.47-4.9,8.59-4.92,14,0,9.55.5,19.36-1.4,28.6C440.32,437.39,417.75,455,389.22,455q-69.77.11-139.53.12-61.68,0-123.35-.13c-34-.08-58.07-24.79-58.12-58.9,0-8,.09-15.93-.08-23.9a9.65,9.65,0,0,0-1.63-5.14c-7.07-9.92-8.38-20.46-4.06-31.82.37-1,.56-2.65,0-3.19-6.53-6.51-9.89-14.6-12-23.34V296.55a10.24,10.24,0,0,0,.53-1.46c2.78-14.92,11.11-25.41,24.94-31.67A4.53,4.53,0,0,0,77.8,260c.2-5.39,0-10.8.14-16.19.08-2.36-.83-3.56-2.75-4.8-13.89-9-18.72-24.7-12.67-40,.59-1.49,0-3.49-.16-5.23-.63-5.14-2.62-10.49-1.81-15.38a122.5,122.5,0,0,1,16.14-42.89c19.17-32.07,47-54.28,80.56-69.51,40.05-18.2,82.23-24.34,126-19.95,36.42,3.65,70.46,14.38,101.31,34.28,31.18,20.11,54.81,46.57,66.61,82.33,3.14,9.49,6.8,19.24,2.9,29.6a3.54,3.54,0,0,0,.68,2.58c10,15.55,4.62,37.8-14.61,46.67a4.83,4.83,0,0,0-2.25,3.51A133.68,133.68,0,0,0,437.89,260Zm-139,67.81h48c25,0,50,0,74.93,0,11.26,0,20.16-4.17,24.77-14.77,8-18.51-4.07-36.45-24.49-36.54q-34.23-.17-68.45.07a8.86,8.86,0,0,0-5.57,2.3c-15.55,15.18-31,30.52-46.39,45.82C301,325.47,300.29,326.29,298.92,327.83Zm-133.6-25.49,17.07-17.1c-2.42-2.26-5.1-4.91-7.95-7.37a5.39,5.39,0,0,0-3.19-1.29c-10.51-.1-21-.06-31.82-.06Zm-98,6C70.07,320.57,79.9,327.81,94,327.82q62.78,0,125.54,0c1.29,0,2.57-.12,3.72-.18l-29.48-29.79c-6.68,6.77-13.47,13.7-20.31,20.57-6.19,6.23-9.84,6.23-16,.08-13.18-13.16-26.3-26.39-39.59-39.44a9.13,9.13,0,0,0-5.53-2.43c-6.6-.29-13.23-.27-19.84-.08C74.81,277.05,63.51,291.41,67.32,308.36ZM92.69,422.64c8.87,11.37,20.69,16.25,34.93,16.24q112.4-.08,224.79,0c12.28,0,24.57.12,36.85,0,17.5-.22,30.49-8,38.27-23.81,5.44-11,3.39-22.95,3.63-33.55-7.2-1.45-13.57-2.87-20-4a64.27,64.27,0,0,0-11.55-1.17c-7.28.07-12.89,4.29-18.54,8.25-9.85,6.9-20.7,9.28-32.63,7.8-9.08-1.13-16.53-5.51-23.69-10.67s-15.37-7.18-23.77-4.78c-5.42,1.55-10.49,4.77-15.29,7.89a46.81,46.81,0,0,1-32.33,7.58c-9.23-1.12-16.76-5.64-24.05-10.83-6.61-4.71-13.87-6.16-21.87-5.13-6.77.87-11.9,4.82-17.23,8.45-9.69,6.62-20.29,8.89-31.92,7.53-9.23-1.09-16.77-5.59-24.07-10.78s-15.32-7.15-23.79-4.63-16.83,4.58-25.78,2.17c0,8.24-.46,16.08.13,23.85A36.41,36.41,0,0,0,92.69,422.64ZM206.86,224.3c13.07-1.34,24.51,2.37,34.8,10.24,6.16,4.71,13.18,7.28,20.81,5.9,5-.91,9.88-3.19,14.57-5.36,6.43-3,12.32-7.63,19-9.49,14.32-4,27.57-.58,39.76,8.15,13.83,9.91,24.51,9.86,38.34,0s28.65-12.42,44.8-6.63a19.07,19.07,0,0,0,16.72-1.69c5.29-3.07,10.39-12.13,6.84-18.09-6.32.64-12.14,1.75-18,1.76q-165.06.15-330.12,0c-5.75,0-11.5-.45-17.64-.71-1.58,7.5,1.43,14,8.33,17.61,4.79,2.51,9.66,2.54,14.89,1.32a107.39,107.39,0,0,1,19-3.12c10.78-.51,19.77,4.59,28.17,10.77a29.14,29.14,0,0,0,20.2,5.59,28.83,28.83,0,0,0,14.88-5.76C189.7,229.57,197.47,225.26,206.86,224.3ZM186.41,367.88c9.9-6.79,20.76-9.11,32.67-7.56,9.07,1.19,16.44,5.71,23.64,10.79,6.48,4.57,13.59,6.08,21.46,5.15,6.94-.82,12.2-4.79,17.64-8.5,9.81-6.69,20.54-8.95,32.3-7.45,8.92,1.13,16.27,5.42,23.32,10.5A29.89,29.89,0,0,0,360,376.17c6.59-.94,11.62-4.77,16.85-8.33,11.91-8.1,24.76-10,38.55-5.92a44.53,44.53,0,0,0,9,2.1c6.82.52,12.47-2,16.31-7.81,3.32-5,3.56-10.26.71-16-9.78,4.47-20.06,3.84-30.27,3.84q-55.06,0-110.13,0c-6.2,0-13.08-1.54-18.42.63s-9.12,8.11-13.59,12.4l-.86.85c-4.8,4.53-8.95,4.52-13.74-.15-3.68-3.58-7.4-7.12-10.84-10.92a8.57,8.57,0,0,0-7.09-2.87c-38.06.08-76.13.2-114.18,0-14.91-.09-29.94,1.66-44.62-2.12-3,6-1.14,13.68,4.5,18.17a18,18,0,0,0,17.16,3.23c7.67-2.28,15.32-4,23.45-3.09,9.35,1.06,17.07,5.5,24.47,10.83,6.56,4.71,13.81,6.27,21.83,5.26C175.92,375.38,181.08,371.54,186.41,367.88ZM428.32,193c7.7,0,12.33-5.34,10.85-12.57a118.73,118.73,0,0,0-21.1-47.25c-20.79-28.17-48.74-46.64-81.2-58.48C298.7,60.74,259.38,57.44,219.32,64.1c-38.59,6.41-73.5,21.05-102.64,47.74-19.54,17.9-33.16,39.43-39.61,65.45-2.45,9.87,2.42,15.91,12.36,15.85,56.14-.31,112.29-.15,168.43-.15h92.32Q389.26,193,428.32,193Zm-6.77,67.15c0-4.87,0-9.43-.05-14,0-.65-.57-1.77-1-1.88-6.42-1.37-12.82-3.14-19.32-3.74-7.89-.73-14,4-20.13,8.27-10.36,7.32-21.81,9.41-34.24,7.5-8.44-1.3-15.35-5.65-22.08-10.44-6.09-4.34-12.78-5.86-20.23-5.41S291.34,245,285.58,249c-10.3,7.13-21.61,9.2-33.89,7.34-8.45-1.28-15.38-5.58-22.1-10.38-6.09-4.35-12.76-5.93-20.21-5.48-7.17.43-12.72,4.09-18.23,8a45.5,45.5,0,0,1-28.91,8.5c-10.48-.37-19.29-4.63-27.4-10.74-7.16-5.39-15.19-6.9-23.76-5.3-5.63,1.06-11.12,2.88-16.74,4.37v14.86ZM325,276.69H197.56l64.61,64.59Z"/>
      <path class="cls-1" d="M236.53,344a8.57,8.57,0,0,1,7.09,2.87c3.44,3.8,7.16,7.34,10.84,10.92,4.79,4.67,8.94,4.68,13.74.15l.86-.85c4.47-4.29,8.26-10.23,13.59-12.4s12.22-.63,18.42-.63q55.07,0,110.13,0c10.21,0,20.49.63,30.27-3.84,2.85,5.75,2.61,11-.71,16-3.84,5.77-9.49,8.33-16.31,7.81a44.53,44.53,0,0,1-9-2.1c-13.79-4.07-26.64-2.18-38.55,5.92-5.23,3.56-10.26,7.39-16.85,8.33a29.89,29.89,0,0,1-22.59-5.36c-7.05-5.08-14.4-9.37-23.32-10.5-11.76-1.5-22.49.76-32.3,7.45-5.44,3.71-10.7,7.68-17.64,8.5-7.87.93-15-.58-21.46-5.15-7.2-5.08-14.57-9.6-23.64-10.79-11.91-1.55-22.77.77-32.67,7.56-5.33,3.66-10.49,7.5-17.27,8.36-8,1-15.27-.55-21.83-5.26-7.4-5.33-15.12-9.77-24.47-10.83-8.13-.93-15.78.81-23.45,3.09A18,18,0,0,1,82.23,360c-5.64-4.49-7.55-12.15-4.5-18.17,14.68,3.78,29.71,2,44.62,2.12C160.4,344.19,198.47,344.07,236.53,344Z"/>
      <path class="cls-1" d="M207.44,376.43c8-1,15.26.42,21.87,5.13,7.29,5.19,14.82,9.71,24.05,10.83a46.81,46.81,0,0,0,32.33-7.58c4.8-3.12,9.87-6.34,15.29-7.89,8.4-2.4,16.54-.43,23.77,4.78s14.61,9.54,23.69,10.67c11.93,1.48,22.78-.9,32.63-7.8,5.65-4,11.26-8.18,18.54-8.25a64.27,64.27,0,0,1,11.55,1.17c6.43,1.11,12.8,2.53,20,4-.24,10.6,1.81,22.5-3.63,33.55-7.78,15.8-20.77,23.59-38.27,23.81-12.28.15-24.57,0-36.85,0q-112.4,0-224.79,0c-14.24,0-26.06-4.87-34.93-16.24A36.41,36.41,0,0,1,84.78,403c-.59-7.77-.13-15.61-.13-23.85,8.95,2.41,17.29.35,25.78-2.17s16.55-.52,23.79,4.63,14.84,9.69,24.07,10.78c11.63,1.36,22.23-.91,31.92-7.53C195.54,381.25,200.67,377.3,207.44,376.43Z"/>
      <path class="cls-1" d="M298.92,327.83c1.37-1.54,2-2.36,2.78-3.1,15.43-15.3,30.84-30.64,46.39-45.82a8.86,8.86,0,0,1,5.57-2.3q34.23-.23,68.45-.07c20.42.09,32.53,18,24.49,36.54-4.61,10.6-13.51,14.79-24.77,14.77-25-.06-50,0-74.93,0h-48Z"/>
      <path class="cls-2" d="M291,79.76c10.45,2.61,21.05,4.71,31.32,7.9,25.58,8,48.65,20.49,68,39.33a116.73,116.73,0,0,1,25.61,36.08c1.62,3.61,2.06,7-.71,10.18-3.85,4.43-10.23,3.24-13.41-2.22-4.19-7.2-7.92-14.81-13-21.35-16.63-21.44-38.86-35.24-64.15-44-11.4-4-23.4-6.19-35.14-9.18-4.34-1.1-6.89-3.83-7.1-7.7a7.93,7.93,0,0,1,5.66-8,22.79,22.79,0,0,1,2.76-.52C290.9,80.11,291,79.94,291,79.76Z"/>
      <path class="cls-1" d="M209.38,240.43c7.45-.45,14.12,1.13,20.21,5.48,6.72,4.8,13.65,9.1,22.1,10.38,12.28,1.86,23.59-.21,33.89-7.34,5.76-4,11.39-8.06,18.88-8.52s14.14,1.07,20.23,5.41c6.73,4.79,13.64,9.14,22.08,10.44,12.43,1.91,23.88-.18,34.24-7.5,6.09-4.3,12.24-9,20.13-8.27,6.5.6,12.9,2.37,19.32,3.74.47.11,1,1.23,1,1.88.09,4.56.05,9.12.05,14H94.34V245.26c5.62-1.49,11.11-3.31,16.74-4.37,8.57-1.6,16.6-.09,23.76,5.3,8.11,6.11,16.92,10.37,27.4,10.74a45.5,45.5,0,0,0,28.91-8.5C196.66,244.52,202.21,240.86,209.38,240.43Z"/>
      <path class="cls-1" d="M197.56,276.69H325l-62.79,64.59Z"/>
      <path class="cls-2" d="M277.57,167.69a8,8,0,0,1-.18-16.07,8,8,0,0,1,8,7.93A8.06,8.06,0,0,1,277.57,167.69Z"/>
      <path class="cls-2" d="M253.77,91.26a8.2,8.2,0,0,1-8-8.07,8,8,0,0,1,16.07.11A8.13,8.13,0,0,1,253.77,91.26Z"/>
      <path class="cls-1" d="M282.42,88.76c.21,3.87,2.76,6.6,7.1,7.7,11.74,3,23.74,5.22,35.14,9.18,25.29,8.8,47.52,22.6,64.15,44,5.08,6.54,8.81,14.15,13,21.35,3.18,5.46,9.56,6.65,13.41,2.22,2.77-3.17,2.33-6.57.71-10.18A116.73,116.73,0,0,0,390.32,127c-19.34-18.84-42.41-31.37-68-39.33-10.27-3.19-20.87-5.29-31.32-7.9-.05.18-.11.35-.17.52a22.79,22.79,0,0,0-2.76.52A7.93,7.93,0,0,0,282.42,88.76Zm-12.95,71a8.21,8.21,0,0,0,8.1,7.94,8.06,8.06,0,0,0,7.85-8.14,8,8,0,0,0-8-7.93A8.16,8.16,0,0,0,269.47,159.75ZM219.32,64.1c40.06-6.66,79.38-3.36,117.55,10.57,32.46,11.84,60.41,30.31,81.2,58.48a118.73,118.73,0,0,1,21.1,47.25C440.65,187.63,436,193,428.32,193q-39.06.08-78.14,0H257.86c-56.14,0-112.29-.16-168.43.15-9.94.06-14.81-6-12.36-15.85,6.45-26,20.07-47.55,39.61-65.45C145.82,85.15,180.73,70.51,219.32,64.1Zm26.45,19.09a8,8,0,0,0,16.07.11,8,8,0,0,0-16.07-.11ZM241.14,132a8.21,8.21,0,0,0,7.78-8.18,8,8,0,0,0-8.38-7.9,8.25,8.25,0,0,0-7.66,8.31A8.39,8.39,0,0,0,241.14,132Zm-70.85-7.79a8.18,8.18,0,0,0,8.14,7.78,8.33,8.33,0,0,0,7.85-8.15,8.12,8.12,0,0,0-8-7.92A8,8,0,0,0,170.29,124.22Zm-39,30.1a7.85,7.85,0,0,0,8.12,7.76,8,8,0,1,0-8.12-7.76Zm81,0a7.86,7.86,0,0,0,8.09,7.81,8,8,0,1,0-8.09-7.81Z"/>
      <path class="cls-2" d="M241.14,132a8.39,8.39,0,0,1-8.26-7.77,8.25,8.25,0,0,1,7.66-8.31,8,8,0,0,1,8.38,7.9A8.21,8.21,0,0,1,241.14,132Z"/>
      <path class="cls-2" d="M220.36,162.09a8,8,0,0,1-.36-16,8,8,0,0,1,.36,16Z"/>
      <path class="cls-2" d="M186.28,123.85a8.33,8.33,0,0,1-7.85,8.15,8.18,8.18,0,0,1-8.14-7.78,8,8,0,0,1,8-8.29A8.12,8.12,0,0,1,186.28,123.85Z"/>
      <path class="cls-1" d="M182.39,285.24l-17.07,17.1-25.89-25.82c10.81,0,21.31,0,31.82.06a5.39,5.39,0,0,1,3.19,1.29C177.29,280.33,180,283,182.39,285.24Z"/>
      <path class="cls-1" d="M92.49,276.55c6.61-.19,13.24-.21,19.84.08a9.13,9.13,0,0,1,5.53,2.43c13.29,13.05,26.41,26.28,39.59,39.44,6.16,6.15,9.81,6.15,16-.08,6.84-6.87,13.63-13.8,20.31-20.57l29.48,29.79c-1.15.06-2.43.18-3.72.18q-62.78,0-125.54,0c-14.08,0-23.91-7.25-26.66-19.46C63.51,291.41,74.81,277.05,92.49,276.55Z"/>
      <path class="cls-2" d="M139.43,162.08a7.85,7.85,0,0,1-8.12-7.76,7.91,7.91,0,1,1,8.12,7.76Z"/>
      <path class="cls-1" d="M68.22,396.1c0,34.11,24.09,58.82,58.12,58.9q61.66.13,123.35.13V457H50.44V308.71c2.14,8.74,5.5,16.83,12,23.34.54.54.35,2.23,0,3.19-4.32,11.36-3,21.9,4.06,31.82a9.65,9.65,0,0,1,1.63,5.14C68.31,380.17,68.21,388.13,68.22,396.1Z"/>
      <path class="cls-1" d="M75.19,239c1.92,1.24,2.83,2.44,2.75,4.8-.18,5.39.06,10.8-.14,16.19a4.53,4.53,0,0,1-1.89,3.39C62.08,269.68,53.75,280.17,51,295.09a10.24,10.24,0,0,1-.53,1.46V41.37H466V301.86h-.69c0-15.56-8.85-30.39-24.88-38.09a5.31,5.31,0,0,1-2.57-3.75,133.68,133.68,0,0,1,0-15,4.83,4.83,0,0,1,2.25-3.51c19.23-8.87,24.63-31.12,14.61-46.67a3.54,3.54,0,0,1-.68-2.58c3.9-10.36.24-20.11-2.9-29.6-11.8-35.76-35.43-62.22-66.61-82.33-30.85-19.9-64.89-30.63-101.31-34.28-43.76-4.39-85.94,1.75-126,19.95-33.52,15.23-61.39,37.44-80.56,69.51a122.5,122.5,0,0,0-16.14,42.89c-.81,4.89,1.18,10.24,1.81,15.38.21,1.74.75,3.74.16,5.23C56.47,214.34,61.3,230.05,75.19,239Z"/>
    </g>
  </g>
</svg>
