<svg xmlns="http://www.w3.org/2000/svg" viewBox="0 0 500 500">
  <defs>
    <style>
      .cls-1 {
        fill: #6259fa;
      }

      .cls-2 {
        fill: none;
      }
    </style>
  </defs>
  <g id="Layer_9" data-name="Layer 9">
    <g>
      <path class="cls-1" d="M355.9,395.56a8.11,8.11,0,0,1-8-8.53,8.41,8.41,0,0,1,8.44-8.24,8.39,8.39,0,1,1-.41,16.77Z"/>
      <path class="cls-1" d="M333.15,391.88c4.34-1.44,8.58.29,10.41,4.08a8.27,8.27,0,0,1-3.18,10.76,72.72,72.72,0,0,1-9.12,4.48c-15.83,6.86-32.27,11.23-49.57,12.17h-2.55c-5.73-.06-9.64-3.48-9.71-8.48-.05-4.77,3.64-8.24,9.22-8.49a127.67,127.67,0,0,0,48.65-12.06A57.46,57.46,0,0,1,333.15,391.88Z"/>
      <path class="cls-1" d="M296.47,142.36c2.45-4,6.86-5.18,11.47-3,7.9,3.83,12.05,10.68,13.8,18.84,1.54,7.15,2.16,14.5,3.17,21.69-1.31,10.05-2.36,19.9-4,29.65-.78,4.76-5,7.25-9.42,6.54-4.21-.67-7-4.11-6.9-8.79,0-1.83.36-3.65.52-5.48.7-7.89,1.74-15.76,2-23.66.14-4.9-.73-9.87-1.56-14.74a13.74,13.74,0,0,0-6.18-9.71C295.05,151,294.06,146.26,296.47,142.36Z"/>
      <path class="cls-2" d="M299.36,153.75a13.74,13.74,0,0,1,6.18,9.71c.83,4.87,1.7,9.84,1.56,14.74-.22,7.9-1.26,15.77-2,23.66-.16,1.83-.5,3.65-.52,5.48-.07,4.68,2.69,8.12,6.9,8.79,4.42.71,8.64-1.78,9.42-6.54,1.61-9.75,2.66-19.6,4-29.65-1-7.19-1.63-14.54-3.17-21.69-1.75-8.16-5.9-15-13.8-18.84-4.61-2.23-9-1-11.47,3S295.05,151,299.36,153.75ZM257.3,141.8c14.75-24.21,49.24-28.44,68.39-8.26,8.47,8.91,11.6,20.17,13.1,32,1.84,14.48.68,28.89-2,43.11-2.78,15,.85,28.2,8.53,40.88,6.15,10.15,12,20.49,17.73,30.87a5.51,5.51,0,0,1-.46,4.81c-29.4,40.09-67.55,67.5-116.06,79.84-.54.14-1.08.24-1.91.42,2.83-44-14.47-77.56-51.26-102.55,6.24-6.8,12.09-13.45,18.24-19.8,5.9-6.1,12.33-11.69,18.13-17.88,8.34-8.89,11-20,12.19-31.86C243.83,175.28,247.64,157.65,257.3,141.8Z"/>
      <path class="cls-2" d="M203.43,443.32c34.09,14.2,69.36,20.24,106.23,15.07,37.73-5.29,70.11-21.5,97-48.29,28.72-28.62,46.27-63.66,56.22-102.57a176.69,176.69,0,0,0,5.13-44h.77V476.12H32.85V362.25c.25,1.22.59,2.43.73,3.67a107.72,107.72,0,0,0,10.31,35.23c27.2,56,98.87,76.37,151.39,42.79C198.16,442.09,200.37,442.05,203.43,443.32Z"/>
      <path class="cls-1" d="M184.84,300.15a8.9,8.9,0,0,1,8.51,8.8,8.51,8.51,0,1,1-17-.67A8.3,8.3,0,0,1,184.84,300.15Z"/>
      <path class="cls-2" d="M176.34,308.28a8.51,8.51,0,1,0,8.5-8.13A8.3,8.3,0,0,0,176.34,308.28Zm-1.63-35.64c42.6,19.31,58.55,63.56,51.69,96.2l-15.89,1.27c.34-2.5.6-4.53.9-6.57a70.19,70.19,0,0,0-4.22-35.42c-2.11-5.54-6.45-8-11.18-6.37s-6.81,6.39-4.8,11.9a57.3,57.3,0,0,1,2.52,32.52c-.66,3.06-1.65,4-4.71,3.48-10-1.81-20.09-3.26-30.06-5.23-4.5-.89-8.2-.4-11.88,2.49-7.15,5.62-12.86,12.29-16.33,20.75-2.51,6.12-1.93,9.48,3.47,13.31C148,410.79,162.08,420.3,176,429.91c1.28.88,2.66,1.59,4.06,2.42-21.31,14.09-65,17.82-97.89-9.45C47.32,394,39.79,344.67,64.38,305.59,87,269.62,136.12,255.15,174.71,272.64Z"/>
      <path class="cls-2" d="M432.71,209.74c2.92,8.14,7.84,15,13.7,21.24a11.92,11.92,0,0,1,2.92,6.15c5.26,40.42-2.35,78.5-21.06,114.53C416,375.21,400.17,395.75,379,411.93a149.72,149.72,0,0,1-75.43,30.18c-38.52,4.35-74.44-4.56-108.71-21.55a253.94,253.94,0,0,1-46.54-30.1c.69-1,1.15-1.7,1.64-2.38,4.73-6.72,5.37-6.89,13.23-5.29,51.33,10.47,99.62,2.21,144.59-24.4,42.51-25.16,73.22-60.88,92.7-106.26.89-2.07,1.63-4.21,2.41-6.34,1.58-4.35,3.25-8.27,7.5-11.25,5.9-4.15,7.42-11.11,8.28-18,.48-3.79.71-7.61,1.05-11.41.58-6.38,1.73-7.53,8.58-8.56C429.73,201,431.15,205.39,432.71,209.74ZM355.9,395.56a8.39,8.39,0,1,0-8-8.53A8.11,8.11,0,0,0,355.9,395.56Zm-86.47,19.33c.07,5,4,8.42,9.71,8.48h2.55c17.3-.94,33.74-5.31,49.57-12.17a72.72,72.72,0,0,0,9.12-4.48A8.27,8.27,0,0,0,343.56,396c-1.83-3.79-6.07-5.52-10.41-4.08a57.46,57.46,0,0,0-5.85,2.46,127.67,127.67,0,0,1-48.65,12.06C273.07,406.65,269.38,410.12,269.43,414.89Z"/>
      <path class="cls-1" d="M103.5,183.92c-2.76,23.3,19.42,39.29,36,35.62C141.63,199,123.15,180.56,103.5,183.92ZM329.27,57.83c5.64-1.85,10.33,0,12,4.66s-.58,9-6.24,11.21c-14.73,5.65-22,16.9-24.48,31.88,4.67,2,9.13,3.72,13.4,5.82,14.5,7.15,22.95,19.33,27.77,34.29,6.33,19.61,6.32,39.75,2.63,59.64-2.69,14.47-.56,27.06,7.75,39,4.58,6.61,8.54,13.66,13.16,21.13,1.79-3.47,3.64-6.56,5-9.85,3.43-8.21,6.76-16.47,9.87-24.8a13.58,13.58,0,0,1,6.65-7.78,8.77,8.77,0,0,0,4.12-5.22,120.7,120.7,0,0,0,2.3-18.92c.2-6.22,2.88-10.45,7.92-13.58a41.31,41.31,0,0,1,22-6.68c6.86,0,9.78,2.34,11,9.15,1.9,10.42,4.82,20.38,12,28.56a6.62,6.62,0,0,0,1.1,1.29c8.72,5.8,9.09,15,9.81,24.05.59,7.29.93,14.58.93,21.84a176.69,176.69,0,0,1-5.13,44c-9.95,38.91-27.5,74-56.22,102.57-26.89,26.79-59.27,43-97,48.29-36.87,5.17-72.14-.87-106.23-15.07-3.06-1.27-5.27-1.23-8.15.62-52.52,33.58-124.19,13.24-151.39-42.79a107.72,107.72,0,0,1-10.31-35.23c-.14-1.24-.48-2.45-.73-3.67v-17c2.2-9.18,3.37-18.76,6.79-27.47,15.39-39.24,44.18-62.24,86-68.57,3.55-.54,6.23-1.07,6.1-5.56-.06-1.9.84-3.84,1.39-6.1-1.25-.33-2.42-.74-3.62-.93-29.86-4.52-48.5-31.48-42.21-61,1-4.55,3.66-7.05,8.21-8,27.21-5.51,51.59,9.13,59.55,35.86.23.79.5,1.56.86,2.65,3.63-1.56,7-3.18,10.53-4.46,5.83-2.13,10.63-.25,12.31,4.58s-.73,9.11-6.31,11.21c-14.12,5.3-21.32,16-24.22,30.27l30.89,7.47c2.17-3,4.39-6.85,7.33-10,6.43-6.95,12.71-14.19,20-20.17,12.54-10.31,18.29-23,19.57-39.2,1.49-18.69,6.79-36.68,16.92-52.85,10.93-17.45,26.37-27.59,47.2-28.92,1-.06,2-.16,2.17-.18,3.24-8.08,5.61-16.11,9.53-23.31A47.21,47.21,0,0,1,329.27,57.83ZM193.4,262.94c36.79,25,54.09,58.58,51.26,102.55.83-.18,1.37-.28,1.91-.42,48.51-12.34,86.66-39.75,116.06-79.84a5.51,5.51,0,0,0,.46-4.81c-5.74-10.38-11.58-20.72-17.73-30.87-7.68-12.68-11.31-25.92-8.53-40.88,2.64-14.22,3.8-28.63,2-43.11-1.5-11.85-4.63-23.11-13.1-32-19.15-20.18-53.64-15.95-68.39,8.26-9.66,15.85-13.47,33.48-15.34,51.6-1.22,11.81-3.85,23-12.19,31.86-5.8,6.19-12.23,11.78-18.13,17.88C205.49,249.49,199.64,256.14,193.4,262.94Zm33,105.9c6.86-32.64-9.09-76.89-51.69-96.2-38.59-17.49-87.69-3-110.33,32.95C39.79,344.67,47.32,394,82.21,422.88c32.9,27.27,76.58,23.54,97.89,9.45-1.4-.83-2.78-1.54-4.06-2.42-14-9.61-28-19.12-41.82-28.94-5.4-3.83-6-7.19-3.47-13.31,3.47-8.46,9.18-15.13,16.33-20.75,3.68-2.89,7.38-3.38,11.88-2.49,10,2,20,3.42,30.06,5.23,3.06.55,4-.42,4.71-3.48a57.3,57.3,0,0,0-2.52-32.52c-2-5.51.17-10.3,4.8-11.9s9.07.83,11.18,6.37a70.19,70.19,0,0,1,4.22,35.42c-.3,2-.56,4.07-.9,6.57Zm-31.59,51.72c34.27,17,70.19,25.9,108.71,21.55A149.72,149.72,0,0,0,379,411.93c21.22-16.18,37.09-36.72,49.32-60.27,18.71-36,26.32-74.11,21.06-114.53a11.92,11.92,0,0,0-2.92-6.15c-5.86-6.28-10.78-13.1-13.7-21.24-1.56-4.35-3-8.76-4.46-13.14-6.85,1-8,2.18-8.58,8.56-.34,3.8-.57,7.62-1.05,11.41-.86,6.86-2.38,13.82-8.28,18-4.25,3-5.92,6.9-7.5,11.25-.78,2.13-1.52,4.27-2.41,6.34-19.48,45.38-50.19,81.1-92.7,106.26-45,26.61-93.26,34.87-144.59,24.4-7.86-1.6-8.5-1.43-13.23,5.29-.49.68-.95,1.38-1.64,2.38A253.94,253.94,0,0,0,194.81,420.56Z"/>
      <path class="cls-2" d="M103.5,183.92c19.65-3.36,38.13,15.09,36,35.62C122.92,223.21,100.74,207.22,103.5,183.92Z"/>
      <path class="cls-2" d="M375.23,265.49c-4.62-7.47-8.58-14.52-13.16-21.13-8.31-12-10.44-24.56-7.75-39,3.69-19.89,3.7-40-2.63-59.64-4.82-15-13.27-27.14-27.77-34.29-4.27-2.1-8.73-3.81-13.4-5.82C313,90.6,320.27,79.35,335,73.7c5.66-2.17,7.91-6.42,6.24-11.21s-6.33-6.51-12-4.66a47.21,47.21,0,0,0-27.45,22.73c-3.92,7.2-6.29,15.23-9.53,23.31-.21,0-1.19.12-2.17.18-20.83,1.33-36.27,11.47-47.2,28.92-10.13,16.17-15.43,34.16-16.92,52.85-1.28,16.18-7,28.89-19.57,39.2-7.28,6-13.56,13.22-20,20.17-2.94,3.18-5.16,7-7.33,10l-30.89-7.47c2.9-14.26,10.1-25,24.22-30.27,5.58-2.1,7.95-6.51,6.31-11.21s-6.48-6.71-12.31-4.58c-3.51,1.28-6.9,2.9-10.53,4.46-.36-1.09-.63-1.86-.86-2.65-8-26.73-32.34-41.37-59.55-35.86-4.55.92-7.25,3.42-8.21,8-6.29,29.53,12.35,56.49,42.21,61,1.2.19,2.37.6,3.62.93-.55,2.26-1.45,4.2-1.39,6.1.13,4.49-2.55,5-6.1,5.56-41.81,6.33-70.6,29.33-86,68.57-3.42,8.71-4.59,18.29-6.79,27.47V40.18H468.78V263.55H468c0-7.26-.34-14.55-.93-21.84-.72-9.06-1.09-18.25-9.81-24.05a6.62,6.62,0,0,1-1.1-1.29c-7.19-8.18-10.11-18.14-12-28.56-1.24-6.81-4.16-9.16-11-9.15a41.31,41.31,0,0,0-22,6.68c-5,3.13-7.72,7.36-7.92,13.58a120.7,120.7,0,0,1-2.3,18.92,8.77,8.77,0,0,1-4.12,5.22,13.58,13.58,0,0,0-6.65,7.78c-3.11,8.33-6.44,16.59-9.87,24.8C378.87,258.93,377,262,375.23,265.49Z"/>
    </g>
  </g>
</svg>
