<svg xmlns="http://www.w3.org/2000/svg" viewBox="0 0 500 500">
  <defs>
    <style>
      .cls-1 {
        fill: #fff;
      }

      .cls-2 {
        fill: #6259fa;
      }
    </style>
  </defs>
  <g id="Layer_9" data-name="Layer 9">
    <g>
      <path d="M414.43,408.35a6.56,6.56,0,0,1-6.32-6.37,6.67,6.67,0,0,1,6.88-6.7,6.21,6.21,0,0,1,6.26,6.27A6.76,6.76,0,0,1,414.43,408.35Z"/>
      <path d="M405.2,423.35a6.57,6.57,0,0,1-6.42-6.71,7,7,0,0,1,6.91-6.35,6.44,6.44,0,0,1,6.37,6.71A6.8,6.8,0,0,1,405.2,423.35Z"/>
      <path d="M396.22,408a6.36,6.36,0,0,1-6.34-6.68,6.93,6.93,0,0,1,6.86-6.39A6.46,6.46,0,0,1,403,401.7,6.57,6.57,0,0,1,396.22,408Z"/>
      <path class="cls-1" d="M341.87,37.92c-7.89,6.06-15.25,5.84-22.5-1.15-5.78-5.57-11.81-10.56-19.75-12.68h178.8V469.24H359.58v-.63A79.66,79.66,0,0,0,383.06,465c24.82-7.63,41-25.51,51.58-48.35,14.6-31.42,5.12-63-23.57-81.38-12.55-8-25.62-9.06-39.19-2.78-2,.94-4.05,2-6.57,3.18.65-12.44,1.41-24.26,1.86-36.09,2.65-69.59,1.49-139.09-5-208.46-.55-5.88,0-11.1,2.88-16.52s4.61-11.51,6.25-17.48c2.43-8.78-.49-16.4-7.39-20.9S349.29,32.23,341.87,37.92Z"/>
      <path class="cls-2" d="M224,125.1C260,126.16,292.6,140.41,316.25,172c32.59,43.48,25.25,101.94-16.72,138.36-48.61,42.19-125.4,37.34-168.24-10.62C92,255.76,97.7,190,144.09,152.2,166.46,134,192.31,125.44,224,125.1Zm-70.45,36.14c-43.61,34.42-47.41,95.19-8.47,134.17,40.65,40.69,110.42,40.79,151.22.22,36.32-36.11,36.13-91.86-.59-127.58-20.82-20.25-46.19-29.46-73.65-29.9C195.8,138.44,173.23,145.72,153.57,161.24Z"/>
      <path class="cls-2" d="M204.32,251.26c11.77,17.12,28.75,23.87,48.87,21.36s38.44-21,43.07-41.82c2.53-11.41.49-21.78-7.18-30.83-12.2-14.37-23.53-15.64-38.27-4-5.9,4.64-11.5,9.67-17.28,14.46-8.94,7.4-18.48,13.76-30.73,13-6.24-.4-12.39-2-18.1-3C191,230.34,197.31,241,204.32,251.26Zm-53.85-4.82c8.12,10.63,30.34,17.46,44.69,13.1C186,246.69,177.26,234,168,221.81c-2.4-3.15-6.37-5.52-10.1-7.12-6.2-2.66-11.33.26-12.8,6.8A29,29,0,0,0,150.47,246.44Zm4.47-46.94c9.62-2.07,18.52-.56,27.25,4a82.38,82.38,0,0,0,16.4,6.39c7.27,2,14.14-.13,20-4.6,6.33-4.79,12.18-10.23,18.53-15,5.87-4.39,11.81-8.9,18.31-12.21,9.48-4.83,19.25-4.06,28.65,1.15,16.35,9.05,26.25,25.24,26.14,47.72-1.73,21-14.27,40.48-36.52,52.49-22.09,11.91-44.19,8.38-64.79-5.14a10.51,10.51,0,0,0-8.39-1.7c-16.11,2.79-31.68,1.19-46.34-6.48A42.72,42.72,0,0,1,132.13,219C134.76,206.67,143.77,201.89,154.94,199.5Z"/>
      <path class="cls-1" d="M204.32,251.26c-7-10.22-13.32-20.92-19.62-30.89,5.71,1,11.86,2.59,18.1,3,12.25.8,21.79-5.56,30.73-13,5.78-4.79,11.38-9.82,17.28-14.46,14.74-11.61,26.07-10.34,38.27,4,7.67,9.05,9.71,19.42,7.18,30.83-4.63,20.8-22.93,39.3-43.07,41.82S216.09,268.38,204.32,251.26Z"/>
      <path class="cls-1" d="M269.53,36.67c-7.78,7.51-16.19,7.45-24-.09C239.83,31,233.8,26.07,225.84,24.09H289.2C281.31,26.2,275.28,31.11,269.53,36.67Z"/>
      <path class="cls-1" d="M227.5,386.09c2.35-9.3,9.94-13.8,18.84-10.24,4.69,1.89,9.66,4.73,12.79,8.55,8.75,10.7,16.79,22,24.74,33.34,4.53,6.44,8.32,13.4,13.13,21.24-7.77,0-14.65.37-21.47-.08-11.42-.76-22.18-4-31.71-10.53C230.19,419,223.55,401.68,227.5,386.09Z"/>
      <path class="cls-1" d="M222.08,138.15c27.46.44,52.83,9.65,73.65,29.9,36.72,35.72,36.91,91.47.59,127.58-40.8,40.57-110.57,40.47-151.22-.22-38.94-39-35.14-99.75,8.47-134.17C173.23,145.72,195.8,138.44,222.08,138.15Zm-90,80.84a42.72,42.72,0,0,0,22.08,47.12c14.66,7.67,30.23,9.27,46.34,6.48a10.51,10.51,0,0,1,8.39,1.7c20.6,13.52,42.7,17,64.79,5.14,22.25-12,34.79-31.46,36.52-52.49.11-22.48-9.79-38.67-26.14-47.72-9.4-5.21-19.17-6-28.65-1.15-6.5,3.31-12.44,7.82-18.31,12.21-6.35,4.76-12.2,10.2-18.53,15-5.89,4.47-12.76,6.57-20,4.6a82.38,82.38,0,0,1-16.4-6.39c-8.73-4.54-17.63-6-27.25-4C143.77,201.89,134.76,206.67,132.13,219Z"/>
      <path class="cls-1" d="M196.16,36.52c-7.89,7.71-16.42,7.65-24.3-.06-5.73-5.62-11.79-10.51-19.81-12.37h63.37C207.73,26.28,201.78,31,196.16,36.52Z"/>
      <path class="cls-1" d="M145.06,221.49c1.47-6.54,6.6-9.46,12.8-6.8,3.73,1.6,7.7,4,10.1,7.12,9.3,12.22,18,24.88,27.2,37.73-14.35,4.36-36.57-2.47-44.69-13.1A29,29,0,0,1,145.06,221.49Z"/>
      <path class="cls-1" d="M405.2,423.35a6.8,6.8,0,0,0,6.86-6.35,6.44,6.44,0,0,0-6.37-6.71,7,7,0,0,0-6.91,6.35A6.57,6.57,0,0,0,405.2,423.35ZM408.11,402a6.56,6.56,0,0,0,6.32,6.37,6.76,6.76,0,0,0,6.82-6.8,6.21,6.21,0,0,0-6.26-6.27A6.67,6.67,0,0,0,408.11,402Zm-11.89,6a6.57,6.57,0,0,0,6.8-6.29,6.46,6.46,0,0,0-6.28-6.78,6.93,6.93,0,0,0-6.86,6.39A6.36,6.36,0,0,0,396.22,408ZM131.29,299.71c42.84,48,119.63,52.81,168.24,10.62,42-36.42,49.31-94.88,16.72-138.36C292.6,140.41,260,126.16,224,125.1c-31.71.34-57.56,8.86-79.93,27.1C97.7,190,92,255.76,131.29,299.71Zm-32,127.85c8.73-6.61,15.6-6.28,23.57,1.14,1.59,1.48,3.14,3,4.75,4.45,11.61,10.54,27.66,10.55,39.32,0,2.15-1.94,4.17-4,6.35-5.92,6.69-5.81,15-5.78,21.61,0,2,1.72,3.83,3.53,5.72,5.32,9.15,8.6,19.64,10.27,31.35,6.27a5.62,5.62,0,0,1,4.26.16c21.05,13.63,44,15.66,67.94,11.13,2.91-.56,4.79.18,7,1.78,15.15,10.73,31.32,16.65,48.42,16.65v.63H33.27V24.09H141.63c-7.14,2.29-13,6.46-18.33,11.72-8.37,8.29-15,8.52-24.48,1.38-6.62-5-14.33-5.36-21-1S67.82,47.86,70,55.7a148.83,148.83,0,0,0,7.79,21.51A19.86,19.86,0,0,1,79.66,88c-1.13,11.94-2.08,23.91-3,35.87-.35,4.64,2.17,7.69,6.11,7.89s6.46-2.41,6.86-7.22c.29-3.46.52-6.92.8-10.38.8-9.62,1.62-19.24,2.43-29,5.57-.68,10.7-1.58,15.86-1.9,32-2,64.05-4.63,96.12-5.57,46.75-1.37,93.38,1.45,139.85,6.85,3.28.39,4.27,1.44,4.45,4.68,1.76,30.89,4.25,61.75,5.44,92.65,2,50.9.73,101.79-2.17,152.65-.47,8.22-2.21,14.82-9.61,19.15-.95.55-2.23,1.6-2.27,2.48-.13,2.53-.42,5.48.69,7.54,1.38,2.58,4.44,3.1,7.27,1.67a23.37,23.37,0,0,0,3.49-2.52c7.84-5.89,15.42-12.18,23.59-17.57,6.69-4.41,14.37-5.11,22.07-2.24,20.54,7.64,33.72,30.75,29.95,52.26-3,17.24-12.06,31-24.33,43-30,29.43-79.05,17.94-98.11-11-10.93-16.6-20.24-34.28-33.44-49.45,2.72,1,5.18,2.42,7.76,3.56,15.65,6.91,31.38,8.71,47.18.48,4.58-2.39,6.06-5.78,4.25-9.39s-5.47-4.64-10-2.23c-5.94,3.17-12.18,4.12-18.84,3.85-8.84-.35-16.64-3.7-24-8.15-15.49-9.43-31.34-8.55-47.44-2.18a23.89,23.89,0,0,0-13.8,13.65c-1.23,3-2.14,6.19-3.27,9.52a1071.84,1071.84,0,0,1-120.55-7.78c-.29-2.21-.63-3.91-.72-5.63-2.06-38.83-5-77.65-5.85-116.51-.74-34.67.88-69.39,1.47-104.09.09-5.31-2-8.09-6.11-8.24s-6.58,2.48-6.88,7.69c-.3,5-.44,10.11-.65,15.17-1.77,43.52-2,87.05.2,130.55,1.38,27.14,3.6,54.23,5.28,81.36a18.14,18.14,0,0,1-1.45,6.94c-2.74,7.74-5.95,15.32-8.35,23.15a17.44,17.44,0,0,0,.26,9.36C73.87,431.5,88.42,435.75,99.25,427.56Z"/>
      <path class="cls-1" d="M92.57,416.23c-2.33,1.83-4.54,3.88-7.69,1.78s-2.65-5.17-1.62-8.15c1.7-4.9,3.56-9.74,5.25-14.64.91-2.64,2.51-3.27,5.27-3,18.54,1.84,37.08,3.9,55.67,5.1,20,1.29,40.13,1.73,60.2,2.53,1.28,0,2.56,0,2.66,0,3.6,9.67,6.94,18.63,10.36,27.84-4.54.84-9-.62-12.84-4.22-2.21-2.08-4.39-4.2-6.67-6.19-11.42-9.94-26.9-9.93-38.33,0-2.4,2.09-4.58,4.43-7,6.49-6.59,5.66-14.72,5.63-21.28-.06-2.51-2.17-4.79-4.62-7.32-6.76C118.35,407.76,103.81,407.47,92.57,416.23Z"/>
      <path class="cls-2" d="M243.82,428.37c9.53,6.57,20.29,9.77,31.71,10.53,6.82.45,13.7.08,21.47.08-4.81-7.84-8.6-14.8-13.13-21.24-7.95-11.33-16-22.64-24.74-33.34-3.13-3.82-8.1-6.66-12.79-8.55-8.9-3.56-16.49.94-18.84,10.24C223.55,401.68,230.19,419,243.82,428.37ZM82.91,53.38c.85,4.5,2.89,8.75,4.08,13.21,1.31,4.91,4.21,5.8,9,5.2a990,990,0,0,1,106.37-7.24,1044.09,1044.09,0,0,1,108.31,3.61c12.95,1.12,25.89,2.43,40.23,3.79.35-.36,1.86-1.23,2.37-2.5,2-5,3.68-10,5.39-15.05.94-2.79,1-5.5-1.86-7.32s-5.08-.33-7.38,1.48c-11.69,9.24-26.49,8.81-37.64-1-2.28-2-4.38-4.21-6.67-6.2-6.67-5.79-15-5.71-21.58.19-2.38,2.11-4.59,4.42-7,6.48-11.49,9.8-27,9.6-38.3-.46-2.27-2-4.41-4.19-6.69-6.18-6.55-5.71-14.67-5.78-21.25-.15-2.41,2.07-4.59,4.41-7,6.5-11.67,10.18-27.51,10-39-.44-2.14-2-4.17-4-6.36-5.9-6.79-5.84-14.8-5.78-21.58.12-1.52,1.33-3,2.69-4.42,4.15C119.45,58.79,101.39,57.15,91.25,48c-1.32-1.19-4.85-1.71-6.07-.8A7.46,7.46,0,0,0,82.91,53.38Zm9.66,362.85c11.24-8.76,25.78-8.47,36.67.76,2.53,2.14,4.81,4.59,7.32,6.76,6.56,5.69,14.69,5.72,21.28.06,2.41-2.06,4.59-4.4,7-6.49,11.43-10,26.91-10,38.33,0,2.28,2,4.46,4.11,6.67,6.19,3.84,3.6,8.3,5.06,12.84,4.22-3.42-9.21-6.76-18.17-10.36-27.84-.1,0-1.38,0-2.66,0-20.07-.8-40.16-1.24-60.2-2.53-18.59-1.2-37.13-3.26-55.67-5.1-2.76-.27-4.36.36-5.27,3-1.69,4.9-3.55,9.74-5.25,14.64-1,3-1.59,6,1.62,8.15S90.24,418.06,92.57,416.23Zm6.25-379c9.49,7.14,16.11,6.91,24.48-1.38,5.32-5.26,11.19-9.43,18.33-11.72h10.42c8,1.86,14.08,6.75,19.81,12.37,7.88,7.71,16.41,7.77,24.3.06,5.62-5.5,11.57-10.24,19.26-12.43h10.42c8,2,14,6.92,19.73,12.49,7.77,7.54,16.18,7.6,24,.09,5.75-5.56,11.78-10.47,19.67-12.58h10.42c7.94,2.12,14,7.11,19.75,12.68,7.25,7,14.61,7.21,22.5,1.15,7.42-5.69,15.08-6.29,22.07-1.73s9.82,12.12,7.39,20.9c-1.64,6-3.34,12.09-6.25,17.48s-3.43,10.64-2.88,16.52c6.46,69.37,7.62,138.87,5,208.46-.45,11.83-1.21,23.65-1.86,36.09,2.52-1.23,4.53-2.24,6.57-3.18,13.57-6.28,26.64-5.25,39.19,2.78,28.69,18.35,38.17,50,23.57,81.38C424,439.46,407.88,457.34,383.06,465a79.66,79.66,0,0,1-23.48,3.64c-17.1,0-33.27-5.92-48.42-16.65-2.25-1.6-4.13-2.34-7-1.78-24,4.53-46.89,2.5-67.94-11.13a5.62,5.62,0,0,0-4.26-.16c-11.71,4-22.2,2.33-31.35-6.27-1.89-1.79-3.77-3.6-5.72-5.32-6.64-5.82-14.92-5.85-21.61,0-2.18,1.89-4.2,4-6.35,5.92-11.66,10.52-27.71,10.51-39.32,0-1.61-1.45-3.16-3-4.75-4.45-8-7.42-14.84-7.75-23.57-1.14-10.83,8.19-25.38,3.94-29-8.7A17.44,17.44,0,0,1,70,409.5c2.4-7.83,5.61-15.41,8.35-23.15a18.14,18.14,0,0,0,1.45-6.94c-1.68-27.13-3.9-54.22-5.28-81.36-2.22-43.5-2-87-.2-130.55.21-5.06.35-10.12.65-15.17.3-5.21,2.74-7.84,6.88-7.69s6.2,2.93,6.11,8.24c-.59,34.7-2.21,69.42-1.47,104.09.83,38.86,3.79,77.68,5.85,116.51.09,1.72.43,3.42.72,5.63a1071.84,1071.84,0,0,0,120.55,7.78c1.13-3.33,2-6.49,3.27-9.52a23.89,23.89,0,0,1,13.8-13.65c16.1-6.37,32-7.25,47.44,2.18,7.31,4.45,15.11,7.8,24,8.15,6.66.27,12.9-.68,18.84-3.85,4.52-2.41,8.15-1.44,10,2.23s.33,7-4.25,9.39c-15.8,8.23-31.53,6.43-47.18-.48-2.58-1.14-5-2.53-7.76-3.56,13.2,15.17,22.51,32.85,33.44,49.45,19.06,29,68.1,40.47,98.11,11,12.27-12,21.32-25.76,24.33-43,3.77-21.51-9.41-44.62-29.95-52.26-7.7-2.87-15.38-2.17-22.07,2.24-8.17,5.39-15.75,11.68-23.59,17.57a23.37,23.37,0,0,1-3.49,2.52c-2.83,1.43-5.89.91-7.27-1.67-1.11-2.06-.82-5-.69-7.54,0-.88,1.32-1.93,2.27-2.48,7.4-4.33,9.14-10.93,9.61-19.15,2.9-50.86,4.13-101.75,2.17-152.65-1.19-30.9-3.68-61.76-5.44-92.65C349,86,348,84.91,344.72,84.52c-46.47-5.4-93.1-8.22-139.85-6.85-32.07.94-64.08,3.58-96.12,5.57-5.16.32-10.29,1.22-15.86,1.9-.81,9.74-1.63,19.36-2.43,29-.28,3.46-.51,6.92-.8,10.38-.4,4.81-2.9,7.42-6.86,7.22s-6.46-3.25-6.11-7.89c.89-12,1.84-23.93,3-35.87a19.86,19.86,0,0,0-1.85-10.75A148.83,148.83,0,0,1,70,55.7c-2.2-7.84,1.13-15.27,7.78-19.55S92.2,32.22,98.82,37.19Z"/>
      <path class="cls-1" d="M91.25,48c10.14,9.14,28.2,10.78,40.69-2.37,1.39-1.46,2.9-2.82,4.42-4.15,6.78-5.9,14.79-6,21.58-.12,2.19,1.89,4.22,4,6.36,5.9,11.45,10.42,27.29,10.62,39,.44,2.4-2.09,4.58-4.43,7-6.5,6.58-5.63,14.7-5.56,21.25.15,2.28,2,4.42,4.16,6.69,6.18C249.47,57.6,265,57.8,276.49,48c2.41-2.06,4.62-4.37,7-6.48,6.61-5.9,14.91-6,21.58-.19,2.29,2,4.39,4.19,6.67,6.2,11.15,9.84,25.95,10.27,37.64,1,2.3-1.81,4.5-3.33,7.38-1.48s2.8,4.53,1.86,7.32c-1.71,5.05-3.42,10.1-5.39,15.05-.51,1.27-2,2.14-2.37,2.5-14.34-1.36-27.28-2.67-40.23-3.79a1044.09,1044.09,0,0,0-108.31-3.61A990,990,0,0,0,96,71.79c-4.75.6-7.65-.29-9-5.2-1.19-4.46-3.23-8.71-4.08-13.21a7.46,7.46,0,0,1,2.27-6.17C86.4,46.3,89.93,46.82,91.25,48Z"/>
    </g>
  </g>
</svg>
