<svg xmlns="http://www.w3.org/2000/svg" viewBox="0 0 500 500">
  <defs>
    <style>
      .cls-1 {
        fill: #6259fa;
      }

      .cls-2 {
        fill: #fff;
      }
    </style>
  </defs>
  <g id="Layer_9" data-name="Layer 9">
    <g>
      <path class="cls-1" d="M135.51,40c1.3-2.23,1.77-4,.68-6.64-3-7.36.12-13.36,9.05-18.4H359c10,5.63,11.46,9.39,8.53,20.13-.36,1.31.32,3.18,1.06,4.48,6.76,11.94,13.86,23.68,20.34,35.76A27.3,27.3,0,0,1,392.2,87.7q.27,159.07,0,318.15a27.31,27.31,0,0,1-3.33,12.34c-6.39,11.95-13.33,23.62-20.17,35.33-1.31,2.23-1.73,4-.68,6.64a13.37,13.37,0,0,1-11.59,18.35c-.51.05-1,.06-1.55.06h-1.17q-101.61,0-203.23,0c-9.77,0-17.3-6.54-14.84-14.83,2.21-7.45-1.24-12-4.22-17.25-5.48-9.71-11.32-19.23-16.57-29.06A23.63,23.63,0,0,1,112,406.74q-.22-160,0-320a23.31,23.31,0,0,1,2.86-10.67C121.47,63.94,128.51,52,135.51,40ZM168.8,451.34q83.3.11,166.6.12a4.82,4.82,0,0,0,4.89-2.95c2.79-5.17,5.83-10.21,8.76-15.31,1.9-3.31,3.79-6.64,6-10.48H149.15c5.53,9.6,10.56,18.5,15.83,27.24C165.53,450.88,167.49,451.34,168.8,451.34ZM355.92,141.73c9.25-2.75,9.24-2.78,9.24-12.4V98.48H139.3V245.81a19.35,19.35,0,0,0,2.87-.57c13.56-5,27.8-8.61,40.52-15.21,29.26-15.2,57.87-31.69,86.59-47.93C297.11,166.36,325.05,150.92,355.92,141.73ZM365,191.57c.18-7.79.11-15.6.11-23.84a28,28,0,0,0-3.9.88c-12,4.76-24.58,8.55-35.93,14.57-27.4,14.52-54.32,30-81.28,45.29-25.95,14.75-52,29.33-80.43,38.79-8,2.65-16.17,4.67-24.34,7V320c10.33-4.51,20.25-8.4,29.78-13.08,28.89-14.2,55.25-32.58,81.94-50.4,35.58-23.76,70.84-48.1,111.8-62.23A3.9,3.9,0,0,0,365,191.57Zm-.13,203.48V222.77a17.83,17.83,0,0,0-2.83.84c-17,8.72-34.6,16.47-50.84,26.43-26.84,16.47-52.72,34.5-79.15,51.65-28.49,18.48-57.68,35.66-90.51,45.61-1.13.34-2.38,2.51-2.42,3.86-.22,8.29-.11,16.59-.11,24.88v19ZM149.19,70.73H355c-5.48-9.5-10.58-18.49-15.89-27.35-.48-.82-2.29-1.19-3.48-1.19q-83.52-.09-167.06,0c-1.19,0-3,.35-3.49,1.16C159.78,52.22,154.68,61.21,149.19,70.73Z"/>
      <path class="cls-2" d="M356.43,478.51A13.37,13.37,0,0,0,368,460.16c-1-2.64-.63-4.41.68-6.64,6.84-11.71,13.78-23.38,20.17-35.33a27.31,27.31,0,0,0,3.33-12.34q.27-159.08,0-318.15a27.3,27.3,0,0,0-3.31-12.35c-6.48-12.08-13.58-23.82-20.34-35.76-.74-1.3-1.42-3.17-1.06-4.48,2.93-10.74,1.42-14.5-8.53-20.13h125V479.39h-129v-.82C355.4,478.57,355.92,478.56,356.43,478.51Z"/>
      <path class="cls-2" d="M361.25,168.61a28,28,0,0,1,3.9-.88c0,8.24.07,16.05-.11,23.84a3.9,3.9,0,0,1-2.25,2.73c-41,14.13-76.22,38.47-111.8,62.23-26.69,17.82-53.05,36.2-81.94,50.4-9.53,4.68-19.45,8.57-29.78,13.08V274.26c8.17-2.33,16.36-4.35,24.34-7,28.47-9.46,54.48-24,80.43-38.79,27-15.32,53.88-30.77,81.28-45.29C336.67,177.16,349.22,173.37,361.25,168.61Z"/>
      <path class="cls-2" d="M362.08,223.61a17.83,17.83,0,0,1,2.83-.84V395.05H139.05V376c0-8.29-.11-16.59.11-24.88,0-1.35,1.29-3.52,2.42-3.86,32.83-9.95,62-27.13,90.51-45.61,26.43-17.15,52.31-35.18,79.15-51.65C327.48,240.08,345.08,232.33,362.08,223.61Z"/>
      <path class="cls-2" d="M149.15,422.72H355c-2.19,3.84-4.08,7.17-6,10.48-2.93,5.1-6,10.14-8.76,15.31a4.82,4.82,0,0,1-4.89,2.95q-83.29-.12-166.6-.12c-1.31,0-3.27-.46-3.82-1.38C159.71,441.22,154.68,432.32,149.15,422.72Z"/>
      <path class="cls-2" d="M335.65,42.19c1.19,0,3,.37,3.48,1.19,5.31,8.86,10.41,17.85,15.89,27.35H149.19c5.49-9.52,10.59-18.51,15.91-27.38.48-.81,2.3-1.16,3.49-1.16Q252.13,42.1,335.65,42.19Z"/>
      <path class="cls-2" d="M150.48,478.55q101.61,0,203.23,0h1.17v.82H19.51V15H145.24c-8.93,5-12.07,11-9.05,18.4,1.09,2.64.62,4.41-.68,6.64-7,12-14,23.92-20.66,36.09A23.31,23.31,0,0,0,112,86.78q-.22,160,0,320a23.63,23.63,0,0,0,2.86,10.67c5.25,9.83,11.09,19.35,16.57,29.06,3,5.29,6.43,9.8,4.22,17.25C133.18,472,140.71,478.55,150.48,478.55Z"/>
      <path class="cls-2" d="M142.17,245.24a19.35,19.35,0,0,1-2.87.57V98.48H365.16v30.85c0,9.62,0,9.65-9.24,12.4-30.87,9.19-58.81,24.63-86.64,40.37C240.56,198.34,212,214.83,182.69,230,170,236.63,155.73,240.28,142.17,245.24Z"/>
    </g>
  </g>
</svg>
