<svg xmlns="http://www.w3.org/2000/svg" viewBox="0 0 500 500">
  <defs>
    <style>
      .cls-1 {
        fill: #fff;
      }

      .cls-2 {
        fill: #6259fa;
      }
    </style>
  </defs>
  <g id="Layer_9" data-name="Layer 9">
    <g>
      <path class="cls-1" d="M406.44,305.75c.64,13.47-4.14,24.28-15.26,31.05s-23.74,9.54-36.73,6.39c-11.18-2.71-18.68-10.12-23.12-21.47Z"/>
      <path class="cls-1" d="M397,260.85c2.63,12,5.22,23.9,7.92,36.3l-75.68,16.06c-2.58-12.13-5.09-24-7.7-36.3Z"/>
      <path class="cls-1" d="M395.08,252.33l-75.22,16C319,255.55,323,245.05,333,237.86a46.47,46.47,0,0,1,38.82-7.71C383.26,232.84,390.75,240.68,395.08,252.33Z"/>
      <path class="cls-1" d="M399.4,115a23.59,23.59,0,1,1-23.68-23.44A23.81,23.81,0,0,1,399.4,115Z"/>
      <path class="cls-2" d="M352.23,115.15a23.59,23.59,0,1,0,23.49-23.64A23.85,23.85,0,0,0,352.23,115.15Zm23.58,32.16a32.29,32.29,0,1,1,32.32-32.15A32.44,32.44,0,0,1,375.81,147.31Z"/>
      <path class="cls-2" d="M353.12,386.16c10.31-8.49,12.09-8.82,24.94-4.56,4.17,1.38,7.54.08,10.24-3.13,3.26-3.86,7.29-6.63,12.32-6.74,3.81-.08,7.64,1,11.4,1.61-3.72-15.5-21.48-25.15-37.73-20.32C359.76,357.33,348.9,374.33,353.12,386.16Zm1.33-43c13,3.15,25.58.39,36.73-6.39s15.9-17.58,15.26-31.05l-75.11,16C335.77,333.07,343.27,340.48,354.45,343.19Zm-16-148.44c-7.07,7.58-14.83,10-24.83,5.16,2.68,15.14,20.14,25.23,36.15,21.52C365,217.9,376.49,201,372.45,187.54c-7.15,8.56-15.55,9.14-25.31,5.07C344.85,191.66,340.21,192.86,338.45,194.75Zm-29.81-4a32.4,32.4,0,0,1,9.87,1.85c5.49,1.89,8.19,1.5,12.2-2.72,6.66-7,13.11-8.4,21.89-4.8,5.85,2.4,8.12,1.71,12.87-2.79a28.06,28.06,0,0,1,8-5.38c4.12-1.78,6.37-.29,7.36,4.18,3.07,13.76.41,26.16-9,36.91-.63.72-1.21,1.49-1.86,2.3,3.42,1.17,6.74,2,9.81,3.4,12.49,5.68,21,15.06,24.16,28.46q5.6,23.34,10.23,46.92c3.61,18.28-2.06,33.25-17.15,44.45-.43.32-.8.71-1.43,1.28,1.36.65,2.48,1.2,3.61,1.73,13.24,6.24,20.61,16.85,23.1,31.07.58,3.27-.93,5.59-4.14,5.58a35,35,0,0,1-10.73-1.63c-5.86-2-8.34-1.7-12.57,2.7-6.65,6.94-13.1,8.31-21.92,4.68-5.63-2.32-8.12-1.59-12.56,2.59a30.34,30.34,0,0,1-8.29,5.66c-3.9,1.72-6,.28-7.1-3.93-3.56-14.13-.47-26.65,9.16-37.57.73-.83,1.44-1.66,2-2.28-4.94-2.09-10-3.66-14.45-6.21-10.06-5.75-16.82-14.43-19.44-25.74q-5.58-24-10.27-48.22c-3.32-17.29,2.26-31.54,15.92-42.63.44-.36.84-.76,1.47-1.34-3.71-2.21-7.26-4-10.42-6.26-8.82-6.42-13.63-15.38-15.47-26C302.73,192.71,304.21,190.68,308.64,190.74Zm96.3,106.41c-2.7-12.4-5.29-24.26-7.92-36.3l-75.46,16.06c2.61,12.31,5.12,24.17,7.7,36.3Zm-9.86-44.82c-4.33-11.65-11.82-19.49-23.29-22.18A46.47,46.47,0,0,0,333,237.86c-10,7.19-14,17.69-13.11,30.46Z"/>
      <path class="cls-1" d="M353.12,386.16c-4.22-11.83,6.64-28.83,21.17-33.14,16.25-4.83,34,4.82,37.73,20.32-3.76-.57-7.59-1.69-11.4-1.61-5,.11-9.06,2.88-12.32,6.74-2.7,3.21-6.07,4.51-10.24,3.13C365.21,377.34,363.43,377.67,353.12,386.16Z"/>
      <path class="cls-1" d="M313.62,199.91c10,4.84,17.76,2.42,24.83-5.16,1.76-1.89,6.4-3.09,8.69-2.14,9.76,4.07,18.16,3.49,25.31-5.07,4,13.45-7.46,30.36-22.68,33.89C333.76,225.14,316.3,215.05,313.62,199.91Z"/>
      <path class="cls-1" d="M279.48,375.78A23.57,23.57,0,1,1,256,399.48,23.79,23.79,0,0,1,279.48,375.78Z"/>
      <path class="cls-2" d="M279.69,422.91A23.57,23.57,0,1,0,256,399.48,23.71,23.71,0,0,0,279.69,422.91Zm-.13,8.78a32.29,32.29,0,1,1,32.33-32.6A32.55,32.55,0,0,1,279.56,431.69Z"/>
      <path class="cls-1" d="M283.48,150c-2.4,4-5.75,7.83-7.11,12.29-1.05,3.46-.05,7.78.84,11.54,1,4.4.3,7.95-3.28,10.57-8,5.83-10.8,13.2-7.4,22.68a3.51,3.51,0,0,1,0,1.24c-15-5.36-22.93-22.86-17.55-38.44C254.05,155,270.78,145.7,283.48,150Z"/>
      <path class="cls-1" d="M242.69,247.88c6.66.37,8.73,2,10.69,8.22,2.84,9,7.05,12.2,19.26,14.23a30.3,30.3,0,0,1-42.46,2.37c-11.65-10.06-14.14-29-5-40.1.45,1.17.84,2.16,1.21,3.16C229.12,243.25,234.75,247.44,242.69,247.88Z"/>
      <path class="cls-1" d="M241.56,304c2,8.53.4,16.79-4.64,24.67l-60.07-47.78c9.28-9,20.08-12.77,31.82-9.18C224.85,276.64,237.44,286.47,241.56,304Z"/>
      <path class="cls-2" d="M154.83,419.16c9.16-13.29,5.81-31.78-7.5-41.59-12.45-9.16-31.28-7.35-40.17,4.14,13.2,2.41,15.06,4,19.61,16.05,1.32,3.49,3.7,5.92,7.47,6,10.4.2,17.14,5,20,15.07C154.24,419,154.62,419.05,154.83,419.16Zm6.38-43.39c13.14,8.82,32,6.82,41.73-4.41L143.26,323.9a33.46,33.46,0,0,0,5.32,41.84A101.66,101.66,0,0,0,161.21,375.77Zm75.71-47.1c5-7.88,6.64-16.14,4.64-24.67-4.12-17.53-16.71-27.36-32.89-32.29-11.74-3.59-22.54.2-31.82,9.18Zm-6.74-56a30.3,30.3,0,0,0,42.46-2.37c-12.21-2-16.42-5.19-19.26-14.23-2-6.26-4-7.85-10.69-8.22-7.94-.44-13.57-4.63-16.29-12.12-.37-1-.76-2-1.21-3.16C216,243.71,218.53,262.64,230.18,272.7Zm14-33.41c9.12.51,14.7,4.87,17.39,13.59,1.92,6.19,3.87,7.56,10.19,8.42a29.89,29.89,0,0,1,9.62,2.81c3.85,2,4.06,4.49,1.38,8-8.54,11.26-19.73,17.19-34,16.77-.85,0-1.7,0-2.55,0-.11,0-.21.11-.67.37a45.48,45.48,0,0,1,5.27,24.86,42,42,0,0,1-9.06,23Q228,354.76,214.17,372.31c-11.91,15-27.19,20.67-46,16.16-.4-.1-.83-.07-.58-.05.15,7.22.86,14.24.29,21.15-.63,7.69-4.72,14.16-9.68,20-2.33,2.74-5.11,2.9-7.26.26a30.08,30.08,0,0,1-5.26-9c-1.71-5-4.49-7.94-10-8.14-9.59-.33-15.44-5.36-18-14.59-1.37-5-4.06-6.65-9.2-7.31A32.51,32.51,0,0,1,98.44,388c-4.09-2-4.3-4.61-1.5-8.31,9-11.85,20.88-17.48,35.78-16.65.38,0,.75,0,1.13,0,0,.11.05.23.07.34l.53-.35h-.6c-1.5-7.39-3.55-14.35-4.14-21.43-.82-9.83,2.67-18.73,8.72-26.48,9.7-12.41,19.37-24.84,29.34-37,11.17-13.64,25.63-18.53,42.92-15.12a6.79,6.79,0,0,0,1.26.16,6.09,6.09,0,0,0,1.18-.28c-2.27-7.66-3.6-15.62-.78-23.21,2.23-6,5.7-11.59,9-17.12,1.8-3,5-3.16,7.18-.51a34.49,34.49,0,0,1,5.53,9.32C236.28,237,238.32,239,244.2,239.29ZM208.89,364.92c7.8-10,15.22-19.43,22.86-29.2l-60.48-48.1-23,29.12Z"/>
      <path class="cls-1" d="M222.16,122.68a33.67,33.67,0,0,1,19.51,39.61,131.14,131.14,0,0,1-3.95,12.54,33.94,33.94,0,0,1-34.07,21.81c-1.25-.09-2.48-.39-4.25-.68C207,171.43,214.55,147.21,222.16,122.68Z"/>
      <path class="cls-1" d="M231.75,335.72c-7.64,9.77-15.06,19.24-22.86,29.2l-60.62-48.18,23-29.12Z"/>
      <path class="cls-1" d="M213.92,119.74c-7.65,24.63-15.22,49-22.95,73.92l-35.4-10.89,23-74Z"/>
      <path class="cls-1" d="M164.14,105.8a56.36,56.36,0,0,1,6,.67l-22.75,73.19c-14.36-6-22.65-22.42-19.09-37.71a109.28,109.28,0,0,1,4.7-15A33.6,33.6,0,0,1,164.14,105.8Z"/>
      <path class="cls-1" d="M147.33,377.57c13.31,9.81,16.66,28.3,7.5,41.59-.21-.11-.59-.18-.63-.34-2.82-10.1-9.56-14.87-20-15.07-3.77-.07-6.15-2.5-7.47-6-4.55-12.1-6.41-13.64-19.61-16.05C116.05,370.22,134.88,368.41,147.33,377.57Z"/>
      <path class="cls-1" d="M143.26,323.9l59.68,47.46c-9.75,11.23-28.59,13.23-41.73,4.41a101.66,101.66,0,0,1-12.63-10A33.46,33.46,0,0,1,143.26,323.9Z"/>
      <path d="M133.85,363.06h.6l-.53.35C133.9,363.29,133.87,363.17,133.85,363.06Z"/>
      <path class="cls-1" d="M343.53,115.12a32.3,32.3,0,1,0,32.52-32.39A32.44,32.44,0,0,0,343.53,115.12ZM303.47,197c1.84,10.62,6.65,19.58,15.47,26,3.16,2.29,6.71,4.05,10.42,6.26-.63.58-1,1-1.47,1.34-13.66,11.09-19.24,25.34-15.92,42.63q4.66,24.19,10.27,48.22c2.62,11.31,9.38,20,19.44,25.74,4.48,2.55,9.51,4.12,14.45,6.21-.54.62-1.25,1.45-2,2.28-9.63,10.92-12.72,23.44-9.16,37.57,1.06,4.21,3.2,5.65,7.1,3.93a30.34,30.34,0,0,0,8.29-5.66c4.44-4.18,6.93-4.91,12.56-2.59,8.82,3.63,15.27,2.26,21.92-4.68,4.23-4.4,6.71-4.66,12.57-2.7a35,35,0,0,0,10.73,1.63c3.21,0,4.72-2.31,4.14-5.58-2.49-14.22-9.86-24.83-23.1-31.07-1.13-.53-2.25-1.08-3.61-1.73.63-.57,1-1,1.43-1.28,15.09-11.2,20.76-26.17,17.15-44.45q-4.64-23.56-10.23-46.92c-3.21-13.4-11.67-22.78-24.16-28.46-3.07-1.39-6.39-2.23-9.81-3.4.65-.81,1.23-1.58,1.86-2.3,9.38-10.75,12-23.15,9-36.91-1-4.47-3.24-6-7.36-4.18a28.06,28.06,0,0,0-8,5.38c-4.75,4.5-7,5.19-12.87,2.79-8.78-3.6-15.23-2.18-21.89,4.8-4,4.22-6.71,4.61-12.2,2.72a32.4,32.4,0,0,0-9.87-1.85C304.21,190.68,302.73,192.71,303.47,197Zm-230,45.47a32.3,32.3,0,1,0,32.33-32.12A32.58,32.58,0,0,0,73.52,242.47ZM248.74,288.9c14.31.42,25.5-5.51,34-16.77,2.68-3.53,2.47-6-1.38-8a29.89,29.89,0,0,0-9.62-2.81c-6.32-.86-8.27-2.23-10.19-8.42-2.69-8.72-8.27-13.08-17.39-13.59-5.88-.32-7.92-2.26-10.11-7.93a34.49,34.49,0,0,0-5.53-9.32c-2.19-2.65-5.38-2.47-7.18.51-3.33,5.53-6.8,11.11-9,17.12-2.82,7.59-1.49,15.55.78,23.21a6.09,6.09,0,0,1-1.18.28,6.79,6.79,0,0,1-1.26-.16c-17.29-3.41-31.75,1.48-42.92,15.12-10,12.19-19.64,24.62-29.34,37-6.05,7.75-9.54,16.65-8.72,26.48.59,7.08,2.64,14,4.14,21.43-.38,0-.75,0-1.13,0-14.9-.83-26.79,4.8-35.78,16.65-2.8,3.7-2.59,6.29,1.5,8.31a32.51,32.51,0,0,0,10.07,2.8c5.14.66,7.83,2.3,9.2,7.31,2.52,9.23,8.37,14.26,18,14.59,5.51.2,8.29,3.1,10,8.14a30.08,30.08,0,0,0,5.26,9c2.15,2.64,4.93,2.48,7.26-.26,5-5.83,9.05-12.3,9.68-20,.57-6.91-.14-13.93-.29-21.15-.25,0,.18-.05.58.05,18.82,4.51,34.1-1.13,46-16.16q13.88-17.52,27.56-35.19a42,42,0,0,0,9.06-23,45.48,45.48,0,0,0-5.27-24.86c.46-.26.56-.37.67-.37C247,288.88,247.89,288.87,248.74,288.9Zm-8.14-96.2c4.92,13.34,14.28,21.88,27.92,25.74,4.22,1.2,6.49.15,6.93-4.21a34.32,34.32,0,0,0-1-10.79c-1.14-5.07-.44-7.95,3.64-11.21,8.09-6.46,9.94-12.26,7-22-1.62-5.48-.53-8.08,3.74-12a34.7,34.7,0,0,0,6.76-8.49c1.66-2.93.4-5.47-3-6.64-13.51-4.67-26.23-3.4-38,5-.9.64-1.82,1.24-2.76,1.87a6,6,0,0,1-.48-1c-.17-.68-.3-1.38-.43-2.08-3.36-17.51-13.67-28.89-30.55-34.29-14.17-4.53-28.31-9.23-42.66-13.1a58,58,0,0,0-19.24-1.78c-11.23.87-20.25,6.75-27.48,15.34-.35-.38-.59-.55-.69-.78a13.28,13.28,0,0,1-.6-1.59c-4.52-14.26-14.08-23.27-28.41-27.33-4.14-1.17-6.52-.07-7,4.17A31.91,31.91,0,0,0,95.28,98c1.31,5.54.62,8.37-3.86,11.92-7.48,5.92-9.54,12.39-6.81,21.39,1.8,5.93.83,8.43-4,12.59a27,27,0,0,0-5.93,7.05c-2.34,4.22-1.17,6.59,3.37,8.07,13.76,4.51,26.56,2.82,38.23-6,.63-.48,1.34-.86,2.24-1.42.24,1,.47,1.64.57,2.33,2.8,19.14,13.78,31.14,32.08,36.76,12.86,3.95,25.79,7.73,38.59,11.88,18.69,6.07,34.93,2.68,48.55-11.81a7.12,7.12,0,0,1,1.22-.8C239.92,190.91,240.27,191.8,240.6,192.7Zm6.68,206.76a32.31,32.31,0,1,0,32.12-32.35A32.55,32.55,0,0,0,247.28,399.46ZM466,39.23V476.12H29.14V39.23Z"/>
      <path class="cls-1" d="M105.89,219a23.54,23.54,0,1,1-23.62,23.52A23.8,23.8,0,0,1,105.89,219Z"/>
      <path class="cls-2" d="M82.27,242.52A23.58,23.58,0,1,0,105.89,219,23.58,23.58,0,0,0,82.27,242.52Zm55.85,0a32.3,32.3,0,1,1-32.27-32.15A32.5,32.5,0,0,1,138.12,242.5Z"/>
      <path class="cls-1" d="M103.68,93.57a30.66,30.66,0,0,1,17.22,38.57c-5.15,14.61-21.37,23.63-35.13,19.53,0-.25-.1-.66,0-.75,8.28-6.16,10.29-14,6.78-23.64a7.84,7.84,0,0,1,3-9.48c8.31-5.94,11.19-13.52,7.83-23.3C103.28,94.3,103.52,94,103.68,93.57Z"/>
      <path class="cls-2" d="M120.9,132.14a30.66,30.66,0,0,0-17.22-38.57c-.16.42-.4.73-.33.93,3.36,9.78.48,17.36-7.83,23.3a7.84,7.84,0,0,0-3,9.48c3.51,9.62,1.5,17.48-6.78,23.64-.12.09,0,.5,0,.75C99.53,155.77,115.75,146.75,120.9,132.14Zm7.39,9.81c-3.56,15.29,4.73,31.68,19.09,37.71l22.75-73.19a56.36,56.36,0,0,0-6-.67A33.6,33.6,0,0,0,133,127,109.28,109.28,0,0,0,128.29,142Zm75.36,54.69a33.94,33.94,0,0,0,34.07-21.81,131.14,131.14,0,0,0,3.95-12.54,33.67,33.67,0,0,0-19.51-39.61C214.55,147.21,207,171.43,199.4,196,201.17,196.25,202.4,196.55,203.65,196.64ZM251.84,150c.94-.63,1.86-1.23,2.76-1.87,11.79-8.38,24.51-9.65,38-5,3.38,1.17,4.64,3.71,3,6.64a34.7,34.7,0,0,1-6.76,8.49c-4.27,3.88-5.36,6.48-3.74,12,2.92,9.78,1.07,15.58-7,22-4.08,3.26-4.78,6.14-3.64,11.21a34.32,34.32,0,0,1,1,10.79c-.44,4.36-2.71,5.41-6.93,4.21-13.64-3.86-23-12.4-27.92-25.74-.33-.9-.68-1.79-1.06-2.82a7.12,7.12,0,0,0-1.22.8c-13.62,14.49-29.86,17.88-48.55,11.81-12.8-4.15-25.73-7.93-38.59-11.88C132.88,185,121.9,173,119.1,153.85c-.1-.69-.33-1.35-.57-2.33-.9.56-1.61.94-2.24,1.42-11.67,8.85-24.47,10.54-38.23,6-4.54-1.48-5.71-3.85-3.37-8.07a27,27,0,0,1,5.93-7.05c4.82-4.16,5.79-6.66,4-12.59-2.73-9-.67-15.47,6.81-21.39,4.48-3.55,5.17-6.38,3.86-11.92a31.91,31.91,0,0,1-.94-10.41c.44-4.24,2.82-5.34,7-4.17,14.33,4.06,23.89,13.07,28.41,27.33a13.28,13.28,0,0,0,.6,1.59c.1.23.34.4.69.78,7.23-8.59,16.25-14.47,27.48-15.34a58,58,0,0,1,19.24,1.78c14.35,3.87,28.49,8.57,42.66,13.1,16.88,5.4,27.19,16.78,30.55,34.29.13.7.26,1.4.43,2.08A6,6,0,0,0,251.84,150Zm24.53,12.29c1.36-4.46,4.71-8.31,7.11-12.29-12.7-4.25-29.43,5-34.55,19.88-5.38,15.58,2.58,33.08,17.55,38.44a3.51,3.51,0,0,0,0-1.24c-3.4-9.48-.57-16.85,7.4-22.68,3.58-2.62,4.32-6.17,3.28-10.57C276.32,170,275.32,165.7,276.37,162.24ZM191,193.66c7.73-24.91,15.3-49.29,22.95-73.92l-35.35-11-23,74Z"/>
    </g>
  </g>
</svg>
