<svg xmlns="http://www.w3.org/2000/svg" viewBox="0 0 447.9 447.9">
  <defs>
    <style>
      .cls-1 {
        fill: #cacefc;
      }
    </style>
  </defs>
  <g id="Layer_2" data-name="Layer 2">
    <path class="cls-1" d="M378.75,35.89A33.3,33.3,0,0,1,412,69.15v309.6A33.3,33.3,0,0,1,378.75,412H69.15a33.3,33.3,0,0,1-33.26-33.26V69.15A33.3,33.3,0,0,1,69.15,35.89h309.6m0-20H69.15A53.27,53.27,0,0,0,15.89,69.15v309.6A53.27,53.27,0,0,0,69.15,432h309.6A53.27,53.27,0,0,0,432,378.75V69.15a53.27,53.27,0,0,0-53.26-53.26Z"/>
  </g>
</svg>
