<svg xmlns="http://www.w3.org/2000/svg" viewBox="0 0 447.9 447.9">
  <defs>
    <style>
      .cls-1, .cls-2 {
        fill: #fff;
      }

      .cls-1 {
        opacity: 0.3;
      }
    </style>
  </defs>
  <g id="Layer_2" data-name="Layer 2">
    <g>
      <rect class="cls-1" x="30.89" y="30.89" width="386.12" height="386.11" rx="38.26"/>
      <path class="cls-2" d="M378.75,45.89A23.29,23.29,0,0,1,402,69.15v309.6A23.29,23.29,0,0,1,378.75,402H69.15a23.29,23.29,0,0,1-23.26-23.26V69.15A23.29,23.29,0,0,1,69.15,45.89h309.6m0-30H69.15A53.27,53.27,0,0,0,15.89,69.15v309.6A53.27,53.27,0,0,0,69.15,432h309.6A53.27,53.27,0,0,0,432,378.75V69.15a53.27,53.27,0,0,0-53.26-53.26Z"/>
    </g>
  </g>
</svg>
