<svg xmlns="http://www.w3.org/2000/svg" viewBox="0 0 447.9 447.9">
  <defs>
    <style>
      .cls-1 {
        fill: #ffb591;
      }

      .cls-2 {
        fill: #6259fa;
      }

      .cls-3 {
        fill: none;
        stroke: #fff;
        stroke-linecap: round;
        stroke-miterlimit: 10;
        stroke-width: 33.84px;
      }
    </style>
  </defs>
  <g id="Layer_2" data-name="Layer 2">
    <path class="cls-1" d="M378.75,35.43a33.76,33.76,0,0,1,33.72,33.72v309.6a33.76,33.76,0,0,1-33.72,33.72H69.15a33.76,33.76,0,0,1-33.72-33.72V69.15A33.76,33.76,0,0,1,69.15,35.43h309.6m0-19.54H69.15A53.27,53.27,0,0,0,15.89,69.15v309.6A53.27,53.27,0,0,0,69.15,432h309.6A53.27,53.27,0,0,0,432,378.75V69.15a53.27,53.27,0,0,0-53.26-53.26Z"/>
    <rect class="cls-2" x="15.89" y="15.89" width="416.11" height="416.11" rx="53.26"/>
    <path class="cls-3" d="M92.59,210.41l90.74,105.06a18.74,18.74,0,0,0,29.32-1.19L370.5,98.51"/>
  </g>
</svg>
