<svg xmlns="http://www.w3.org/2000/svg" viewBox="0 0 9175.77 1007.71">
  <defs>
    <style>
      .cls-1, .cls-2 {
        fill: #e3e3e5;
      }

      .cls-1, .cls-3 {
        stroke: #e3e3e5;
      }

      .cls-1, .cls-2, .cls-3 {
        stroke-linecap: round;
        stroke-miterlimit: 10;
        stroke-width: 19px;
      }

      .cls-2 {
        stroke: #f48d69;
      }

      .cls-3 {
        fill: #16162a;
      }

      .cls-4 {
        fill: #fff;
      }
    </style>
  </defs>
  <g id="Layer_10" data-name="Layer 10">
    <line id="background-line" class="cls-1" x1="521.06" y1="484.94" x2="8885.9" y2="484.94"/>
    <line id="progress-line" class="cls-2" x1="524.78" y1="484.28" x2="2010.59" y2="484.28"/>
    <g>
      <circle class="cls-3" cx="1775.79" cy="515.21" r="286.17"/>
      <circle class="cls-3" cx="3742.26" cy="515.21" r="286.17"/>
      <circle class="cls-3" cx="5708.73" cy="515.21" r="286.17"/>
      <circle class="cls-3" cx="7675.2" cy="515.21" r="286.17"/>
    </g>
    <path class="cls-4" d="M1796,415.51v175h-42V475h-43.25V445.26H1724q15.75,0,25-8.63a39.91,39.91,0,0,0,12-21.12Z"/>
    <path class="cls-4" d="M3805.13,553.25v34.5H3672.88v-6q0-20.75,6.62-35.12A70.11,70.11,0,0,1,3696.63,523a177.52,177.52,0,0,1,26.5-18.75l17.25-10.75q11-6.5,16.87-13.5a24.16,24.16,0,0,0,5.88-16q0-10.74-5.5-16.5t-16.5-5.75q-11.25,0-17.88,7.63t-7.62,22.87L3673.88,471q1-20,10.12-33.87a56.76,56.76,0,0,1,24-20.75,78.09,78.09,0,0,1,33.13-6.88q28.74,0,46.5,13.38t17.75,38.62q0,17.25-6,28.25A53.58,53.58,0,0,1,3785,507.13,255.88,255.88,0,0,1,3760.38,523l-14,8.75A101.26,101.26,0,0,0,3729.75,544q-6.37,6-6.62,9.25Z"/>
    <path class="cls-4" d="M5697.76,483.75q11.74,0,18.63-5.87t6.87-15.88q0-9.75-6.5-15.5t-16.5-5.75q-10.24,0-16.87,6t-7.63,18l-41-2.5q1.76-25.74,19-39.37t46.5-13.63q29.25,0,46.75,13.38t17.5,37.12q0,13-7.37,22.25a42.14,42.14,0,0,1-19.38,13.5v1q13.76,3.75,22,13.63t8.25,26.12q0,28.26-18.25,41.5T5700.26,591q-31,0-49.62-13.87t-20.88-42.63L5672,532q2,27.51,28.25,27.5,11.25,0,18.38-6.37t7.12-17.63q0-11.75-7.37-17.5t-20.63-5.75h-16v-28.5Z"/>
    <path class="cls-4" d="M7666.15,415.51h59.25V520.76h20.5v30.75h-20.5v39h-41.75v-39H7604.9V517Zm17.5,30.25h-1l-44.75,74v1h45.75Z"/>
  </g>
</svg>
