<svg xmlns="http://www.w3.org/2000/svg" viewBox="0 0 447.9 447.9">
  <defs>
    <style>
      .cls-1 {
        fill: #f48d69;
      }
    </style>
  </defs>
  <g id="Layer_2" data-name="Layer 2">
    <path class="cls-1" d="M220.31,42.27A189.91,189.91,0,0,1,354.6,366.48,189.91,189.91,0,0,1,86,97.9,188.69,188.69,0,0,1,220.31,42.27m0-18.86C105,23.41,11.54,116.88,11.54,232.19S105,441,220.31,441s208.78-93.48,208.78-208.78S335.62,23.41,220.31,23.41Z"/>
    <g>
      <circle class="cls-1" cx="220.31" cy="232.19" r="147.46" transform="translate(-56.28 393.26) rotate(-76.72)"/>
      <path class="cls-1" d="M220.31,91.71A140.48,140.48,0,1,1,121,132.85a139.56,139.56,0,0,1,99.33-41.14m0-13.95A154.43,154.43,0,1,0,374.75,232.19,154.43,154.43,0,0,0,220.31,77.76Z"/>
    </g>
  </g>
</svg>
