<svg xmlns="http://www.w3.org/2000/svg" viewBox="0 0 447.9 447.9">
  <defs>
    <style>
      .cls-1 {
        fill: #6259fa;
      }
    </style>
  </defs>
  <g id="Layer_2" data-name="Layer 2">
    <path class="cls-1" d="M222.13,39.29A188.78,188.78,0,0,1,355.62,361.56a188.78,188.78,0,1,1-267-267A187.55,187.55,0,0,1,222.13,39.29m0-20c-115.3,0-208.78,93.48-208.78,208.78s93.48,208.78,208.78,208.78,208.78-93.48,208.78-208.78S337.44,19.29,222.13,19.29Z"/>
    <g>
      <circle class="cls-1" cx="222.13" cy="228.07" r="125.51" transform="translate(-96.21 223.87) rotate(-45)"/>
      <path class="cls-1" d="M222.13,108.5a119.57,119.57,0,1,1-84.55,35,118.8,118.8,0,0,1,84.55-35m0-11.88A131.45,131.45,0,1,0,353.58,228.07,131.45,131.45,0,0,0,222.13,96.62Z"/>
    </g>
  </g>
</svg>
