<svg xmlns="http://www.w3.org/2000/svg" viewBox="0 0 500 500">
  <defs>
    <style>
      .cls-1 {
        fill: #a5a5ac;
      }

      .cls-2 {
        fill: #fff;
      }
    </style>
  </defs>
  <g id="Layer_9" data-name="Layer 9">
    <g>
      <path class="cls-1" d="M239.12,451.25q13.53.17,27.06,0c4.44-.06,7.38-3,7.36-7s-3-6.79-7.43-6.91-8.73,0-13.1,0c-4.66,0-9.31-.1-14,0-4.45.12-7.37,3-7.34,7S234.64,451.2,239.12,451.25ZM339.87,160.59c2.85,2.28,4.17,5.44,2.37,8.43a10,10,0,0,1-6.41,4.14c-1.85.28-4.28-1.47-6.06-2.83-26.53-20.21-56.34-28.92-89.56-25.77C169.63,151.25,118.12,216.4,128,286.46A125.71,125.71,0,0,0,272.1,393.79c93.71-14.3,138.25-125.4,80.38-200.49a24.18,24.18,0,0,1-2.94-4.29c-2.05-4.33.83-9.65,5.52-9.45a10,10,0,0,1,6.87,3.48c6.14,8.57,11.77,17.51,17.31,25.89a52.7,52.7,0,0,1,7.76-2.09,72.81,72.81,0,0,1,9.12-.09c-11.13-64.68-72-123.24-152-118.46-82.62,4.94-128.55,71.27-134.59,118.23h0a27.74,27.74,0,0,0,6.83.18,18.21,18.21,0,0,1,4.73.33c.29.07.57.15.86.25a6.22,6.22,0,0,1,.68.25,9.66,9.66,0,0,1,1.07.53,10.33,10.33,0,0,1,2.56,2.18c.7-1.33,1.1-2.1,1.49-2.87,33.27-65.84,109.17-94.5,177.66-67.06A136.45,136.45,0,0,1,339.87,160.59Zm94.67,150.94c2.44,0,4.61.12,6.76,0,4.11-.29,6.83-2.86,6.86-7q.15-27.9,0-55.79c0-4.16-2.74-6.71-6.86-7-2.15-.14-4.32,0-6.76,0ZM266.28,423.38c8.41.12,14.61,4,18.88,11.3a5.85,5.85,0,0,0,4.18,2.53c23.42.14,46.86.38,70.28,0,31.9-.51,59.15-27.24,60.51-59.18.46-10.72.07-21.49.07-31.54-11.17,0-22,0-32.92,0-6.53,0-8.87-2.4-8.92-9a18.32,18.32,0,0,0-.65-5.75c-1.3,2.34-2.57,4.69-3.89,7a139.79,139.79,0,0,1-144.71,68.65C171.58,397.6,126,353,115.52,295.7A179.92,179.92,0,0,1,113,268c-.4-15.54-.11-31.1-.11-47.09-7.62,0-15-.41-22.32.16-4.2.33-5.67,3.92-5.65,8.06.07,12.08,0,24.16,0,36.24q0,29,0,58.07c0,6.81,2.34,9.08,9.22,9.11,3.79,0,7.57-.09,11.35,0,4.44.15,7.37,3.05,7.33,7s-3,6.76-7.46,6.9c-3.63.11-7.27,0-10.91,0-13.93,0-21.72-6.74-23.74-21-2.68,0-5.14.09-7.59,0a20.74,20.74,0,0,1-20-20.28q-.28-28.59,0-57.2c.12-11,7.94-18.62,20.7-20.54.87-7.39,1.47-14.91,2.69-22.32,8.15-49.62,32.19-90,72-120.5,36.23-27.78,77.62-40.18,123.17-38.42,79.2,3.07,150.09,59,171.87,135.27,1.4,4.89-.22,8.53-4.36,9.82s-7.43-.85-9-5.94C411,154.92,395.07,128.59,371.67,107c-29.4-27.18-64.07-42.9-104-46.16C177.18,53.42,97.55,114.27,80.83,203.26c-.4,2.13-.64,4.29-.94,6.36l14.71-3.77c8.8-44.77,32.29-80.89,71.3-106.31,28.09-18.31,59.32-27.76,92.72-25.2,83,6.36,132.09,52.91,153,132.19,14.42,1.45,20.38,6.73,22.94,21.18,2.23,0,4.53,0,6.83,0,11.49.28,20.59,9.09,20.7,20.53q.27,28.38,0,56.76a20.76,20.76,0,0,1-20.3,20.49c-2.31.08-4.63,0-7.58,0v4.82c0,14.41,0,28.81,0,43.22-.14,43.81-34,77.61-77.86,77.73q-33.18.09-66.36,0c-2.66,0-4,.74-5.32,3.15A19.67,19.67,0,0,1,267,465.19q-14.4.33-28.81,0a20.92,20.92,0,0,1,.19-41.83C247.65,423.23,257,423.26,266.28,423.38ZM64.34,311.53c2,.1,4,0,6.37,0V241.69c-2.3,0-4.31-.08-6.32,0-4.63.22-7.31,2.76-7.33,7.42q-.14,27.47,0,54.92C57.07,308.71,59.74,311.29,64.34,311.53Zm355.94-52.39c0-10.18.05-20.36,0-30.53,0-4.81-2.51-7.7-6.93-7.82-6.8-.18-13.62,0-20.68,0V332.51c6.39,0,12.48,0,18.57,0,6.75,0,9.06-2.37,9.06-9.26Q420.3,291.2,420.28,259.14Z"/>
      <path class="cls-2" d="M441.3,241.73c4.12.28,6.83,2.83,6.86,7q.15,27.9,0,55.79c0,4.14-2.75,6.71-6.86,7-2.15.14-4.32,0-6.76,0V241.7C437,241.7,439.15,241.59,441.3,241.73Z"/>
      <path class="cls-2" d="M413.32,220.79c4.42.12,6.9,3,6.93,7.82.08,10.17,0,20.35,0,30.53q0,32.06,0,64.11c0,6.89-2.31,9.23-9.06,9.26-6.09,0-12.18,0-18.57,0V220.74C399.7,220.74,406.52,220.61,413.32,220.79Z"/>
      <path class="cls-2" d="M319,252.54a6.78,6.78,0,0,0,7.09,6.69,6.92,6.92,0,0,0,6.8-7.05,7.21,7.21,0,0,0-7.16-6.8A7,7,0,0,0,319,252.54ZM301.49,270a6.8,6.8,0,0,0,7.08,6.71,6.92,6.92,0,0,0,6.81-7,7.21,7.21,0,0,0-7.14-6.82A7,7,0,0,0,301.49,270Zm0-34.94a6.79,6.79,0,0,0,7.08,6.71,6.91,6.91,0,0,0,6.81-7,7.2,7.2,0,0,0-7.14-6.82A7,7,0,0,0,301.49,235.05Zm-111.8,36.19c0,6,2.45,9,7.05,8.95s6.88-3.15,6.92-9.18c0-2.68,0-5.37,0-8.26,3.49,0,6.24,0,9,0,5.21-.06,8.34-2.59,8.43-6.77s-3.28-7.09-8.6-7.19c-2.85,0-5.7,0-8.23,0a7.09,7.09,0,0,1-.47-1c-.05-2.76-.05-5.52-.13-8.28-.14-5-3.06-8.24-7.19-8.13s-6.67,3.2-6.76,8c0,3,0,6,0,9.4-3.87,0-7.2-.18-10.5.05-4.41.3-7.15,3.39-6.92,7.39.21,3.8,3,6.34,7.32,6.47,3.17.09,6.34,0,10.1,0C189.69,266,189.68,268.63,189.69,271.24Zm36.09,96.2c13.24.05,26.48,0,39.73,0,5.09,0,10.19.13,15.27-.08a6.83,6.83,0,0,0,6.73-6.71c.11-3.8-2.68-6.78-6.76-7.14-1.16-.1-2.33,0-3.49,0-17,0-34.06,0-51.08,0-6,0-8.41-2.52-8.49-8.53,0-1.59,0-3.19,0-5.43h5.2q35.36,0,70.72,0c4.8,0,7.85-2.84,7.87-6.94s-2.91-7-7.36-7q-41.47-.1-83,0c-4.66,0-7.27,2.71-7.42,7.35-.13,4.22-.06,8.44,0,12.66C203.82,358.59,212.67,367.39,225.78,367.44Zm65-108.21a6.94,6.94,0,0,0,7.13-6.73,7.22,7.22,0,0,0-6.85-7.12,7,7,0,0,0-7,6.83A6.77,6.77,0,0,0,290.8,259.23ZM244.12,88.29c80-4.78,140.87,53.78,152,118.46a72.81,72.81,0,0,0-9.12.09,52.7,52.7,0,0,0-7.76,2.09c-5.54-8.38-11.17-17.32-17.31-25.89a10,10,0,0,0-6.87-3.48c-4.69-.2-7.57,5.12-5.52,9.45a24.18,24.18,0,0,0,2.94,4.29c57.87,75.09,13.33,186.19-80.38,200.49A125.71,125.71,0,0,1,128,286.46c-9.84-70.06,41.67-135.21,112.25-141.9,33.22-3.15,63,5.56,89.56,25.77,1.78,1.36,4.21,3.11,6.06,2.83a10,10,0,0,0,6.41-4.14c1.8-3,.48-6.15-2.37-8.43a136.45,136.45,0,0,0-34.46-20.27c-68.49-27.44-144.39,1.22-177.66,67.06-.39.77-.79,1.54-1.49,2.87a10.33,10.33,0,0,0-2.56-2.18,9.66,9.66,0,0,0-1.07-.53,6.22,6.22,0,0,0-.68-.25,8.47,8.47,0,0,0-.86-.25,18.21,18.21,0,0,0-4.73-.33,28.23,28.23,0,0,1-6.83-.19C115.57,159.56,161.5,93.23,244.12,88.29Zm11.53,195.28c3,.33,4.87,1,6.64,3.6a55.55,55.55,0,0,0,62.55,22.08c25.72-8,42.72-33.83,39.15-59.46-4-28.85-26-49.29-54.53-49.77-27.79-.47-55.59-.15-83.38-.12-5.17,0-8.3,2.74-8.36,6.94-.06,4.38,3.09,7,8.62,7q20.73,0,41.47,0v0c13.68,0,27.36-.25,41,.05,27.53.6,47,26.1,40.19,52.26a42,42,0,0,1-35.38,31.28,41.47,41.47,0,0,1-41.91-21.68c-2.4-4.47-5.49-6.33-10.43-6.1a140.34,140.34,0,0,1-16.15,0c-5.95-.42-9.47,1.78-12.49,7.14C221,297.64,194.1,304,174,291.15a41.76,41.76,0,0,1-11.72-59.31c8.18-11.61,19.67-17.28,33.76-18,4.76-.23,7.75-3.2,7.53-7.25-.21-3.85-3.33-6.61-7.76-6.65a47.94,47.94,0,0,0-6.08.51c-25.28,3-44.71,22.26-48.65,48.17-3.61,23.81,10.28,48.34,33.09,58.41s50.25,3.78,65.33-15.94C244.09,285.13,248.52,282.8,255.65,283.57Z"/>
      <path class="cls-1" d="M325.69,245.38a7.21,7.21,0,0,1,7.16,6.8,6.92,6.92,0,0,1-6.8,7.05,6.78,6.78,0,0,1-7.09-6.69A7,7,0,0,1,325.69,245.38Z"/>
      <path class="cls-1" d="M315.38,234.73a6.91,6.91,0,0,1-6.81,7,6.79,6.79,0,0,1-7.08-6.71,7,7,0,0,1,6.75-7.14A7.2,7.2,0,0,1,315.38,234.73Z"/>
      <path class="cls-1" d="M315.38,269.66a6.92,6.92,0,0,1-6.81,7,6.8,6.8,0,0,1-7.08-6.71,7,7,0,0,1,6.75-7.15A7.21,7.21,0,0,1,315.38,269.66Z"/>
      <path class="cls-1" d="M277.26,353.48c1.16,0,2.33-.06,3.49,0,4.08.36,6.87,3.34,6.76,7.14a6.83,6.83,0,0,1-6.73,6.71c-5.08.21-10.18.08-15.27.08-13.25,0-26.49,0-39.73,0s-22-8.85-22.06-21.86c0-4.22-.1-8.44,0-12.66.15-4.64,2.76-7.34,7.42-7.35q41.47-.1,83,0c4.45,0,7.38,3,7.36,7s-3.07,6.93-7.87,6.94q-35.36.07-70.72,0h-5.2c0,2.24,0,3.84,0,5.43.08,6,2.51,8.52,8.49,8.53C243.2,353.5,260.23,353.47,277.26,353.48Z"/>
      <path class="cls-1" d="M297.93,252.5a6.94,6.94,0,0,1-7.13,6.73,6.77,6.77,0,0,1-6.76-7,7,7,0,0,1,7-6.83A7.22,7.22,0,0,1,297.93,252.5Z"/>
      <path class="cls-2" d="M253,437.33c4.37,0,8.73-.09,13.1,0s7.4,3,7.43,6.91-2.92,6.93-7.36,7q-13.53.18-27.06,0c-4.48-.05-7.4-2.95-7.42-6.91s2.89-6.86,7.34-7C243.7,437.23,248.35,437.33,253,437.33Z"/>
      <path class="cls-2" d="M63.16,325.49c2.45.1,4.91,0,7.59,0,2,14.25,9.81,21,23.74,21,3.64,0,7.28.08,10.91,0,4.47-.14,7.42-3,7.46-6.9s-2.89-6.86-7.33-7c-3.78-.13-7.56,0-11.35,0-6.88,0-9.21-2.3-9.22-9.11q0-29,0-58.07c0-12.08,0-24.16,0-36.24,0-4.14,1.45-7.73,5.65-8.06,7.31-.57,14.7-.16,22.32-.16,0,16-.29,31.55.11,47.09a179.92,179.92,0,0,0,2.51,27.74C126,353,171.58,397.6,229.11,407.42a139.79,139.79,0,0,0,144.71-68.65c1.32-2.33,2.59-4.68,3.89-7a18.32,18.32,0,0,1,.65,5.75c.05,6.58,2.39,9,8.92,9,10.88,0,21.75,0,32.92,0,0,10.05.39,20.82-.07,31.54-1.36,31.94-28.61,58.67-60.51,59.18-23.42.38-46.86.14-70.28,0a5.85,5.85,0,0,1-4.18-2.53c-4.27-7.28-10.47-11.18-18.88-11.3-9.31-.12-18.63-.15-27.94,0a20.92,20.92,0,0,0-.19,41.83q14.4.3,28.81,0a19.67,19.67,0,0,0,17.74-10.81c1.31-2.41,2.66-3.16,5.32-3.15q33.18.16,66.36,0c43.87-.12,77.72-33.92,77.86-77.73.05-14.41,0-28.81,0-43.22v-4.82c2.95,0,5.27.07,7.58,0A20.76,20.76,0,0,0,462.13,305q.27-28.36,0-56.76c-.11-11.44-9.21-20.25-20.7-20.53-2.3-.05-4.6,0-6.83,0-2.56-14.45-8.52-19.73-22.94-21.18-21-79.28-70.07-125.83-153-132.19-33.4-2.56-64.63,6.89-92.72,25.2-39,25.42-62.5,61.54-71.3,106.31l-14.71,3.77c.3-2.07.54-4.23.94-6.36,16.72-89,96.35-149.84,186.81-142.46,40,3.26,74.63,19,104,46.16,23.4,21.63,39.33,48,48.56,78.42,1.54,5.09,4.92,7.2,9,5.94s5.76-4.93,4.36-9.82C411.78,105.18,340.89,49.3,261.69,46.23c-45.55-1.76-86.94,10.64-123.17,38.42-39.83,30.53-63.87,70.88-72,120.5-1.22,7.41-1.82,14.93-2.69,22.32C51.05,229.39,43.23,237,43.11,248q-.28,28.61,0,57.2A20.74,20.74,0,0,0,63.16,325.49ZM477,32.2V480.1H29.14V32.2Z"/>
      <path class="cls-1" d="M309.46,200C338,200.5,360,220.94,364,249.79c3.57,25.63-13.43,51.44-39.15,59.46a55.55,55.55,0,0,1-62.55-22.08c-1.77-2.63-3.63-3.27-6.64-3.6-7.13-.77-11.56,1.56-16.12,7.54-15.08,19.72-42.61,26-65.33,15.94s-36.7-34.6-33.09-58.41c3.94-25.91,23.37-45.16,48.65-48.17a47.94,47.94,0,0,1,6.08-.51c4.43,0,7.55,2.8,7.76,6.65.22,4-2.77,7-7.53,7.25-14.09.7-25.58,6.37-33.76,18A41.76,41.76,0,0,0,174,291.15C194.1,304,221,297.64,232.67,276.8c3-5.36,6.54-7.56,12.49-7.14a140.34,140.34,0,0,0,16.15,0c4.94-.23,8,1.63,10.43,6.1a41.47,41.47,0,0,0,41.91,21.68A42,42,0,0,0,349,266.19c6.83-26.16-12.66-51.66-40.19-52.26-13.67-.3-27.35-.05-41-.05v0q-20.75,0-41.47,0c-5.53,0-8.68-2.62-8.62-7,.06-4.2,3.19-6.94,8.36-6.94C253.87,199.87,281.67,199.55,309.46,200Z"/>
      <path class="cls-1" d="M189.7,239.42c.09-4.83,2.72-7.92,6.76-8s7,3.17,7.19,8.13c.08,2.76.08,5.52.13,8.28a7.09,7.09,0,0,0,.47,1c2.53,0,5.38,0,8.23,0,5.32.1,8.69,2.94,8.6,7.19s-3.22,6.71-8.43,6.77c-2.75,0-5.5,0-9,0,0,2.89,0,5.58,0,8.26,0,6-2.37,9.11-6.92,9.18s-7-3-7.05-8.95c0-2.61,0-5.21,0-8.5-3.76,0-6.93.08-10.1,0-4.31-.13-7.11-2.67-7.32-6.47-.23-4,2.51-7.09,6.92-7.39,3.3-.23,6.63-.05,10.5-.05C189.69,245.43,189.65,242.43,189.7,239.42Z"/>
      <path class="cls-2" d="M122.63,207.54a9.66,9.66,0,0,1,1.07.53A9.66,9.66,0,0,0,122.63,207.54Z"/>
      <path class="cls-2" d="M121.09,207a8.47,8.47,0,0,1,.86.25C121.66,207.19,121.38,207.11,121.09,207Z"/>
      <path class="cls-2" d="M109.53,206.52a28.23,28.23,0,0,0,6.83.19,27.74,27.74,0,0,1-6.83-.18Z"/>
      <path class="cls-2" d="M70.71,241.69v69.85c-2.34,0-4.36.09-6.37,0-4.6-.24-7.27-2.82-7.29-7.48q-.12-27.46,0-54.92c0-4.66,2.7-7.2,7.33-7.42C66.4,241.61,68.41,241.69,70.71,241.69Z"/>
    </g>
  </g>
</svg>
