<svg id="Layer_1" data-name="Layer 1" xmlns="http://www.w3.org/2000/svg" viewBox="0 0 261.45 173.28">
  <defs>
    <style>
      .cls-1 {
        fill: #a6a6a6;
      }

      .cls-2 {
        fill: #fff;
      }
    </style>
  </defs>
  <path class="cls-1" d="M2.39,117.51c.5-4.63.91-9.27,1.52-13.89,3.11-23.76,8.24-47,19.37-68.43C28.23,25.64,34.44,17,43.19,10.44a38.1,38.1,0,0,1,28-7.78C81,3.85,90.68,6.2,100.4,8.08c9.16,1.77,18.24,4.21,27.48,5.17,5.73.59,11.79-.57,17.54-1.74,11.75-2.38,23.36-5.46,35.1-7.93,9.69-2,19.38-2.09,28.78,1.75,8.36,3.43,14.7,9.36,20.16,16.35,10,12.87,15.59,27.84,20,43.28,6,20.86,9.55,42.12,9.2,63.88-.16,9.61-1,19.17-5.34,28-5.13,10.48-14.12,15.12-25.65,13.24-9.3-1.51-17.38-5.85-24.86-11.21-7-5.05-14.18-10.15-20.33-16.18-11.88-11.64-26.26-16.67-42.3-18.09-13.69-1.22-27.15-.06-40.23,4.42a52.61,52.61,0,0,0-18.6,11.43c-8.69,8-17.75,15.46-27.87,21.56-6.08,3.67-12.38,6.87-19.5,8.09C21.54,172.26,11.67,166.76,6.84,155A59.65,59.65,0,0,1,2.9,136.44c-.1-1.31-.34-2.6-.51-3.9Zm11.88,5.26c0,11.23.36,19,3,26.39s7.93,10.88,15.5,8.76c5.23-1.47,10.62-3.45,15-6.53,9.27-6.48,18.12-13.61,26.78-20.9a69.28,69.28,0,0,1,26-13.92,106.61,106.61,0,0,1,59.49,0,64.74,64.74,0,0,1,25.24,13.74c7.5,6.61,15.23,13,23.24,19,6.14,4.6,12.92,8.27,20.68,9.6,6.08,1,10.41-1,13.22-6.53,3.1-6.07,4-12.68,4.29-19.38.93-21.63-2.59-42.71-8.23-63.49-3.82-14.06-9-27.58-17.78-39.4-8.51-11.38-19.73-17.29-34-15.22a279.24,279.24,0,0,0-30.8,6.42c-16.5,4.35-32.78,4.84-49.35.29a294.49,294.49,0,0,0-31.23-6.81,33.11,33.11,0,0,0-29.08,8.86c-7.46,7-12.43,15.67-16.28,25A207.73,207.73,0,0,0,14.27,122.77Z"/>
  <path class="cls-1" d="M72,34.2c9,.64,15.56,6.3,17.39,15.19a2.18,2.18,0,0,0,2.08,2,18.49,18.49,0,0,1,.06,36.35c-1.55.31-1.93,1-2.22,2.37A18.83,18.83,0,0,1,71.05,105,18.47,18.47,0,0,1,53,89.65C52.71,88,51.79,88,50.62,87.74A18.48,18.48,0,0,1,38.16,60a17.53,17.53,0,0,1,12.35-8.55c1.68-.3,2.28-.94,2.59-2.65C54.68,40.19,63.37,33.59,72,34.2ZM95.09,69.44a6.36,6.36,0,0,0-6.2-6.53c-1.25-.08-2.5,0-3.75,0-4.8,0-7.11-2.4-7.21-7.25a26.39,26.39,0,0,0-.4-5,6.19,6.19,0,0,0-6.74-5,6.53,6.53,0,0,0-6.25,6c-.11,1.41,0,2.83-.05,4.25,0,4.34-2.38,6.76-6.74,7-1.5.07-3-.05-4.5.12a6.3,6.3,0,0,0-5.92,6.77,6.42,6.42,0,0,0,6.34,6.16c1.41.09,2.83,0,4.25,0,3.9.08,6.34,2.43,6.55,6.36.08,1.41,0,2.84,0,4.25A6.69,6.69,0,0,0,77.87,87c.14-1.4,0-2.83.08-4.24.09-3.87,2.27-6.17,6.15-6.43,1.75-.12,3.51,0,5.24-.2A6.31,6.31,0,0,0,95.09,69.44Z"/>
  <path class="cls-1" d="M197.28,46.73a11.1,11.1,0,1,1-11.24-11A11,11,0,0,1,197.28,46.73Z"/>
  <path class="cls-1" d="M163.57,80.67a11.14,11.14,0,1,1,11.09-11.2A11.21,11.21,0,0,1,163.57,80.67Z"/>
  <path class="cls-1" d="M197.71,69.42a11.14,11.14,0,1,1,11,11.24A11.16,11.16,0,0,1,197.71,69.42Z"/>
  <path class="cls-1" d="M197.28,92.22A11.11,11.11,0,1,1,186.18,81,11.19,11.19,0,0,1,197.28,92.22Z"/>
  <path class="cls-2" d="M95.09,69.44a6.31,6.31,0,0,1-5.75,6.68c-1.73.2-3.49.08-5.24.2-3.88.26-6.06,2.56-6.15,6.43,0,1.41.06,2.84-.08,4.24a6.69,6.69,0,0,1-13.36-.44c-.06-1.41,0-2.84,0-4.25-.21-3.93-2.65-6.28-6.55-6.36-1.42,0-2.84,0-4.25,0a6.42,6.42,0,0,1-6.34-6.16A6.3,6.3,0,0,1,53.25,63c1.49-.17,3,0,4.5-.12,4.36-.2,6.69-2.62,6.74-7,0-1.42-.06-2.84.05-4.25a6.53,6.53,0,0,1,6.25-6,6.19,6.19,0,0,1,6.74,5,26.39,26.39,0,0,1,.4,5c.1,4.85,2.41,7.21,7.21,7.25,1.25,0,2.5,0,3.75,0A6.36,6.36,0,0,1,95.09,69.44Z"/>
</svg>
