<?xml version="1.0" encoding="utf-8"?>
<!-- Generator: Adobe Illustrator 26.0.1, SVG Export Plug-In . SVG Version: 6.00 Build 0)  -->
<svg version="1.1" id="Layer_1" xmlns="http://www.w3.org/2000/svg" xmlns:xlink="http://www.w3.org/1999/xlink" x="0px" y="0px"
	 viewBox="0 0 261.5 173.3" style="enable-background:new 0 0 261.5 173.3;" xml:space="preserve">
<style type="text/css">
	.st0{fill:#A6A6A6;}
</style>
<path class="st0" d="M2.4,117.5c0.5-4.6,0.9-9.3,1.5-13.9c3.1-23.8,8.2-47,19.4-68.4c4.9-9.6,11.2-18.2,19.9-24.8
	c7.9-6.2,18-9,28-7.8c9.8,1.2,19.5,3.5,29.2,5.4c9.2,1.8,18.2,4.2,27.5,5.2c5.7,0.6,11.8-0.6,17.5-1.7c11.8-2.4,23.4-5.5,35.1-7.9
	c9.7-2,19.4-2.1,28.8,1.8c8.4,3.4,14.7,9.4,20.2,16.4c10,12.9,15.6,27.8,20,43.3c6,20.9,9.5,42.1,9.2,63.9c-0.2,9.6-1,19.2-5.3,28
	c-5.1,10.5-14.1,15.1-25.6,13.2c-9.3-1.5-17.4-5.9-24.9-11.2c-7-5.1-14.2-10.1-20.3-16.2c-11.9-11.6-26.3-16.7-42.3-18.1
	c-13.7-1.2-27.2-0.1-40.2,4.4c-6.9,2.5-13.3,6.4-18.6,11.4c-8.7,8-17.8,15.5-27.9,21.6c-6.1,3.7-12.4,6.9-19.5,8.1
	c-12.4,2.2-22.3-3.3-27.1-15.1c-2.3-5.9-3.6-12.2-3.9-18.6c-0.1-1.3-0.3-2.6-0.5-3.9V117.5z M14.3,122.8c0,11.2,0.4,19,3,26.4
	s7.9,10.9,15.5,8.8c5.2-1.5,10.6-3.4,15-6.5c9.3-6.5,18.1-13.6,26.8-20.9c7.6-6.5,16.4-11.2,26-13.9c19.4-5.6,40.1-5.6,59.5,0
	c9.3,2.6,18,7.3,25.2,13.7c7.5,6.6,15.2,13,23.2,19c6.1,4.6,12.9,8.3,20.7,9.6c6.1,1,10.4-1,13.2-6.5c3.1-6.1,4-12.7,4.3-19.4
	c0.9-21.6-2.6-42.7-8.2-63.5c-3.8-14.1-9-27.6-17.8-39.4c-8.5-11.4-19.7-17.3-34-15.2c-10.4,1.6-20.7,3.7-30.8,6.4
	c-16.5,4.4-32.8,4.8-49.3,0.3c-10.3-2.8-20.7-5.1-31.2-6.8c-10.6-1.9-21.4,1.4-29.1,8.9c-7.5,7-12.4,15.7-16.3,25
	C20.2,72.2,14.9,97.3,14.3,122.8z"/>
<path class="st0" d="M72,34.2c9,0.6,15.6,6.3,17.4,15.2c0.1,1.1,1,2,2.1,2c10,1.9,16.7,11.5,14.8,21.5c-1.4,7.5-7.3,13.4-14.8,14.8
	c-1.6,0.3-1.9,1-2.2,2.4c-1.8,8.6-9.4,14.8-18.3,14.9c-8.9-0.1-16.5-6.5-18.1-15.3c-0.3-1.7-1.2-1.7-2.4-1.9
	c-10-1.9-16.7-11.5-14.8-21.5c0.4-2.2,1.2-4.3,2.4-6.2c2.6-4.6,7.2-7.7,12.4-8.5c1.7-0.3,2.3-0.9,2.6-2.7
	C54.7,40.2,63.4,33.6,72,34.2z M95.1,69.4c0.1-3.5-2.7-6.4-6.2-6.5c0,0,0,0,0,0c-1.2-0.1-2.5,0-3.8,0c-4.8,0-7.1-2.4-7.2-7.2
	c0-1.7-0.1-3.3-0.4-5c-0.6-3.2-3.5-5.3-6.7-5c-3.3,0.1-6,2.7-6.2,6c-0.1,1.4,0,2.8-0.1,4.2c0,4.3-2.4,6.8-6.7,7
	c-1.5,0.1-3,0-4.5,0.1c-3.5,0.2-6.1,3.2-5.9,6.7c0,0,0,0.1,0,0.1c0.1,3.4,2.9,6.1,6.3,6.2c1.4,0.1,2.8,0,4.2,0
	c3.9,0.1,6.3,2.4,6.5,6.4c0.1,1.4,0,2.8,0,4.2c-0.1,3.7,2.8,6.8,6.5,6.9c3.7,0.1,6.8-2.8,6.9-6.5l0,0c0.1-1.4,0-2.8,0.1-4.2
	c0.1-3.9,2.3-6.2,6.2-6.4c1.8-0.1,3.5,0,5.2-0.2C92.8,75.8,95.3,72.9,95.1,69.4z"/>
<path class="st0" d="M197.3,46.7c0.1,6.1-4.9,11.1-11,11.2c-6.1,0.1-11.1-4.9-11.2-11c-0.1-6.1,4.8-11.1,11-11.2
	c6.1-0.1,11.1,4.7,11.2,10.8C197.3,46.6,197.3,46.6,197.3,46.7z"/>
<path class="st0" d="M163.6,80.7c-6.2,0-11.2-4.9-11.2-11.1c0-6.2,4.9-11.2,11.1-11.2c6.1,0,11.2,4.9,11.2,11.1
	C174.7,75.6,169.7,80.6,163.6,80.7z"/>
<path class="st0" d="M197.7,69.4c0.1-6.2,5.1-11.1,11.2-11c6.2,0.1,11.1,5.1,11,11.2s-5.1,11.1-11.2,11c0,0,0,0,0,0
	C202.6,80.6,197.7,75.6,197.7,69.4z"/>
<path class="st0" d="M197.3,92.2c-0.1,6.1-5.1,11.1-11.2,11c-6.1-0.1-11.1-5.1-11-11.2c0.1-6.1,5-11,11.1-11
	C192.3,81,197.3,86.1,197.3,92.2z"/>
</svg>
