<?xml version="1.0" encoding="utf-8"?>
<!-- Generator: Adobe Illustrator 26.0.1, SVG Export Plug-In . SVG Version: 6.00 Build 0)  -->
<svg version="1.1" id="Layer_1" xmlns="http://www.w3.org/2000/svg" xmlns:xlink="http://www.w3.org/1999/xlink" x="0px" y="0px"
	 viewBox="0 0 204 297" style="enable-background:new 0 0 204 297;" xml:space="preserve">
<style type="text/css">
	.st0{fill:none;stroke:#A5A5AC;stroke-width:9;stroke-miterlimit:10;}
	.st1{fill:none;stroke:#A5A5AC;stroke-width:11;stroke-miterlimit:10;}
</style>
<circle class="st0" cx="105.1" cy="66.5" r="45.4"/>
<path class="st1" d="M167.4,281.6H42.9c-6.6,0-12-5.4-12-12V113.4c0-3.2,1.3-6.2,3.5-8.5c2.5-2.5,5.7-3.1,8.5-3.5
	c9.7-1.3,19.8-0.4,26.1,0.5c3.3,2.6,22,16.4,46.3,11.9c9.8-1.9,19-6.3,26.6-12.8c4-0.3,15.7-0.9,25.6,0.5c2.5,0.3,5.9,0.9,8.5,3.5
	c2.3,2.2,3.5,5.3,3.5,8.5v156.2C179.4,276.2,174.1,281.6,167.4,281.6L167.4,281.6z"/>
</svg>
