<svg xmlns="http://www.w3.org/2000/svg" viewBox="0 0 500 500">
  <defs>
    <style>
      .cls-1, .cls-2, .cls-3, .cls-4 {
        fill: none;
        stroke: #a5a5ac;
        stroke-miterlimit: 10;
        
      }

      .cls-1 {
        stroke-width: 14px;
      }

      .cls-2 {
        stroke-width: 9px;
      }

      .cls-3, .cls-4 {
        stroke-width: 8px;
      }

      .cls-4 {
        stroke-linecap: round;
      }
    </style>
  </defs>
  <g id="Layer_9" data-name="Layer 9">
    <rect class="cls-1" x="55.28" y="31.74" width="379.72" height="452.64" rx="12"/>
    <rect class="cls-2" x="211.43" y="5.6" width="67.41" height="101.81" rx="12"/>
    <circle class="cls-2" cx="245.14" cy="200.5" r="45.4"/>
    <path class="cls-3" d="M307.43,415.59H182.85a12,12,0,0,1-12-12V247.36a12,12,0,0,1,3.52-8.48c2.53-2.52,5.67-3.14,8.48-3.52,9.73-1.33,19.83-.39,26.06.46,3.33,2.55,22,16.36,46.32,11.92a56.81,56.81,0,0,0,26.6-12.84c4-.26,15.67-.88,25.6.46,2.52.34,5.9.94,8.48,3.52a12,12,0,0,1,3.52,8.48V403.59A12,12,0,0,1,307.43,415.59Z"/>
    <line class="cls-4" x1="126.36" y1="438.06" x2="363.92" y2="438.06"/>
    <line class="cls-4" x1="90.82" y1="458.69" x2="399.46" y2="458.69"/>
  </g>
</svg>
