<?xml version="1.0" encoding="utf-8"?>
<!-- Generator: Adobe Illustrator 26.0.1, SVG Export Plug-In . SVG Version: 6.00 Build 0)  -->
<svg version="1.1" id="Layer_1" xmlns="http://www.w3.org/2000/svg" xmlns:xlink="http://www.w3.org/1999/xlink" x="0px" y="0px"
	 viewBox="0 0 261.8 366.4" style="enable-background:new 0 0 261.8 366.4;" xml:space="preserve">
<style type="text/css">
	.st0{fill:#A5A5AC;}
	.st1{fill:#A6A6A6;}
	.st2{fill:#FFFFFF;}
	.st3{fill:none;stroke:#A6A6A6;stroke-width:17;stroke-miterlimit:10;}
</style>
<g id="unlock">
	<g>
		<g>
			<path class="st0" d="M-1969.9-488.8h-32.4v-77.1c0-77-62.5-139.6-139.4-139.6s-139.5,62.7-139.5,139.7c0,11.1,9,20.1,20.1,20.1
				s20.1-9,20.1-20.1c0-54.9,44.5-99.5,99.3-99.5s99.3,44.6,99.3,99.4v77.1h-270.8c-11.1,0-20.3,8.8-20.3,19.9V-236
				c0,27.7,22.7,50.2,50.4,50.2h283.1c27.7,0,50-22.5,50-50.2v-232.9C-1950-480-1958.8-488.8-1969.9-488.8z M-1990.1-236.1
				c0,5.5-4.4,10.1-9.9,10.1h-283.1c-5.5,0-10.3-4.5-10.3-10.1v-212.7h303.2v212.7H-1990.1z"/>
			<path class="st0" d="M-1555.8-150.6h-283.1c-13.4,0-26.1-5.2-35.6-14.7c-9.6-9.5-14.8-22.1-14.8-35.5v-232.9c0-11,9.1-20,20.3-20
				h270.7v-77c0-54.8-44.5-99.3-99.2-99.3s-99.2,44.6-99.2,99.4c0,11.1-9,20.2-20.2,20.2c-11.1,0-20.2-9-20.2-20.2
				c0-77.1,62.6-139.7,139.5-139.7s139.5,62.6,139.5,139.6v77h32.3c5.4,0,10.4,2.1,14.2,5.8c3.8,3.7,5.8,8.8,5.8,14.2v232.9
				c0,13.4-5.2,26-14.7,35.5C-1529.8-155.8-1542.4-150.6-1555.8-150.6z M-1868.9-453.5c-11.1,0-20.2,8.9-20.2,19.8v232.9
				c0,27.6,22.6,50.1,50.3,50.1h283.1c27.5,0,49.9-22.5,49.9-50.1v-232.9c0-11.1-8.7-19.8-19.8-19.8h-32.4v-77.2
				c0-76.9-62.5-139.5-139.3-139.5c-76.9,0-139.4,62.6-139.4,139.6c0,11,9,20,20,20s20-9,20-20c0-54.9,44.6-99.6,99.4-99.6
				s99.4,44.6,99.4,99.5v77.2L-1868.9-453.5L-1868.9-453.5z M-1555.8-190.7h-283.1c-5.6,0-10.3-4.6-10.3-10.1v-212.7h303.4v212.7
				C-1545.8-195.2-1550.3-190.7-1555.8-190.7z"/>
		</g>
		<g>
			<path class="st0" d="M-1697.5-242c11.1,0,20.1-9,20.1-20.1v-72.3c0-11.1-9-20.1-20.1-20.1s-20.1,9-20.1,20.1v72.3
				C-1717.5-251-1708.6-242-1697.5-242z"/>
			<path class="st0" d="M-1697.5-241.9c-11.1,0-20.1-9-20.1-20.2v-72.3c0-11.1,9-20.2,20.1-20.2s20.1,9,20.1,20.2v72.3
				C-1677.3-250.9-1686.4-241.9-1697.5-241.9z M-1697.5-354.3c-11,0-20,9-20,20v72.3c0,11,9,20,20,20s20-9,20-20v-72.3
				C-1677.5-345.4-1686.5-354.3-1697.5-354.3z"/>
		</g>
	</g>
</g>
<g id="Layer_1_00000155105653442351442870000007672476567571796912_">
</g>
<path class="st1" d="M-390,241.2c0.5-4.6,0.9-9.3,1.5-13.9c3.1-23.8,8.2-47,19.4-68.4c4.9-9.5,11.2-18.2,19.9-24.7
	c8.3-6.2,17.8-9,28-7.8c9.8,1.2,19.5,3.5,29.2,5.4c9.2,1.8,18.2,4.2,27.5,5.2c5.7,0.6,11.8-0.6,17.5-1.7c11.8-2.4,23.4-5.5,35.1-7.9
	c9.7-2,19.4-2.1,28.8,1.8c8.4,3.4,14.7,9.4,20.2,16.4c10,12.9,15.6,27.8,20.1,43.3c6,20.9,9.5,42.1,9.2,63.9c-0.2,9.6-1,19.2-5.3,28
	c-5.1,10.5-14.1,15.1-25.7,13.2c-9.3-1.5-17.4-5.9-24.9-11.2c-7-5-14.2-10.1-20.3-16.2c-11.9-11.6-26.3-16.7-42.3-18.1
	c-13.7-1.2-27.1-0.1-40.2,4.4c-7.1,2.4-13.1,6.4-18.6,11.4c-8.7,8-17.7,15.5-27.9,21.6c-6.1,3.7-12.4,6.9-19.5,8.1
	c-12.5,2.1-22.4-3.4-27.2-15.2c-2.4-5.9-3.5-12.2-3.9-18.5c-0.1-1.3-0.3-2.6-0.5-3.9C-390,251.2-390,246.2-390,241.2z M-378.1,246.5
	c0,11.2,0.4,18.9,3,26.4c2.7,7.5,7.9,10.9,15.5,8.8c5.2-1.5,10.6-3.4,15-6.5c9.3-6.5,18.1-13.6,26.8-20.9c7.8-6.5,16.4-11.2,26-13.9
	c19.8-5.6,39.7-5.7,59.5-0.1c9.4,2.7,17.8,7.2,25.2,13.7c7.5,6.6,15.2,13,23.2,19c6.1,4.6,12.9,8.3,20.7,9.6c6.1,1,10.4-1,13.2-6.5
	c3.1-6.1,4-12.7,4.3-19.4c0.9-21.6-2.6-42.7-8.2-63.5c-3.8-14.1-9-27.6-17.8-39.4c-8.5-11.4-19.7-17.3-34-15.2
	c-10.4,1.5-20.7,3.7-30.8,6.4c-16.5,4.3-32.8,4.8-49.4,0.3c-10.3-2.8-20.7-5.1-31.2-6.8c-10.9-1.8-20.8,1.1-29.1,8.9
	c-7.5,7-12.4,15.7-16.3,25C-372.7,197.1-377.6,223.1-378.1,246.5z"/>
<path d="M-320.3,157.9c9,0.6,15.6,6.3,17.4,15.2c0.3,1.4,0.9,1.7,2.1,2c8.9,1.8,15.1,9.4,15.1,18.3c0,8.8-6.2,16.3-15,18
	c-1.5,0.3-1.9,1-2.2,2.4c-1.8,8.6-9.7,15-18.3,14.9c-8.9-0.1-16.5-6.4-18.1-15.3c-0.3-1.6-1.2-1.7-2.4-1.9
	c-12.8-2.5-19.1-16.6-12.5-27.8c2.8-4.7,7-7.6,12.3-8.6c1.7-0.3,2.3-0.9,2.6-2.6C-337.7,163.9-329,157.3-320.3,157.9z M-297.3,193.1
	c0-3.6-2.5-6.3-6.2-6.5c-1.2-0.1-2.5,0-3.7,0c-4.8,0-7.1-2.4-7.2-7.3c0-1.7-0.1-3.3-0.4-5c-0.7-3.3-3.4-5.3-6.7-5
	c-3.4,0.2-6,2.7-6.2,6c-0.1,1.4,0,2.8-0.1,4.2c-0.1,4.3-2.4,6.8-6.7,7c-1.5,0.1-3-0.1-4.5,0.1c-3.8,0.4-6.1,3.1-5.9,6.8
	c0.1,3.4,2.7,6,6.3,6.2c1.4,0.1,2.8,0,4.2,0c3.9,0.1,6.3,2.4,6.6,6.4c0.1,1.4,0,2.8,0,4.2c0.2,3.9,2.7,6.5,6.5,6.5
	c3.8,0.1,6.5-2.3,6.9-6.1c0.1-1.4,0-2.8,0.1-4.2c0.1-3.9,2.3-6.2,6.2-6.4c1.7-0.1,3.5,0,5.2-0.2
	C-299.4,199.4-297.2,196.7-297.3,193.1z"/>
<path d="M-195.1,170.4c0.1,6.2-4.8,11.2-11,11.2c-6.2,0.1-11.2-4.8-11.2-11c-0.1-6.2,4.8-11.2,11-11.2S-195.1,164.3-195.1,170.4z"/>
<path d="M-228.8,204.4c-6.1,0-11.2-4.9-11.2-11.1c0-6.1,5-11.2,11.1-11.2s11.2,5,11.2,11.1S-222.6,204.3-228.8,204.4z"/>
<path d="M-194.6,193.1c0.1-6.1,5.1-11.1,11.3-11c6.1,0,11.1,5.1,11,11.3c-0.1,6.1-5.1,11.1-11.3,11S-194.7,199.3-194.6,193.1z"/>
<path d="M-195.1,215.9c0,6.1-5,11.2-11.1,11.2s-11.1-5-11.1-11.2s5-11.2,11.1-11.2C-200.1,204.8-195.1,209.8-195.1,215.9z"/>
<path class="st2" d="M-297.3,193.1c0,3.6-2.2,6.2-5.7,6.7c-1.7,0.2-3.5,0.1-5.2,0.2c-3.9,0.3-6.1,2.6-6.2,6.4c0,1.4,0.1,2.8-0.1,4.2
	c-0.4,3.8-3.1,6.2-6.9,6.1c-3.7-0.1-6.3-2.7-6.5-6.5c-0.1-1.4,0-2.8,0-4.2c-0.2-3.9-2.7-6.3-6.6-6.4c-1.4,0-2.8,0-4.2,0
	c-3.6-0.2-6.2-2.8-6.3-6.2c-0.1-3.6,2.2-6.3,5.9-6.8c1.5-0.2,3,0,4.5-0.1c4.4-0.2,6.7-2.6,6.7-7c0-1.4-0.1-2.8,0.1-4.2
	c0.3-3.4,2.9-5.8,6.2-6c3.3-0.2,6.1,1.7,6.7,5c0.3,1.6,0.4,3.3,0.4,5c0.1,4.9,2.4,7.2,7.2,7.3c1.2,0,2.5,0,3.7,0
	C-299.8,186.8-297.3,189.5-297.3,193.1z"/>
<path class="st1" d="M-471,311.2c0-3-0.1-5.6,0-8.1c0.4-14.9-0.4-30,1.4-44.8c5.2-42.6,40.7-78,83.2-84.1
	c54.5-7.9,103.4,26.5,113.8,80.5c1.6,8.2,1.6,16.9,1.8,25.3c0.3,10.2,0.1,20.4,0.1,31.2c3.5,0,6.8,0,10.1,0
	c12.3,0,20.6,8.1,20.6,20.3c0,62.5,0,125,0,187.5c0,12.1-8.3,20.4-20.6,20.4c-73.6,0-147.2,0-220.8,0c-12.1-0.1-20.4-8.4-20.4-20.6
	c0-62.4,0-124.8,0-187.1c0-12.4,8.3-20.5,20.8-20.5C-477.8,311.2-474.6,311.2-471,311.2z"/>
<path class="st3" d="M130.9,356.2c36.3,0,72.6,0,108.9,0c8.9,0,11.9-3,11.9-11.9c0-61.4,0-122.7,0-184.1c0-8.8-3.2-12-11.9-12
	c-15.4,0-30.9,0-46.3,0c-57.1,0-114.2,0-171.3,0c-8.7,0-11.9,3.2-11.9,12c0,61.4,0,122.7,0,184.1c0,8.9,3,11.9,11.8,11.9
	C58.3,356.2,94.6,356.2,130.9,356.2z"/>
<path class="st1" d="M220.9,148.2c0-13.9,0.3-27.4-0.1-40.8c-1.1-44-34.2-80.6-78-86.4C89.2,13.9,41.8,54.8,41,108.9
	c-0.2,12.2,0,24.4,0,36.7c0,0.8,0.1,1.7,0.2,2.5c6,0,11.8,0,17.8,0c0-13-0.1-25.7,0-38.5c0.4-39.6,31.5-70.8,71.1-71.5
	c38.8-0.6,71.2,29.7,72.8,68.5c0.5,12,0.2,23.9,0.2,35.9c0,1.8,0,3.7,0,5.7C209.2,148.2,214.9,148.2,220.9,148.2z"/>
<path class="st3" d="M112.6,274.5c0-2.1-0.2-4.3,0-6.4c0.7-7-0.9-12.4-6.3-18.1c-12.7-13.3-10.5-34.3,3.6-46.3
	c13.8-11.7,34.3-9.9,46.2,4c11.7,13.7,10,34.6-4,46.2c-2.1,1.7-2.7,3.4-2.7,6c0.1,9.8,0.2,19.7,0,29.5c-0.1,7.7-3.6,13.7-10.7,17
	c-6.7,3.1-13.2,2.3-19-2.1c-4.9-3.7-7.1-8.9-7.1-15C112.6,284.5,112.6,279.5,112.6,274.5L112.6,274.5z"/>
</svg>
