<svg id="Layer_1" data-name="Layer 1" xmlns="http://www.w3.org/2000/svg" viewBox="0 0 261.84 366.39">
  <defs>
    <style>
      .cls-1 {
        fill: #a6a6a6;
      }
    </style>
  </defs>
  <path class="cls-1" d="M30.8,138.17c0-3-.05-5.56,0-8.15.38-15-.38-30,1.42-44.82,5.19-42.64,40.69-78,83.15-84.08,54.51-7.86,103.38,26.53,113.83,80.51,1.6,8.25,1.6,16.85,1.84,25.3.3,10.22.07,20.45.07,31.24h10.1c12.25,0,20.58,8.12,20.59,20.3q.06,93.76,0,187.51c0,12.14-8.34,20.38-20.58,20.38q-110.4.06-220.81,0C8.26,366.35,0,358,0,345.79Q0,252.24,0,158.66C0,146.25,8.3,138.2,20.8,138.17Zm100.11,218H239.79c8.86,0,11.86-3,11.86-11.93q0-92,0-184.09c0-8.79-3.18-12-11.9-12q-23.17,0-46.34,0-85.66,0-171.32,0c-8.74,0-11.91,3.2-11.91,12v184.1c0,8.94,3,11.94,11.84,11.94ZM68.23,137.9h124.2c0-15.58,1.24-31-.26-46.17-2.95-29.68-28.76-52.72-58.33-53.8-30.78-1.12-58.63,19.81-63.29,49.68C68,104,68.9,120.87,68.23,137.9Zm152.66.09c0-13.9.28-27.37,0-40.83A89.93,89.93,0,0,0,41,98.72c-.17,12.22,0,24.45,0,36.67,0,.84.12,1.67.18,2.46H58.94c0-13-.12-25.74,0-38.46a72,72,0,0,1,143.92-3c.5,12,.16,23.94.2,35.92,0,1.84,0,3.68,0,5.69Z"/>
  <path class="cls-1" d="M112.56,274.54c0-2.11-.17-4.25,0-6.35.68-7-.94-12.42-6.33-18.05-12.69-13.27-10.47-34.35,3.58-46.28A32.81,32.81,0,0,1,152.12,254a6.78,6.78,0,0,0-2.7,6c.13,9.84.17,19.69,0,29.53-.13,7.75-3.56,13.73-10.72,17-6.65,3.07-13.15,2.32-19-2.14-4.89-3.72-7.08-8.87-7.12-15,0-5,0-10,0-15Zm10.12-2.81h0c0,5.6,0,11.21,0,16.82,0,6,3.33,9.82,8.4,9.77,4.92-.05,8.19-3.77,8.21-9.55,0-10.84.19-21.69-.08-32.52-.1-4,1.06-6.39,4.5-8.51,9.07-5.6,12.49-17.74,8.23-27.68a22.73,22.73,0,0,0-25.67-13.37c-9.15,2.08-16.25,9.35-17.72,18.15-1.6,9.62,2.34,18.31,10.8,23.58a6.37,6.37,0,0,1,3.39,6.11C122.57,260.26,122.68,266,122.68,271.73Z"/>
</svg>
