<svg xmlns="http://www.w3.org/2000/svg" viewBox="0 0 500 500">
  <defs>
    <style>
      .cls-1 {
        fill: #cacefc;
      }

      .cls-2 {
        fill: #6259fa;
      }

      .cls-3 {
        fill: #fff;
      }
    </style>
  </defs>
  <g id="Layer_6" data-name="Layer 6">
    <g>
      <path class="cls-1" d="M250,482.52A232.51,232.51,0,0,1,85.59,85.59,232.51,232.51,0,1,1,414.41,414.41,231,231,0,0,1,250,482.52Z"/>
      <path class="cls-2" d="M250,28.48a221.58,221.58,0,0,1,86.22,425.64A221.58,221.58,0,0,1,163.78,45.88,220.24,220.24,0,0,1,250,28.48m0-22C115.51,6.48,6.48,115.51,6.48,250S115.51,493.52,250,493.52,493.52,384.49,493.52,250,384.49,6.48,250,6.48Z"/>
    </g>
    <g>
      <polygon class="cls-3" points="250 338 165.49 382.43 181.63 288.32 113.25 221.67 207.74 207.94 250 122.32 292.26 207.94 386.75 221.67 318.37 288.32 334.51 382.43 250 338"/>
      <path class="cls-2" d="M250,147.17l29.83,60.45L285,218l11.45,1.66,66.71,9.69-48.27,47.06-8.29,8.07,2,11.4,11.4,66.44L260.24,331,250,325.57,239.76,331l-59.67,31.37,11.4-66.44,2-11.4-8.29-8.07-48.27-47.06,66.71-9.69L215.05,218l5.12-10.38L250,147.17m0-49.71L200.44,197.89,89.61,214l80.2,78.17L150.88,402.54,250,350.42l99.12,52.12L330.19,292.16,410.39,214l-110.83-16.1L250,97.46Z"/>
    </g>
  </g>
</svg>
