<?xml version="1.0" encoding="utf-8"?>
<!-- Generator: Adobe Illustrator 26.0.1, SVG Export Plug-In . SVG Version: 6.00 Build 0)  -->
<svg version="1.1" id="Layer_1" xmlns="http://www.w3.org/2000/svg" xmlns:xlink="http://www.w3.org/1999/xlink" x="0px" y="0px"
	 viewBox="0 0 500 500" style="enable-background:new 0 0 500 500;" xml:space="preserve">
<style type="text/css">
	.st0{fill:#6259FA;}
	.st1{fill:#FFFFFF;}
</style>
<path class="st0" d="M250,28.5c122.4,0.1,221.5,99.3,221.4,221.7c-0.1,89-53.3,169.3-135.2,203.9C223.5,501.7,93.5,449,45.9,336.2
	S51,93.5,163.8,45.9C191.1,34.3,220.4,28.4,250,28.5 M250,6.5C115.5,6.5,6.5,115.5,6.5,250s109,243.5,243.5,243.5
	s243.5-109,243.5-243.5S384.5,6.5,250,6.5z"/>
<path class="st1" d="M250,147.2l29.8,60.4L285,218l11.5,1.7l66.7,9.7l-48.3,47.1l-8.3,8.1l2,11.4l11.4,66.4L260.2,331l-10.2-5.4
	l-10.2,5.4l-59.7,31.4l11.4-66.4l2-11.4l-8.3-8.1l-48.3-47.1l66.7-9.7l11.4-1.7l5.1-10.4L250,147.2 M250,97.5l-49.6,100.4L89.6,214
	l80.2,78.2l-18.9,110.4l99.1-52.1l99.1,52.1l-18.9-110.4l80.2-78.2l-110.8-16.1L250,97.5z"/>
</svg>
