<?xml version="1.0" encoding="utf-8"?>
<!-- Generator: Adobe Illustrator 26.0.1, SVG Export Plug-In . SVG Version: 6.00 Build 0)  -->
<svg version="1.1" id="Layer_1" xmlns="http://www.w3.org/2000/svg" xmlns:xlink="http://www.w3.org/1999/xlink" x="0px" y="0px"
	 viewBox="0 0 500 500" style="enable-background:new 0 0 500 500;" xml:space="preserve">
<style type="text/css">
	.st0{fill:#6259FA;stroke:#6259FA;stroke-miterlimit:10;}
	.st1{fill:#FFFFFF;}
	.st2{fill:none;stroke:#FFFFFF;stroke-width:13;stroke-miterlimit:10;}
	.st3{fill:none;stroke:#FFFFFF;stroke-width:14.47;stroke-linecap:round;stroke-linejoin:round;}
</style>
<path class="st0" d="M250,25.7c122.4,0.1,221.5,99.4,221.4,221.8c-0.1,88.9-53.3,169.2-135.2,203.9C223.5,499,93.5,446.2,45.9,333.5
	S51,90.7,163.8,43.1C191.1,31.6,220.4,25.7,250,25.7 M250,3.7C115.5,3.7,6.5,112.7,6.5,247.2s109,243.5,243.5,243.5
	s243.5-109,243.5-243.5S384.5,3.7,250,3.7z"/>
<path class="st1" d="M252.8,120.8c55.1,0,99.8,44.7,99.8,99.9s-44.7,99.8-99.9,99.8c-15.3,0-30.3-3.5-44-10.2
	c-16.2-8.5-29.9-21-39.8-36.4c-10.6-16.4-16.1-34.7-15.9-53.1c0.2-24.7,10.7-49.8,28.6-68.8C200.6,131.8,225.9,120.8,252.8,120.8
	 M252.8,107.8c-65.1,0-112.3,56.3-112.8,112.8c-0.4,43.9,27.4,83.1,62.8,101.2c55.9,27.6,123.5,4.7,151.1-51.2s4.7-123.5-51.2-151.1
	C287.2,111.8,270.1,107.8,252.8,107.8L252.8,107.8z"/>
<path class="st2" d="M206,430.7c0.7-37.6,1.4-75.2,2.1-112.8c27,16.2,60.6,16.7,88,1.4c-0.5,36.5-0.9,72.9-1.4,109.4l-42-39.2
	L206,430.7z"/>
<path class="st3" d="M201.9,226.6l41.9,50L322,169.8"/>
</svg>
