<svg xmlns="http://www.w3.org/2000/svg" viewBox="0 0 500 500">
  <defs>
    <style>
      .cls-1 {
        fill: #cacefc;
      }

      .cls-2 {
        fill: #6259fa;
      }

      .cls-3, .cls-4, .cls-5 {
        fill: #fff;
      }

      .cls-4, .cls-5 {
        stroke: #6259fa;
      }

      .cls-4 {
        stroke-miterlimit: 10;
        stroke-width: 13px;
      }

      .cls-5 {
        stroke-linecap: round;
        stroke-linejoin: round;
        stroke-width: 14.47px;
      }
    </style>
  </defs>
  <g id="Layer_7" data-name="Layer 7">
    <g>
      <path class="cls-1" d="M250,479.76A232.51,232.51,0,0,1,85.59,82.83,232.51,232.51,0,1,1,414.41,411.66,231,231,0,0,1,250,479.76Z"/>
      <path class="cls-2" d="M250,25.73a221.59,221.59,0,0,1,86.22,425.64A221.58,221.58,0,0,1,163.78,43.13,220.24,220.24,0,0,1,250,25.73m0-22c-134.49,0-243.52,109-243.52,243.52S115.51,490.76,250,490.76s243.52-109,243.52-243.51S384.49,3.73,250,3.73Z"/>
    </g>
    <g>
      <path class="cls-3" d="M252.78,326.91a106.48,106.48,0,0,1-47-10.94c-35.8-18.27-59.62-56.57-59.27-95.31.46-51.37,43.29-106.38,106.31-106.38a106.32,106.32,0,1,1,0,212.63Z"/>
      <path class="cls-2" d="M252.78,120.78a99.82,99.82,0,1,1-44.09,189.4,105.46,105.46,0,0,1-39.82-36.38c-10.57-16.38-16.07-34.73-15.9-53.08.22-24.71,10.66-49.78,28.63-68.78,19-20.09,44.29-31.16,71.18-31.16m0-13c-65.08,0-112.3,56.33-112.81,112.82-.4,43.86,27.41,83.09,62.81,101.16a112.83,112.83,0,1,0,50-214Z"/>
    </g>
    <path class="cls-4" d="M206,430.72q1-56.42,2.06-112.82a88,88,0,0,0,88.05,1.38q-.69,54.69-1.37,109.38l-42-39.21Z"/>
    <path class="cls-5" d="M201.88,226.64l41.93,50L322,169.78"/>
  </g>
</svg>
