<?xml version="1.0" encoding="utf-8"?>
<!-- Generator: Adobe Illustrator 26.0.1, SVG Export Plug-In . SVG Version: 6.00 Build 0)  -->
<svg version="1.1" id="Layer_1" xmlns="http://www.w3.org/2000/svg" xmlns:xlink="http://www.w3.org/1999/xlink" x="0px" y="0px"
	 viewBox="0 0 500 500" style="enable-background:new 0 0 500 500;" xml:space="preserve">
<style type="text/css">
	.st0{fill:#6259FA;}
	.st1{fill:#FFFFFF;stroke:#FFFFFF;stroke-width:7;stroke-miterlimit:10;}
	.st2{fill:none;stroke:#FFFFFF;stroke-width:14;stroke-miterlimit:10;}
	.st3{fill:#FFFFFF;}
</style>
<path class="st0" d="M248.6,29.9C371,29.9,470.1,129.2,470,251.6c-0.1,88.9-53.3,169.2-135.2,203.9c-113,46.9-242.7-6.6-289.6-119.6
	C-1.3,223.8,50.9,95.1,162.4,47.3C189.7,35.7,219,29.8,248.6,29.9 M248.6,7.9C114.1,7.9,5.1,116.9,5.1,251.4s109,243.5,243.5,243.5
	s243.5-109,243.5-243.5S383.1,7.9,248.6,7.9z"/>
<path class="st1" d="M70.5,125.8l180.9,123.4L441,148.9c-5.7-13.7-13.9-26.1-24.3-36.7L250.5,222.5L98.2,93.9
	c-4.5,4.4-9.2,9.2-14,14.7C79,114.5,74.5,120.3,70.5,125.8z"/>
<circle class="st2" cx="249.6" cy="340.8" r="94.5"/>
<path class="st3" d="M258.2,307.9v74.2h-17.8v-49H222v-12.6h5.6c4.4,0,8-1.2,10.6-3.6c2.6-2.4,4.4-5.5,5.1-9L258.2,307.9z"/>
</svg>
