<svg xmlns="http://www.w3.org/2000/svg" viewBox="0 0 500 500">
  <defs>
    <style>
      .cls-1 {
        fill: #cacefc;
      }

      .cls-2 {
        fill: #6259fa;
      }

      .cls-3 {
        fill: #fff;
        stroke: #fff;
        stroke-width: 7px;
      }

      .cls-3, .cls-4 {
        stroke-miterlimit: 10;
      }

      .cls-4 {
        fill: none;
        stroke: #6259fa;
        stroke-width: 14px;
      }
    </style>
  </defs>
  <g id="Layer_8" data-name="Layer 8">
    <g>
      <path class="cls-1" d="M248.62,483.89A232.52,232.52,0,0,1,84.21,87,232.52,232.52,0,0,1,413,415.79,231,231,0,0,1,248.62,483.89Z"/>
      <path class="cls-2" d="M248.62,29.86a221.58,221.58,0,0,1,86.22,425.63A221.58,221.58,0,0,1,162.41,47.26a220,220,0,0,1,86.21-17.4m0-22c-134.49,0-243.51,109-243.51,243.52s109,243.51,243.51,243.51,243.52-109,243.52-243.51S383.11,7.86,248.62,7.86Z"/>
    </g>
    <path class="cls-3" d="M70.49,125.75,251.41,249.11,441,148.91a116.48,116.48,0,0,0-24.31-36.69L250.49,222.52,98.24,93.88c-4.52,4.36-9.23,9.24-14,14.67C79,114.49,74.48,120.28,70.49,125.75Z"/>
    <circle class="cls-4" cx="249.57" cy="340.83" r="94.47"/>
    <path class="cls-2" d="M258.18,307.91v74.2H240.37v-49H222V320.52h5.62q6.67,0,10.6-3.65a17,17,0,0,0,5.09-9Z"/>
  </g>
</svg>
