<svg xmlns="http://www.w3.org/2000/svg" viewBox="0 0 8981.2 4112.71">
  <defs>
    <style>
      .cls-1 {
        fill: none;
        stroke: #f8ddce;
        stroke-miterlimit: 10;
        stroke-width: 33.84px;
      }
    </style>
  </defs>
  <g id="Layer_2" data-name="Layer 2">
    <g>
      <rect class="cls-1" x="1776.62" y="100.28" width="1353.78" height="440.25" rx="220.13"/>
      <rect class="cls-1" x="3267.98" y="100.28" width="1353.78" height="440.25" rx="220.13"/>
      <rect class="cls-1" x="4759.35" y="100.28" width="1353.78" height="440.25" rx="220.13"/>
      <rect class="cls-1" x="6250.71" y="100.28" width="1353.78" height="440.25" rx="220.13"/>
      <rect class="cls-1" x="7742.07" y="100.28" width="1353.78" height="440.25" rx="220.13"/>
    </g>
    <g>
      <rect class="cls-1" x="1031.84" y="670.88" width="1353.78" height="440.25" rx="220.13"/>
      <rect class="cls-1" x="2521.37" y="670.88" width="1353.78" height="440.25" rx="220.13"/>
      <rect class="cls-1" x="4010.89" y="670.88" width="1353.78" height="440.25" rx="220.13"/>
      <rect class="cls-1" x="5500.42" y="670.88" width="1353.78" height="440.25" rx="220.13"/>
      <rect class="cls-1" x="6989.95" y="670.88" width="1353.78" height="440.25" rx="220.13"/>
      <rect class="cls-1" x="8479.48" y="670.88" width="1353.78" height="440.25" rx="220.13"/>
    </g>
    <g>
      <rect class="cls-1" x="195.35" y="1241.48" width="1353.78" height="440.25" rx="220.13"/>
      <rect class="cls-1" x="1684.88" y="1241.48" width="1353.78" height="440.25" rx="220.13"/>
      <rect class="cls-1" x="3174.41" y="1241.48" width="1353.78" height="440.25" rx="220.13"/>
      <rect class="cls-1" x="4663.94" y="1241.48" width="1353.78" height="440.25" rx="220.13"/>
      <rect class="cls-1" x="6153.47" y="1241.48" width="1353.78" height="440.25" rx="220.13"/>
      <rect class="cls-1" x="7643" y="1241.48" width="1353.78" height="440.25" rx="220.13"/>
    </g>
    <g>
      <rect class="cls-1" x="1046.51" y="1812.09" width="1353.78" height="440.25" rx="220.13"/>
      <rect class="cls-1" x="2536.04" y="1812.09" width="1353.78" height="440.25" rx="220.13"/>
      <rect class="cls-1" x="4025.57" y="1812.09" width="1353.78" height="440.25" rx="220.13"/>
      <rect class="cls-1" x="5515.1" y="1812.09" width="1353.78" height="440.25" rx="220.13"/>
      <rect class="cls-1" x="7004.63" y="1812.09" width="1353.78" height="440.25" rx="220.13"/>
      <rect class="cls-1" x="8494.16" y="1812.09" width="1353.78" height="440.25" rx="220.13"/>
    </g>
    <g>
      <rect class="cls-1" x="226.54" y="2382.69" width="1353.78" height="440.25" rx="220.13"/>
      <rect class="cls-1" x="1716.07" y="2382.69" width="1353.78" height="440.25" rx="220.13"/>
      <rect class="cls-1" x="3205.6" y="2382.69" width="1353.78" height="440.25" rx="220.13"/>
      <rect class="cls-1" x="4695.12" y="2382.69" width="1353.78" height="440.25" rx="220.13"/>
      <rect class="cls-1" x="6184.65" y="2382.69" width="1353.78" height="440.25" rx="220.13"/>
      <rect class="cls-1" x="7674.18" y="2382.69" width="1353.78" height="440.25" rx="220.13"/>
    </g>
    <g>
      <rect class="cls-1" x="982.31" y="2953.29" width="1353.78" height="440.25" rx="220.13"/>
      <rect class="cls-1" x="2471.84" y="2953.29" width="1353.78" height="440.25" rx="220.13"/>
      <rect class="cls-1" x="3961.37" y="2953.29" width="1353.78" height="440.25" rx="220.13"/>
      <rect class="cls-1" x="5450.89" y="2953.29" width="1353.78" height="440.25" rx="220.13"/>
      <rect class="cls-1" x="6940.42" y="2953.29" width="1353.78" height="440.25" rx="220.13"/>
      <rect class="cls-1" x="8429.95" y="2953.29" width="1353.78" height="440.25" rx="220.13"/>
    </g>
    <g>
      <rect class="cls-1" x="1754.59" y="3523.89" width="1353.78" height="440.25" rx="220.13"/>
      <rect class="cls-1" x="3244.12" y="3523.89" width="1353.78" height="440.25" rx="220.13"/>
      <rect class="cls-1" x="4733.65" y="3523.89" width="1353.78" height="440.25" rx="220.13"/>
      <rect class="cls-1" x="6223.18" y="3523.89" width="1353.78" height="440.25" rx="220.13"/>
      <rect class="cls-1" x="7712.7" y="3523.89" width="1353.78" height="440.25" rx="220.13"/>
    </g>
  </g>
</svg>
