<svg xmlns="http://www.w3.org/2000/svg" viewBox="0 0 8460.36 1348.9">
  <defs>
    <style>
      .cls-1, .cls-5 {
        fill: #e3e3e5;
      }

      .cls-1, .cls-3 {
        stroke: #e3e3e5;
        stroke-width: 19px;
      }

      .cls-1, .cls-2, .cls-3 {
        stroke-linecap: round;
        stroke-miterlimit: 10;
      }

      .cls-2 {
        fill: #6259fa;
        stroke: #6259fa;
        stroke-width: 15.59px;
      }

      .cls-3 {
        fill: #16162a;
      }

      .cls-4 {
        fill: #fff;
      }
    </style>
  </defs>
  <g id="Layer_10" data-name="Layer 10">
    <line id="background-line" class="cls-1" x1="47.76" y1="363.87" x2="8412.6" y2="363.87"/>
    <line id="progress-line" class="cls-2" x1="49.76" y1="363.21" x2="1049.76" y2="363.21"/>
    <g>
      <g>
        <circle class="cls-3" cx="934.43" cy="394.14" r="286.17"/>
        <path class="cls-4" d="M969.8,294.43v175h-42V353.93H884.55V324.18H897.8q15.75,0,25-8.62a39.9,39.9,0,0,0,12-21.13Z"/>
        <g>
          <path class="cls-5" d="M561.23,826.73q22.6,0,35,11.5t12.4,31.7q0,20.4-12.4,31.9t-35,11.5H519v56.2H501V826.73Zm-2.6,71.2q15.2,0,23.4-7.1t8.2-20.9q0-13.8-8.2-20.9t-23.4-7.1H519v56Z"/>
          <path class="cls-5" d="M723.23,939.53a48.1,48.1,0,0,1-15.8,23.1q-11.4,9.3-31.4,9.3a47,47,0,0,1-25.2-6.8,45.6,45.6,0,0,1-17.1-19.3q-6.11-12.5-6.1-28.9t6-28.9a45.11,45.11,0,0,1,16.9-19.3q10.9-6.79,25.3-6.8a47.68,47.68,0,0,1,25.9,7.1,45.39,45.39,0,0,1,17.3,20.4q6,13.3,5,31.5h-79.4q.4,16.61,9,26.9t22.4,10.3q12.79,0,20.1-6.2a32.41,32.41,0,0,0,10.1-14.6Zm-68.9-54.6q-8.1,9.2-9.3,22.8h61.8q-1.2-13.61-9.4-22.8t-21.6-9.2Q662.44,875.73,654.33,884.93Z"/>
          <path class="cls-5" d="M753.43,864.33h16v18h.6a33.57,33.57,0,0,1,12.8-14.9,36.65,36.65,0,0,1,20.2-5.5,50.46,50.46,0,0,1,9,.8v16.2q-6.6-.6-9.8-.6-14.6,0-23.3,9t-8.7,27.6v54.6h-16.8Z"/>
          <path class="cls-5" d="M899.83,894.93a23.31,23.31,0,0,0-9.4-14.5,28.82,28.82,0,0,0-17.2-5.3q-10.41,0-16.6,4.6a14.63,14.63,0,0,0-6.2,12.4q0,7,5.6,10.2t16,5l11.2,1.8q16.39,2.8,25.5,9.1t9.1,21.1q0,15.6-12.1,24.1t-31.1,8.5q-19,0-31.3-9a34.78,34.78,0,0,1-14.5-23.8l15.4-3.4q2.19,11.21,10.4,17.1t20.2,5.9q11.4,0,18.6-5.1a16,16,0,0,0,7.2-13.7q0-7.6-5.9-11t-17.9-5.6l-11-2q-15-2.6-23.8-8.8t-8.8-20.2a26.17,26.17,0,0,1,5.1-15.8,32.45,32.45,0,0,1,14.3-10.8,54.08,54.08,0,0,1,20.8-3.8,48.86,48.86,0,0,1,19.9,4,40,40,0,0,1,14.8,10.8,31.24,31.24,0,0,1,7.1,14.8Z"/>
          <path class="cls-5" d="M1016.13,868.73a45.7,45.7,0,0,1,17.5,19.2q6.19,12.41,6.2,29t-6.2,29a45.7,45.7,0,0,1-17.5,19.2q-11.31,6.79-26.1,6.8t-26.1-6.8a45.58,45.58,0,0,1-17.5-19.2q-6.21-12.4-6.2-29t6.2-29a45.58,45.58,0,0,1,17.5-19.2q11.3-6.79,26.1-6.8T1016.13,868.73Zm-2.4,78.3q8.89-11.1,8.9-30.1t-8.9-30.1q-8.91-11.1-23.7-11.1t-23.7,11.1q-8.91,11.1-8.9,30.1t8.9,30.1q8.89,11.1,23.7,11.1T1013.73,947Z"/>
          <path class="cls-5" d="M1085,864.33v15h.6a33.23,33.23,0,0,1,13.6-12.8,41.63,41.63,0,0,1,19.6-4.6q16.2,0,26.8,9.6t10.6,27.8v70.2h-16.8v-64.4q0-15.2-6.1-22.1t-18.9-6.9a26.68,26.68,0,0,0-24.6,15.5q-4,7.9-4,19.5v58.4H1069V864.33Z"/>
          <path class="cls-5" d="M1278.82,955.33v14.2c-1.73.66-5.13,1-10.2,1q-8.2,0-12.5-3.4t-5.1-10.6h-.6a31,31,0,0,1-15.2,11.7,56.88,56.88,0,0,1-20.2,3.7,35.4,35.4,0,0,1-16.4-3.8,29.49,29.49,0,0,1-11.8-10.9,30.33,30.33,0,0,1-4.4-16.3q0-16.39,10.9-23.7t31.9-9.9a125.53,125.53,0,0,0,15.8-2.9q5.4-1.5,7.5-3.7a8.34,8.34,0,0,0,2.1-6q0-8.81-5.6-13.8t-17.4-5a28.92,28.92,0,0,0-16.1,4.6q-7.1,4.61-9.9,15l-15.4-3.8q3.6-14.4,14.9-22.1t27.1-7.7q20.21,0,29.7,8.8t9.5,23.6v55.2q0,3.79,1.4,5.3a5.2,5.2,0,0,0,4,1.5A18.78,18.78,0,0,0,1278.82,955.33Zm-28.2-42q-2.2,2.59-8.5,4t-18.5,3a38.39,38.39,0,0,0-17,6.3q-7,4.9-7,14.1,0,8.21,5,12.9t13.6,4.7a39.59,39.59,0,0,0,15-3,28.26,28.26,0,0,0,12.4-9.9q5-6.9,5-17.9Z"/>
          <path class="cls-5" d="M1318,969.53h-16.8V824.73H1318Z"/>
          <path class="cls-5" d="M414.73,1058.93h-17.2v-19.2h17.2Zm-.2,125.6h-16.8v-105.2h16.8Z"/>
          <path class="cls-5" d="M465.93,1079.33v15h.6a33.16,33.16,0,0,1,13.6-12.8,41.63,41.63,0,0,1,19.6-4.6q16.2,0,26.8,9.6t10.6,27.8v70.2h-16.8v-64.4q0-15.2-6.1-22.1t-18.9-6.9a26.68,26.68,0,0,0-24.6,15.5q-4,7.9-4,19.5v58.4h-16.8v-105.2Z"/>
          <path class="cls-5" d="M596.53,1054.13q-3.79,2.59-3.8,10.8v14.4h24.2v13h-24.2v92.2h-16.8v-92.2h-17.6v-13h17.6v-16q0-26,28.4-26,9.79,0,15.4,2v13.8a57.64,57.64,0,0,0-12.8-1.6Q600.33,1051.53,596.53,1054.13Z"/>
          <path class="cls-5" d="M708.63,1083.73a45.64,45.64,0,0,1,17.5,19.2q6.2,12.4,6.2,29t-6.2,29a45.64,45.64,0,0,1-17.5,19.2q-11.29,6.8-26.1,6.8t-26.1-6.8a45.64,45.64,0,0,1-17.5-19.2q-6.2-12.4-6.2-29t6.2-29a45.64,45.64,0,0,1,17.5-19.2q11.3-6.8,26.1-6.8T708.63,1083.73Zm-2.4,78.3q8.89-11.1,8.9-30.1t-8.9-30.1q-8.9-11.1-23.7-11.1t-23.7,11.1q-8.9,11.1-8.9,30.1t8.9,30.1q8.89,11.1,23.7,11.1T706.23,1162Z"/>
          <path class="cls-5" d="M761.53,1079.33h16v18h.6a33.51,33.51,0,0,1,12.8-14.9,36.62,36.62,0,0,1,20.2-5.5,50.63,50.63,0,0,1,9,.8v16.2q-6.6-.6-9.8-.6-14.61,0-23.3,9t-8.7,27.6v54.6h-16.8Z"/>
          <path class="cls-5" d="M974.23,1081.13a31.06,31.06,0,0,1,12.6,12.6q4.7,8.4,4.7,20.6v70.2h-16.8v-64.4q0-15.2-5.6-22.1t-17.2-6.9q-10.8,0-18.4,8.6t-7.6,25.6v59.2h-16.8v-64.4q0-15.2-5.5-22.1t-17.1-6.9q-10.8,0-18.4,8.9t-7.6,26.1v58.4h-16.8v-105.2h16v15h.6a34.21,34.21,0,0,1,13-12.8,35.73,35.73,0,0,1,17.8-4.6,36.36,36.36,0,0,1,18.3,4.6,30.68,30.68,0,0,1,12.5,13.6q12.8-18.2,34.8-18.2A36.7,36.7,0,0,1,974.23,1081.13Z"/>
          <path class="cls-5" d="M1114.12,1170.33v14.2c-1.73.66-5.13,1-10.2,1q-8.19,0-12.5-3.4t-5.1-10.6h-.6a31,31,0,0,1-15.2,11.7,56.84,56.84,0,0,1-20.2,3.7,35.43,35.43,0,0,1-16.4-3.8,29.55,29.55,0,0,1-11.8-10.9,30.33,30.33,0,0,1-4.4-16.3q0-16.4,10.9-23.7t31.9-9.9a125.18,125.18,0,0,0,15.8-2.9q5.4-1.5,7.5-3.7a8.34,8.34,0,0,0,2.1-6q0-8.81-5.6-13.8t-17.4-5a29,29,0,0,0-16.1,4.6q-7.1,4.6-9.9,15l-15.4-3.8q3.6-14.4,14.9-22.1t27.1-7.7q20.2,0,29.7,8.8t9.5,23.6v55.2q0,3.79,1.4,5.3a5.22,5.22,0,0,0,4,1.5A18.78,18.78,0,0,0,1114.12,1170.33Zm-28.2-42q-2.19,2.6-8.5,4t-18.5,3a38.44,38.44,0,0,0-17,6.3q-7,4.9-7,14.1,0,8.2,5,12.9t13.6,4.7a39.59,39.59,0,0,0,15-3,28.2,28.2,0,0,0,12.4-9.9q5-6.9,5-17.9Z"/>
          <path class="cls-5" d="M1177.12,1171.83a27.09,27.09,0,0,0,5.2-1.5v14.2a20.58,20.58,0,0,1-6.1,1.7,53.54,53.54,0,0,1-8.5.7q-13.4,0-19.4-5.5t-6-18.7v-70.4h-17.6v-13h17.6v-30.2h16.8v30.2h24.2v13h-24.2v68.6c0,4.27.84,7.27,2.5,9s4.64,2.6,8.9,2.6A32.36,32.36,0,0,0,1177.12,1171.83Z"/>
          <path class="cls-5" d="M1228.32,1058.93h-17.2v-19.2h17.2Zm-.2,125.6h-16.8v-105.2h16.8Z"/>
          <path class="cls-5" d="M1332.62,1083.73a45.64,45.64,0,0,1,17.5,19.2q6.2,12.4,6.2,29t-6.2,29a45.64,45.64,0,0,1-17.5,19.2q-11.3,6.8-26.1,6.8t-26.1-6.8a45.64,45.64,0,0,1-17.5-19.2q-6.2-12.4-6.2-29t6.2-29a45.64,45.64,0,0,1,17.5-19.2q11.3-6.8,26.1-6.8T1332.62,1083.73Zm-2.4,78.3q8.9-11.1,8.9-30.1t-8.9-30.1q-8.9-11.1-23.7-11.1t-23.7,11.1q-8.89,11.1-8.9,30.1t8.9,30.1q8.9,11.1,23.7,11.1T1330.22,1162Z"/>
          <path class="cls-5" d="M1401.52,1079.33v15h.6a33.16,33.16,0,0,1,13.6-12.8,41.63,41.63,0,0,1,19.6-4.6q16.2,0,26.8,9.6t10.6,27.8v70.2h-16.8v-64.4q0-15.2-6.1-22.1t-18.9-6.9a26.68,26.68,0,0,0-24.6,15.5q-4,7.9-4,19.5v58.4h-16.8v-105.2Z"/>
        </g>
      </g>
      <g>
        <circle class="cls-3" cx="3126.33" cy="394.14" r="286.17"/>
        <path class="cls-4" d="M3188.71,432.18v34.5H3056.46v-6q0-20.74,6.62-35.12a70,70,0,0,1,17.13-23.63,177.52,177.52,0,0,1,26.5-18.75L3124,372.43q11-6.49,16.87-13.5a24.21,24.21,0,0,0,5.88-16q0-10.74-5.5-16.5t-16.5-5.75q-11.25,0-17.88,7.63t-7.62,22.87l-41.75-1.25q1-20,10.12-33.87a56.64,56.64,0,0,1,24-20.75,78.06,78.06,0,0,1,33.13-6.88q28.74,0,46.5,13.38T3189,340.43q0,17.25-6,28.25a53.71,53.71,0,0,1-14.38,17.38A257.16,257.16,0,0,1,3144,401.93l-14,8.75a101.26,101.26,0,0,0-16.63,12.25q-6.37,6-6.62,9.25Z"/>
        <g>
          <path class="cls-5" d="M2565.94,897.33l40.8-70.6h19.8l-51.8,86v56.8h-18v-56.6l-51.8-86.2h20.2Z"/>
          <path class="cls-5" d="M2702.64,868.73a45.7,45.7,0,0,1,17.5,19.2q6.2,12.41,6.2,29t-6.2,29a45.7,45.7,0,0,1-17.5,19.2q-11.31,6.79-26.1,6.8t-26.1-6.8a45.58,45.58,0,0,1-17.5-19.2q-6.21-12.4-6.2-29t6.2-29a45.58,45.58,0,0,1,17.5-19.2q11.29-6.79,26.1-6.8T2702.64,868.73Zm-2.4,78.3q8.9-11.1,8.9-30.1t-8.9-30.1q-8.91-11.1-23.7-11.1t-23.7,11.1q-8.91,11.1-8.9,30.1t8.9,30.1q8.89,11.1,23.7,11.1T2700.24,947Z"/>
          <path class="cls-5" d="M2826.73,969.53v-15h-.6a34.52,34.52,0,0,1-13.8,12.8,41.75,41.75,0,0,1-19.6,4.6q-16.2,0-26.7-9.6t-10.5-27.8v-70.2h16.8v64.4q0,15.19,6,22.1t18.8,6.9a27,27,0,0,0,20.4-8.9q8.4-8.9,8.4-26.1v-58.4h16.8v105.2Z"/>
          <path class="cls-5" d="M2876.53,864.33h16v18h.6a33.57,33.57,0,0,1,12.8-14.9,36.65,36.65,0,0,1,20.2-5.5,50.46,50.46,0,0,1,9,.8v16.2q-6.6-.6-9.8-.6-14.6,0-23.3,9t-8.7,27.6v54.6h-16.8Z"/>
          <path class="cls-5" d="M3083.33,864.33h16v98q0,23.79-13,35.1t-34.8,11.3q-17.4,0-29.7-7.8t-17.1-23.6l16-3.8q3.2,11.19,11,16.3t19.8,5.1q31,0,31-33.4v-14.2h-.6a28,28,0,0,1-12.8,12,43.73,43.73,0,0,1-19.8,4.4,45.92,45.92,0,0,1-24.1-6.3,43.13,43.13,0,0,1-16.4-17.9q-5.89-11.6-5.9-26.6,0-15.2,5.9-26.8a43.13,43.13,0,0,1,16.4-17.9,45.92,45.92,0,0,1,24.1-6.3,43.69,43.69,0,0,1,20.2,4.6,29.57,29.57,0,0,1,13.2,12.6h.6Zm-14.8,81.3a31.17,31.17,0,0,0,11.2-13.2,45.27,45.27,0,0,0,4-19.5q0-16.6-8.8-26.9t-22.8-10.3q-14.4,0-23.2,10.2t-8.8,27q0,16.8,8.8,27.1t23.2,10.3A29.37,29.37,0,0,0,3068.53,945.63Z"/>
          <path class="cls-5" d="M3222.13,955.33v14.2c-1.74.66-5.14,1-10.2,1q-8.2,0-12.5-3.4t-5.1-10.6h-.6a31,31,0,0,1-15.2,11.7,56.92,56.92,0,0,1-20.2,3.7,35.4,35.4,0,0,1-16.4-3.8,29.42,29.42,0,0,1-11.8-10.9,30.24,30.24,0,0,1-4.4-16.3q0-16.39,10.9-23.7t31.9-9.9a125.53,125.53,0,0,0,15.8-2.9q5.4-1.5,7.5-3.7a8.34,8.34,0,0,0,2.1-6q0-8.81-5.6-13.8t-17.4-5a28.92,28.92,0,0,0-16.1,4.6q-7.11,4.61-9.9,15l-15.4-3.8q3.6-14.4,14.9-22.1t27.1-7.7q20.19,0,29.7,8.8t9.5,23.6v55.2c0,2.53.46,4.3,1.4,5.3a5.19,5.19,0,0,0,4,1.5A18.78,18.78,0,0,0,3222.13,955.33Zm-28.2-42q-2.2,2.59-8.5,4t-18.5,3a38.35,38.35,0,0,0-17,6.3q-7,4.9-7,14.1,0,8.21,5,12.9t13.6,4.7a39.67,39.67,0,0,0,15-3,28.31,28.31,0,0,0,12.4-9.9q5-6.9,5-17.9Z"/>
          <path class="cls-5" d="M3375,866.13a31.06,31.06,0,0,1,12.6,12.6q4.7,8.4,4.7,20.6v70.2h-16.8v-64.4q0-15.2-5.6-22.1t-17.2-6.9q-10.8,0-18.4,8.6t-7.6,25.6v59.2h-16.8v-64.4q0-15.2-5.5-22.1t-17.1-6.9q-10.8,0-18.4,8.9t-7.6,26.1v58.4h-16.8V864.33h16v15h.6a34.21,34.21,0,0,1,13-12.8,35.73,35.73,0,0,1,17.8-4.6,36.36,36.36,0,0,1,18.3,4.6,30.68,30.68,0,0,1,12.5,13.6q12.8-18.2,34.8-18.2A36.7,36.7,0,0,1,3375,866.13Z"/>
          <path class="cls-5" d="M3442.53,843.93h-17.2v-19.2h17.2Zm-.2,125.6h-16.8V864.33h16.8Z"/>
          <path class="cls-5" d="M3493.73,864.33v15h.6a33.16,33.16,0,0,1,13.6-12.8,41.6,41.6,0,0,1,19.6-4.6q16.2,0,26.8,9.6t10.6,27.8v70.2h-16.8v-64.4q0-15.2-6.1-22.1t-18.9-6.9a26.68,26.68,0,0,0-24.6,15.5q-4,7.9-4,19.5v58.4h-16.8V864.33Z"/>
          <path class="cls-5" d="M3672.33,864.33h16v98q0,23.79-13,35.1t-34.81,11.3q-17.4,0-29.69-7.8t-17.1-23.6l16-3.8q3.2,11.19,11,16.3t19.79,5.1q31,0,31-33.4v-14.2h-.6a28,28,0,0,1-12.8,12,43.65,43.65,0,0,1-19.79,4.4,45.92,45.92,0,0,1-24.1-6.3,43.13,43.13,0,0,1-16.4-17.9q-5.91-11.6-5.91-26.6,0-15.2,5.91-26.8a43.13,43.13,0,0,1,16.4-17.9,45.92,45.92,0,0,1,24.1-6.3,43.67,43.67,0,0,1,20.19,4.6,29.64,29.64,0,0,1,13.21,12.6h.6Zm-14.81,81.3a31.12,31.12,0,0,0,11.21-13.2,45.41,45.41,0,0,0,4-19.5q0-16.6-8.81-26.9t-22.8-10.3q-14.4,0-23.2,10.2t-8.8,27q0,16.8,8.8,27.1t23.2,10.3A29.32,29.32,0,0,0,3657.52,945.63Z"/>
          <path class="cls-5" d="M2584.94,1182.23a29.75,29.75,0,0,1-13.2-12.9h-.6v52h-16.8v-142h16v16h.6a31.28,31.28,0,0,1,13.6-13.5,43.49,43.49,0,0,1,20.8-4.9,44.32,44.32,0,0,1,41.4,26.1q6,12.49,6,28.9t-6,28.9a44.32,44.32,0,0,1-41.4,26.1A43.45,43.45,0,0,1,2584.94,1182.23Zm-6-80.4q-9,11.1-9,30.1t9,30.1q9,11.1,23.6,11.1,15,0,24-11.1t9-30.1q0-19-9-30.1t-24-11.1Q2587.93,1090.73,2578.94,1101.83Z"/>
          <path class="cls-5" d="M2681.93,1079.33h16v18h.6a33.57,33.57,0,0,1,12.8-14.9,36.65,36.65,0,0,1,20.2-5.5,50.46,50.46,0,0,1,9,.8v16.2q-6.6-.6-9.8-.6-14.59,0-23.3,9t-8.7,27.6v54.6h-16.8Z"/>
          <path class="cls-5" d="M2850.93,1154.53a48.1,48.1,0,0,1-15.8,23.1q-11.4,9.3-31.4,9.3a47,47,0,0,1-25.2-6.8,45.6,45.6,0,0,1-17.1-19.3q-6.1-12.49-6.1-28.9t6-28.9a45.11,45.11,0,0,1,16.9-19.3q10.91-6.8,25.3-6.8a47.68,47.68,0,0,1,25.9,7.1,45.39,45.39,0,0,1,17.3,20.4q6,13.3,5,31.5h-79.4q.4,16.6,9,26.9t22.4,10.3q12.8,0,20.1-6.2a32.41,32.41,0,0,0,10.1-14.6Zm-68.9-54.6q-8.1,9.19-9.3,22.8h61.8q-1.2-13.61-9.4-22.8t-21.6-9.2Q2790.14,1090.73,2782,1099.93Z"/>
          <path class="cls-5" d="M2904.93,1054.13q-3.79,2.59-3.8,10.8v14.4h24.2v13h-24.2v92.2h-16.8v-92.2h-17.6v-13h17.6v-16q0-26,28.4-26,9.8,0,15.4,2v13.8a57.64,57.64,0,0,0-12.8-1.6Q2908.73,1051.53,2904.93,1054.13Z"/>
          <path class="cls-5" d="M3036.73,1154.53a48.1,48.1,0,0,1-15.8,23.1q-11.4,9.3-31.4,9.3a47,47,0,0,1-25.2-6.8,45.6,45.6,0,0,1-17.1-19.3q-6.11-12.49-6.1-28.9t6-28.9a45.11,45.11,0,0,1,16.9-19.3q10.91-6.8,25.3-6.8a47.68,47.68,0,0,1,25.9,7.1,45.39,45.39,0,0,1,17.3,20.4q6,13.3,5,31.5h-79.4q.4,16.6,9,26.9t22.4,10.3q12.79,0,20.1-6.2a32.41,32.41,0,0,0,10.1-14.6Zm-68.9-54.6q-8.1,9.19-9.3,22.8h61.8q-1.2-13.61-9.4-22.8t-21.6-9.2Q2975.94,1090.73,2967.83,1099.93Z"/>
          <path class="cls-5" d="M3066.93,1079.33h16v18h.6a33.57,33.57,0,0,1,12.8-14.9,36.65,36.65,0,0,1,20.2-5.5,50.46,50.46,0,0,1,9,.8v16.2q-6.6-.6-9.8-.6-14.59,0-23.3,9t-8.7,27.6v54.6h-16.8Z"/>
          <path class="cls-5" d="M3235.93,1154.53a48.1,48.1,0,0,1-15.8,23.1q-11.4,9.3-31.4,9.3a47,47,0,0,1-25.2-6.8,45.6,45.6,0,0,1-17.1-19.3q-6.1-12.49-6.1-28.9t6-28.9a45.11,45.11,0,0,1,16.9-19.3q10.91-6.8,25.3-6.8a47.68,47.68,0,0,1,25.9,7.1,45.39,45.39,0,0,1,17.3,20.4q6,13.3,5,31.5h-79.4q.4,16.6,9,26.9t22.4,10.3q12.8,0,20.1-6.2a32.41,32.41,0,0,0,10.1-14.6Zm-68.9-54.6q-8.1,9.19-9.3,22.8h61.8q-1.2-13.61-9.4-22.8t-21.6-9.2Q3175.14,1090.73,3167,1099.93Z"/>
          <path class="cls-5" d="M3282.13,1079.33v15h.6a33.16,33.16,0,0,1,13.6-12.8,41.6,41.6,0,0,1,19.6-4.6q16.2,0,26.8,9.6t10.6,27.8v70.2h-16.8v-64.4q0-15.2-6.1-22.1t-18.9-6.9a26.68,26.68,0,0,0-24.6,15.5q-4,7.9-4,19.5v58.4h-16.8v-105.2Z"/>
          <path class="cls-5" d="M3448.93,1165.93a42.71,42.71,0,0,0,9.8-16.8l17.2,2.6a54.7,54.7,0,0,1-15.6,24.6q-11.4,10.61-31.2,10.6a47.85,47.85,0,0,1-25.5-6.8,45.37,45.37,0,0,1-17.2-19.2q-6.1-12.4-6.1-29,0-16.4,6.1-28.9a45.29,45.29,0,0,1,17.2-19.3,47.85,47.85,0,0,1,25.5-6.8q19.2,0,29.7,9.3t14.7,19.7l-15.8,5.2q-8.2-20.4-28.6-20.4-14.4,0-23,11.1t-8.6,30.1q0,19,8.6,30.1t23,11.1Q3442.12,1173.13,3448.93,1165.93Z"/>
          <path class="cls-5" d="M3592.73,1154.53a48.16,48.16,0,0,1-15.8,23.1q-11.4,9.3-31.4,9.3a47,47,0,0,1-25.2-6.8,45.47,45.47,0,0,1-17.1-19.3q-6.11-12.49-6.1-28.9t6-28.9a45.11,45.11,0,0,1,16.9-19.3q10.89-6.8,25.3-6.8a47.7,47.7,0,0,1,25.9,7.1,45.39,45.39,0,0,1,17.3,20.4q6,13.3,5,31.5h-79.4q.39,16.6,9,26.9t22.4,10.3q12.79,0,20.1-6.2a32.49,32.49,0,0,0,10.1-14.6Zm-68.9-54.6q-8.1,9.19-9.3,22.8h61.8q-1.2-13.61-9.4-22.8t-21.6-9.2Q3531.92,1090.73,3523.83,1099.93Z"/>
          <path class="cls-5" d="M3687.12,1109.93a23.23,23.23,0,0,0-9.4-14.5,28.77,28.77,0,0,0-17.2-5.3q-10.39,0-16.6,4.6a14.66,14.66,0,0,0-6.2,12.4q0,7,5.6,10.2t16,5l11.2,1.8q16.41,2.8,25.5,9.1t9.1,21.1q0,15.6-12.1,24.1t-31.1,8.5q-19,0-31.3-9a34.81,34.81,0,0,1-14.5-23.8l15.4-3.4q2.2,11.2,10.4,17.1t20.2,5.9q11.4,0,18.6-5.1a16,16,0,0,0,7.2-13.7q0-7.61-5.9-11t-17.9-5.6l-11-2q-15-2.6-23.8-8.8t-8.8-20.2a26.17,26.17,0,0,1,5.1-15.8,32.51,32.51,0,0,1,14.3-10.8,54.15,54.15,0,0,1,20.8-3.8,48.83,48.83,0,0,1,19.9,4,39.89,39.89,0,0,1,14.8,10.8,31.15,31.15,0,0,1,7.1,14.8Z"/>
        </g>
      </g>
      <g>
        <circle class="cls-3" cx="5268.23" cy="394.14" r="286.17"/>
        <path class="cls-4" d="M5262.86,362.68q11.74,0,18.62-5.87t6.88-15.88q0-9.75-6.5-15.5t-16.5-5.75q-10.26,0-16.88,6t-7.62,18l-41-2.5q1.74-25.74,19-39.37t46.5-13.63q29.25,0,46.75,13.38t17.5,37.12q0,13-7.38,22.25a42.06,42.06,0,0,1-19.37,13.5v1q13.74,3.75,22,13.63t8.25,26.12q0,28.26-18.25,41.5t-49.5,13.25q-31,0-49.63-13.87t-20.87-42.63l42.25-2.5q2,27.51,28.25,27.5,11.25,0,18.37-6.37t7.13-17.63q0-11.74-7.38-17.5t-20.62-5.75h-16v-28.5Z"/>
        <g>
          <path class="cls-5" d="M4587.64,897.33l40.8-70.6h19.8l-51.8,86v56.8h-18v-56.6l-51.8-86.2h20.2Z"/>
          <path class="cls-5" d="M4724.34,868.73a45.64,45.64,0,0,1,17.5,19.2q6.19,12.41,6.2,29t-6.2,29a45.64,45.64,0,0,1-17.5,19.2q-11.3,6.79-26.1,6.8t-26.1-6.8a45.64,45.64,0,0,1-17.5-19.2q-6.2-12.4-6.2-29t6.2-29a45.64,45.64,0,0,1,17.5-19.2q11.29-6.79,26.1-6.8T4724.34,868.73Zm-2.4,78.3q8.9-11.1,8.9-30.1t-8.9-30.1q-8.89-11.1-23.7-11.1t-23.7,11.1q-8.9,11.1-8.9,30.1t8.9,30.1q8.9,11.1,23.7,11.1T4721.94,947Z"/>
          <path class="cls-5" d="M4848.44,969.53v-15h-.6a34.65,34.65,0,0,1-13.8,12.8,41.75,41.75,0,0,1-19.6,4.6q-16.2,0-26.7-9.6t-10.5-27.8v-70.2H4794v64.4q0,15.19,6,22.1t18.8,6.9a27,27,0,0,0,20.4-8.9q8.4-8.9,8.4-26.1v-58.4h16.8v105.2Z"/>
          <path class="cls-5" d="M4898.24,864.33h16v18h.6a33.51,33.51,0,0,1,12.8-14.9,36.62,36.62,0,0,1,20.2-5.5,50.63,50.63,0,0,1,9,.8v16.2q-6.6-.6-9.8-.6-14.61,0-23.3,9t-8.7,27.6v54.6h-16.8Z"/>
          <path class="cls-5" d="M5048.23,824.73v54.6h.6a34.77,34.77,0,0,1,13.7-12.8,40.2,40.2,0,0,1,19.1-4.6q16,0,26.5,9.6t10.5,27.8v70.2h-16.8v-64.4q0-15.2-6.1-22.1t-18.9-6.9a25.33,25.33,0,0,0-13.8,4.2,30.3,30.3,0,0,0-10.7,12.4q-4.09,8.21-4.1,19.6v57.2h-16.8V824.73Z"/>
          <path class="cls-5" d="M5241.23,955.33v14.2c-1.73.66-5.13,1-10.2,1q-8.2,0-12.5-3.4t-5.1-10.6h-.6a31,31,0,0,1-15.2,11.7,56.88,56.88,0,0,1-20.2,3.7,35.4,35.4,0,0,1-16.4-3.8,29.49,29.49,0,0,1-11.8-10.9,30.33,30.33,0,0,1-4.4-16.3q0-16.39,10.9-23.7t31.9-9.9a125.53,125.53,0,0,0,15.8-2.9q5.4-1.5,7.5-3.7a8.34,8.34,0,0,0,2.1-6q0-8.81-5.6-13.8t-17.4-5a28.92,28.92,0,0,0-16.1,4.6q-7.1,4.61-9.9,15l-15.4-3.8q3.6-14.4,14.9-22.1t27.1-7.7q20.21,0,29.7,8.8t9.5,23.6v55.2q0,3.79,1.4,5.3a5.2,5.2,0,0,0,4,1.5A18.78,18.78,0,0,0,5241.23,955.33Zm-28.2-42q-2.2,2.59-8.5,4t-18.5,3a38.39,38.39,0,0,0-17,6.3q-7,4.9-7,14.1,0,8.21,5,12.9t13.6,4.7a39.59,39.59,0,0,0,15-3,28.26,28.26,0,0,0,12.4-9.9q5-6.9,5-17.9Z"/>
          <path class="cls-5" d="M5339.23,868.73A45.36,45.36,0,0,1,5356,888q6,12.5,6,28.9t-6,28.9a44.32,44.32,0,0,1-41.4,26.1,44.07,44.07,0,0,1-21-5q-9.41-5-13.4-13.4h-.6v16h-16V824.73h16.8v54.8h.6a30.6,30.6,0,0,1,13.3-12.8,42.83,42.83,0,0,1,20.3-4.8A45.22,45.22,0,0,1,5339.23,868.73Zm-3.4,78.3q9-11.1,9-30.1t-9-30.1q-9-11.1-24-11.1-14.59,0-23.6,11.1t-9,30.1q0,19,9,30.1t23.6,11.1Q5326.83,958.13,5335.83,947Z"/>
          <path class="cls-5" d="M5407.63,843.93h-17.2v-19.2h17.2Zm-.2,125.6h-16.8V864.33h16.8Z"/>
          <path class="cls-5" d="M5483.43,956.83a27.09,27.09,0,0,0,5.2-1.5v14.2a20.67,20.67,0,0,1-6.1,1.7,53.64,53.64,0,0,1-8.5.7q-13.39,0-19.4-5.5t-6-18.7v-70.4H5431v-13h17.6v-30.2h16.8v30.2h24.2v13h-24.2v68.6q0,6.41,2.5,9c1.67,1.73,4.63,2.6,8.9,2.6A32.51,32.51,0,0,0,5483.43,956.83Z"/>
          <path class="cls-5" d="M5579.43,894.93a23.27,23.27,0,0,0-9.4-14.5,28.79,28.79,0,0,0-17.2-5.3q-10.41,0-16.6,4.6a14.66,14.66,0,0,0-6.2,12.4q0,7,5.6,10.2t16,5l11.2,1.8q16.4,2.8,25.5,9.1t9.1,21.1q0,15.6-12.1,24.1t-31.1,8.5q-19,0-31.3-9a34.78,34.78,0,0,1-14.5-23.8l15.4-3.4q2.2,11.21,10.4,17.1t20.2,5.9q11.4,0,18.6-5.1a16,16,0,0,0,7.2-13.7q0-7.6-5.9-11t-17.9-5.6l-11-2q-15-2.6-23.8-8.8t-8.8-20.2a26.17,26.17,0,0,1,5.1-15.8,32.51,32.51,0,0,1,14.3-10.8,54.11,54.11,0,0,1,20.8-3.8,48.86,48.86,0,0,1,19.9,4,39.89,39.89,0,0,1,14.8,10.8,31.24,31.24,0,0,1,7.1,14.8Z"/>
          <path class="cls-5" d="M5766.43,955.33v14.2c-1.74.66-5.14,1-10.2,1q-8.2,0-12.5-3.4t-5.1-10.6h-.6a31,31,0,0,1-15.2,11.7,56.92,56.92,0,0,1-20.2,3.7,35.4,35.4,0,0,1-16.4-3.8,29.42,29.42,0,0,1-11.8-10.9,30.24,30.24,0,0,1-4.4-16.3q0-16.39,10.9-23.7t31.9-9.9a125.53,125.53,0,0,0,15.8-2.9q5.4-1.5,7.5-3.7a8.34,8.34,0,0,0,2.1-6q0-8.81-5.6-13.8t-17.4-5a28.92,28.92,0,0,0-16.1,4.6q-7.11,4.61-9.9,15l-15.4-3.8q3.6-14.4,14.9-22.1t27.1-7.7q20.19,0,29.7,8.8t9.5,23.6v55.2c0,2.53.46,4.3,1.4,5.3a5.19,5.19,0,0,0,4,1.5A18.78,18.78,0,0,0,5766.43,955.33Zm-28.2-42q-2.2,2.59-8.5,4t-18.5,3a38.35,38.35,0,0,0-17,6.3q-7,4.9-7,14.1,0,8.21,5,12.9t13.6,4.7a39.67,39.67,0,0,0,15-3,28.31,28.31,0,0,0,12.4-9.9q5-6.9,5-17.9Z"/>
          <path class="cls-5" d="M5804.83,864.33v15h.6a33.16,33.16,0,0,1,13.6-12.8,41.6,41.6,0,0,1,19.6-4.6q16.2,0,26.8,9.6t10.6,27.8v70.2h-16.8v-64.4q0-15.2-6.1-22.1t-18.9-6.9a26.68,26.68,0,0,0-24.6,15.5q-4,7.9-4,19.5v58.4h-16.8V864.33Z"/>
          <path class="cls-5" d="M5970.73,866.73a30.52,30.52,0,0,1,13.29,12.8h.6v-54.8h16.81v144.8h-16v-16h-.6q-4,8.4-13.4,13.4a44.07,44.07,0,0,1-21,5,44.35,44.35,0,0,1-41.41-26.1q-6-12.5-6-28.9t6-28.9a44.35,44.35,0,0,1,41.41-26.1A42.86,42.86,0,0,1,5970.73,866.73Zm6.1,80.3q9-11.1,9-30.1t-9-30.1q-9-11.1-23.6-11.1-15,0-24,11.1t-9,30.1q0,19,9,30.1t24,11.1Q5967.83,958.13,5976.83,947Z"/>
          <path class="cls-5" d="M4719,1109.93a23.27,23.27,0,0,0-9.4-14.5,28.79,28.79,0,0,0-17.2-5.3q-10.39,0-16.6,4.6a14.66,14.66,0,0,0-6.2,12.4q0,7,5.6,10.2t16,5l11.2,1.8q16.4,2.8,25.5,9.1t9.1,21.1q0,15.6-12.1,24.1t-31.1,8.5q-19,0-31.3-9a34.81,34.81,0,0,1-14.5-23.8l15.4-3.4q2.21,11.2,10.4,17.1t20.2,5.9q11.4,0,18.6-5.1a16,16,0,0,0,7.2-13.7q0-7.61-5.9-11t-17.9-5.6l-11-2q-15-2.6-23.8-8.8t-8.8-20.2a26.17,26.17,0,0,1,5.1-15.8,32.51,32.51,0,0,1,14.3-10.8,54.11,54.11,0,0,1,20.8-3.8,48.86,48.86,0,0,1,19.9,4,39.89,39.89,0,0,1,14.8,10.8,31.15,31.15,0,0,1,7.1,14.8Z"/>
          <path class="cls-5" d="M4806.44,1171.83a27.31,27.31,0,0,0,5.2-1.5v14.2a20.67,20.67,0,0,1-6.1,1.7,53.64,53.64,0,0,1-8.5.7q-13.41,0-19.4-5.5t-6-18.7v-70.4H4754v-13h17.6v-30.2h16.8v30.2h24.2v13h-24.2v68.6q0,6.4,2.5,9t8.9,2.6A32.51,32.51,0,0,0,4806.44,1171.83Z"/>
          <path class="cls-5" d="M4930,1170.33v14.2c-1.74.66-5.14,1-10.2,1q-8.2,0-12.5-3.4t-5.1-10.6h-.6a31,31,0,0,1-15.2,11.7,56.92,56.92,0,0,1-20.2,3.7,35.4,35.4,0,0,1-16.4-3.8,29.42,29.42,0,0,1-11.8-10.9,30.24,30.24,0,0,1-4.4-16.3q0-16.4,10.9-23.7t31.9-9.9a125.53,125.53,0,0,0,15.8-2.9q5.4-1.5,7.5-3.7a8.34,8.34,0,0,0,2.1-6q0-8.81-5.6-13.8t-17.4-5a28.92,28.92,0,0,0-16.1,4.6q-7.11,4.6-9.9,15l-15.4-3.8q3.6-14.4,14.9-22.1t27.1-7.7q20.19,0,29.7,8.8t9.5,23.6v55.2c0,2.53.46,4.3,1.4,5.3a5.19,5.19,0,0,0,4,1.5A18.78,18.78,0,0,0,4930,1170.33Zm-28.2-42q-2.2,2.6-8.5,4t-18.5,3a38.35,38.35,0,0,0-17,6.3q-7,4.9-7,14.1,0,8.2,5,12.9t13.6,4.7a39.67,39.67,0,0,0,15-3,28.31,28.31,0,0,0,12.4-9.9q5-6.9,5-17.9Z"/>
          <path class="cls-5" d="M4993,1171.83a27.31,27.31,0,0,0,5.2-1.5v14.2a20.67,20.67,0,0,1-6.1,1.7,53.64,53.64,0,0,1-8.5.7q-13.41,0-19.4-5.5t-6-18.7v-70.4h-17.6v-13h17.6v-30.2H4975v30.2h24.2v13H4975v68.6q0,6.4,2.5,9t8.9,2.6A32.51,32.51,0,0,0,4993,1171.83Z"/>
          <path class="cls-5" d="M5110.24,1154.53a48.16,48.16,0,0,1-15.8,23.1q-11.4,9.3-31.4,9.3a47,47,0,0,1-25.2-6.8,45.47,45.47,0,0,1-17.1-19.3q-6.1-12.49-6.1-28.9t6-28.9a45.11,45.11,0,0,1,16.9-19.3q10.89-6.8,25.3-6.8a47.7,47.7,0,0,1,25.9,7.1,45.39,45.39,0,0,1,17.3,20.4q6,13.3,5,31.5h-79.4q.39,16.6,9,26.9t22.4,10.3q12.79,0,20.1-6.2a32.49,32.49,0,0,0,10.1-14.6Zm-68.9-54.6q-8.1,9.19-9.3,22.8h61.8q-1.2-13.61-9.4-22.8t-21.6-9.2Q5049.43,1090.73,5041.34,1099.93Z"/>
          <path class="cls-5" d="M5260.53,1083.73a45.64,45.64,0,0,1,17.5,19.2q6.2,12.4,6.2,29t-6.2,29a45.64,45.64,0,0,1-17.5,19.2q-11.29,6.8-26.1,6.8t-26.1-6.8a45.64,45.64,0,0,1-17.5-19.2q-6.19-12.4-6.2-29t6.2-29a45.64,45.64,0,0,1,17.5-19.2q11.3-6.8,26.1-6.8T5260.53,1083.73Zm-2.4,78.3q8.9-11.1,8.9-30.1t-8.9-30.1q-8.9-11.1-23.7-11.1t-23.7,11.1q-8.89,11.1-8.9,30.1t8.9,30.1q8.9,11.1,23.7,11.1T5258.13,1162Z"/>
          <path class="cls-5" d="M5337.23,1054.13q-3.8,2.59-3.8,10.8v14.4h24.2v13h-24.2v92.2h-16.8v-92.2H5299v-13h17.6v-16q0-26,28.4-26,9.8,0,15.4,2v13.8a57.57,57.57,0,0,0-12.8-1.6Q5341,1051.53,5337.23,1054.13Z"/>
          <path class="cls-5" d="M5568.33,1081.13a30.94,30.94,0,0,1,12.6,12.6q4.69,8.4,4.7,20.6v70.2h-16.8v-64.4q0-15.2-5.6-22.1t-17.2-6.9q-10.8,0-18.4,8.6t-7.6,25.6v59.2h-16.8v-64.4q0-15.2-5.5-22.1t-17.1-6.9q-10.8,0-18.4,8.9t-7.6,26.1v58.4h-16.8v-105.2h16v15h.6a34.21,34.21,0,0,1,13-12.8,35.73,35.73,0,0,1,17.8-4.6,36.36,36.36,0,0,1,18.3,4.6,30.62,30.62,0,0,1,12.5,13.6q12.8-18.2,34.8-18.2A36.7,36.7,0,0,1,5568.33,1081.13Z"/>
          <path class="cls-5" d="M5635.83,1058.93h-17.2v-19.2h17.2Zm-.2,125.6h-16.8v-105.2h16.8Z"/>
          <path class="cls-5" d="M5687,1079.33v15h.6a33.16,33.16,0,0,1,13.6-12.8,41.6,41.6,0,0,1,19.6-4.6q16.2,0,26.8,9.6t10.6,27.8v70.2h-16.8v-64.4q0-15.2-6.1-22.1t-18.9-6.9a26.68,26.68,0,0,0-24.6,15.5q-4,7.9-4,19.5v58.4H5671v-105.2Z"/>
          <path class="cls-5" d="M5852.93,1081.73a30.6,30.6,0,0,1,13.3,12.8h.6v-54.8h16.8v144.8h-16v-16h-.6q-4,8.4-13.4,13.4a44.07,44.07,0,0,1-21,5,44.32,44.32,0,0,1-41.4-26.1q-6-12.49-6-28.9t6-28.9a44.32,44.32,0,0,1,41.4-26.1A42.86,42.86,0,0,1,5852.93,1081.73Zm6.1,80.3q9-11.1,9-30.1t-9-30.1q-9-11.1-23.6-11.1-15,0-24,11.1t-9,30.1q0,19,9,30.1t24,11.1Q5850,1173.13,5859,1162Z"/>
        </g>
      </g>
      <g>
        <circle class="cls-3" cx="7410.14" cy="394.14" r="286.17"/>
        <path class="cls-4" d="M7398.39,294.43h59.25V399.68h20.5v30.75h-20.5v39h-41.75v-39h-78.75v-34.5Zm17.5,30.25h-1l-44.75,74v1h45.75Z"/>
        <g>
          <path class="cls-5" d="M6808.85,897.33l40.79-70.6h19.8l-51.8,86v56.8h-18v-56.6l-51.79-86.2h20.2Z"/>
          <path class="cls-5" d="M6945.55,868.73a45.7,45.7,0,0,1,17.5,19.2q6.2,12.41,6.2,29t-6.2,29a45.7,45.7,0,0,1-17.5,19.2q-11.31,6.79-26.1,6.8t-26.1-6.8a45.58,45.58,0,0,1-17.5-19.2q-6.21-12.4-6.2-29t6.2-29a45.58,45.58,0,0,1,17.5-19.2q11.3-6.79,26.1-6.8T6945.55,868.73Zm-2.4,78.3q8.9-11.1,8.9-30.1t-8.9-30.1q-8.91-11.1-23.7-11.1t-23.7,11.1q-8.91,11.1-8.9,30.1t8.9,30.1q8.9,11.1,23.7,11.1T6943.15,947Z"/>
          <path class="cls-5" d="M7069.64,969.53v-15h-.6a34.52,34.52,0,0,1-13.8,12.8,41.75,41.75,0,0,1-19.6,4.6q-16.2,0-26.7-9.6t-10.5-27.8v-70.2h16.8v64.4q0,15.19,6,22.1t18.8,6.9a27,27,0,0,0,20.4-8.9q8.4-8.9,8.4-26.1v-58.4h16.8v105.2Z"/>
          <path class="cls-5" d="M7119.44,864.33h16v18h.6a33.57,33.57,0,0,1,12.8-14.9,36.65,36.65,0,0,1,20.2-5.5,50.46,50.46,0,0,1,9,.8v16.2q-6.6-.6-9.8-.6-14.59,0-23.3,9t-8.7,27.6v54.6h-16.8Z"/>
          <path class="cls-5" d="M7326.24,864.33h16v98q0,23.79-13,35.1t-34.8,11.3q-17.4,0-29.7-7.8t-17.1-23.6l16-3.8q3.2,11.19,11,16.3t19.8,5.1q31,0,31-33.4v-14.2h-.6a28.08,28.08,0,0,1-12.8,12,43.73,43.73,0,0,1-19.8,4.4,45.92,45.92,0,0,1-24.1-6.3,43.13,43.13,0,0,1-16.4-17.9q-5.91-11.6-5.9-26.6,0-15.2,5.9-26.8a43.13,43.13,0,0,1,16.4-17.9,45.92,45.92,0,0,1,24.1-6.3,43.72,43.72,0,0,1,20.2,4.6,29.57,29.57,0,0,1,13.2,12.6h.6Zm-14.8,81.3a31.17,31.17,0,0,0,11.2-13.2,45.41,45.41,0,0,0,4-19.5q0-16.6-8.8-26.9t-22.8-10.3q-14.4,0-23.2,10.2t-8.8,27q0,16.8,8.8,27.1t23.2,10.3A29.37,29.37,0,0,0,7311.44,945.63Z"/>
          <path class="cls-5" d="M7445.34,868.73a45.7,45.7,0,0,1,17.5,19.2q6.19,12.41,6.2,29t-6.2,29a45.7,45.7,0,0,1-17.5,19.2q-11.31,6.79-26.1,6.8t-26.1-6.8a45.58,45.58,0,0,1-17.5-19.2q-6.21-12.4-6.2-29t6.2-29a45.58,45.58,0,0,1,17.5-19.2q11.29-6.79,26.1-6.8T7445.34,868.73Zm-2.4,78.3q8.9-11.1,8.9-30.1t-8.9-30.1q-8.91-11.1-23.7-11.1t-23.7,11.1q-8.91,11.1-8.9,30.1t8.9,30.1q8.9,11.1,23.7,11.1T7442.94,947Z"/>
          <path class="cls-5" d="M7587,955.33v14.2c-1.74.66-5.14,1-10.2,1q-8.2,0-12.5-3.4t-5.1-10.6h-.6a31,31,0,0,1-15.2,11.7,56.92,56.92,0,0,1-20.2,3.7,35.4,35.4,0,0,1-16.4-3.8,29.42,29.42,0,0,1-11.8-10.9,30.24,30.24,0,0,1-4.4-16.3q0-16.39,10.9-23.7t31.9-9.9a125.53,125.53,0,0,0,15.8-2.9q5.4-1.5,7.5-3.7a8.34,8.34,0,0,0,2.1-6q0-8.81-5.6-13.8t-17.4-5a28.92,28.92,0,0,0-16.1,4.6q-7.11,4.61-9.9,15l-15.4-3.8q3.6-14.4,14.9-22.1t27.1-7.7q20.19,0,29.7,8.8t9.5,23.6v55.2c0,2.53.46,4.3,1.4,5.3a5.19,5.19,0,0,0,4,1.5A18.78,18.78,0,0,0,7587,955.33Zm-28.2-42q-2.2,2.59-8.5,4t-18.5,3a38.35,38.35,0,0,0-17,6.3q-7,4.9-7,14.1,0,8.21,5,12.9t13.6,4.7a39.67,39.67,0,0,0,15-3,28.31,28.31,0,0,0,12.4-9.9q5-6.9,5-17.9Z"/>
          <path class="cls-5" d="M7626.24,969.53h-16.8V824.73h16.8Z"/>
          <path class="cls-5" d="M7726.23,894.93a23.27,23.27,0,0,0-9.4-14.5,28.79,28.79,0,0,0-17.2-5.3q-10.4,0-16.6,4.6a14.66,14.66,0,0,0-6.2,12.4q0,7,5.6,10.2t16,5l11.2,1.8q16.4,2.8,25.5,9.1t9.1,21.1q0,15.6-12.1,24.1t-31.1,8.5q-19,0-31.3-9a34.81,34.81,0,0,1-14.5-23.8l15.4-3.4q2.21,11.21,10.4,17.1t20.2,5.9q11.4,0,18.6-5.1a16,16,0,0,0,7.2-13.7q0-7.6-5.9-11t-17.9-5.6l-11-2q-15-2.6-23.8-8.8t-8.8-20.2a26.17,26.17,0,0,1,5.1-15.8,32.51,32.51,0,0,1,14.3-10.8,54.11,54.11,0,0,1,20.8-3.8,48.86,48.86,0,0,1,19.9,4,39.89,39.89,0,0,1,14.8,10.8,31.15,31.15,0,0,1,7.1,14.8Z"/>
          <path class="cls-5" d="M7850.83,839.13q-3.81,2.6-3.8,10.8v14.4h24.2v13H7847v92.2h-16.8v-92.2h-17.6v-13h17.6v-16q0-26,28.4-26,9.79,0,15.4,2v13.8a57.71,57.71,0,0,0-12.8-1.6Q7854.63,836.53,7850.83,839.13Z"/>
          <path class="cls-5" d="M7962.93,868.73a45.7,45.7,0,0,1,17.5,19.2q6.19,12.41,6.2,29t-6.2,29a45.7,45.7,0,0,1-17.5,19.2q-11.31,6.79-26.1,6.8t-26.1-6.8a45.58,45.58,0,0,1-17.5-19.2q-6.21-12.4-6.2-29t6.2-29a45.58,45.58,0,0,1,17.5-19.2q11.3-6.79,26.1-6.8T7962.93,868.73Zm-2.4,78.3q8.9-11.1,8.9-30.1t-8.9-30.1q-8.91-11.1-23.7-11.1t-23.7,11.1q-8.91,11.1-8.9,30.1t8.9,30.1q8.9,11.1,23.7,11.1T7960.53,947Z"/>
          <path class="cls-5" d="M8015.83,864.33h16v18h.6a33.51,33.51,0,0,1,12.8-14.9,36.62,36.62,0,0,1,20.2-5.5,50.63,50.63,0,0,1,9,.8v16.2q-6.6-.6-9.8-.6-14.61,0-23.3,9t-8.7,27.6v54.6h-16.8Z"/>
          <path class="cls-5" d="M6803.44,1058.93h-17.2v-19.2h17.2Zm-.2,125.6h-16.8v-105.2h16.8Z"/>
          <path class="cls-5" d="M6969.14,1081.13a30.94,30.94,0,0,1,12.6,12.6q4.69,8.4,4.7,20.6v70.2h-16.8v-64.4q0-15.2-5.6-22.1t-17.2-6.9q-10.8,0-18.4,8.6t-7.6,25.6v59.2H6904v-64.4q0-15.2-5.5-22.1t-17.1-6.9q-10.8,0-18.4,8.9t-7.6,26.1v58.4h-16.8v-105.2h16v15h.6a34.21,34.21,0,0,1,13-12.8,35.75,35.75,0,0,1,17.8-4.6,36.36,36.36,0,0,1,18.3,4.6,30.62,30.62,0,0,1,12.5,13.6q12.8-18.2,34.8-18.2A36.7,36.7,0,0,1,6969.14,1081.13Z"/>
          <path class="cls-5" d="M7050.84,1182.23a29.75,29.75,0,0,1-13.2-12.9h-.6v52h-16.8v-142h16v16h.6a31.28,31.28,0,0,1,13.6-13.5,43.49,43.49,0,0,1,20.8-4.9,44.32,44.32,0,0,1,41.4,26.1q6,12.49,6,28.9t-6,28.9a44.32,44.32,0,0,1-41.4,26.1A43.45,43.45,0,0,1,7050.84,1182.23Zm-6-80.4q-9,11.1-9,30.1t9,30.1q9,11.1,23.6,11.1,15,0,24-11.1t9-30.1q0-19-9-30.1t-24-11.1Q7053.83,1090.73,7044.84,1101.83Z"/>
          <path class="cls-5" d="M7147.84,1079.33h16v18h.6a33.51,33.51,0,0,1,12.8-14.9,36.62,36.62,0,0,1,20.2-5.5,50.63,50.63,0,0,1,9,.8v16.2q-6.6-.6-9.8-.6-14.61,0-23.3,9t-8.7,27.6v54.6h-16.8Z"/>
          <path class="cls-5" d="M7297.14,1083.73a45.7,45.7,0,0,1,17.5,19.2q6.2,12.4,6.2,29t-6.2,29a45.7,45.7,0,0,1-17.5,19.2q-11.31,6.8-26.1,6.8t-26.1-6.8a45.58,45.58,0,0,1-17.5-19.2q-6.21-12.4-6.2-29t6.2-29a45.58,45.58,0,0,1,17.5-19.2q11.3-6.8,26.1-6.8T7297.14,1083.73Zm-2.4,78.3q8.9-11.1,8.9-30.1t-8.9-30.1q-8.91-11.1-23.7-11.1t-23.7,11.1q-8.91,11.1-8.9,30.1t8.9,30.1q8.9,11.1,23.7,11.1T7294.74,1162Z"/>
          <path class="cls-5" d="M7415.84,1079.33H7434l-40.8,105.2h-18.8l-40.2-105.2h18.6l31,86h.6Z"/>
          <path class="cls-5" d="M7542.84,1154.53a48.16,48.16,0,0,1-15.8,23.1q-11.4,9.3-31.4,9.3a47,47,0,0,1-25.2-6.8,45.47,45.47,0,0,1-17.1-19.3q-6.1-12.49-6.1-28.9t6-28.9a45.11,45.11,0,0,1,16.9-19.3q10.89-6.8,25.3-6.8a47.7,47.7,0,0,1,25.9,7.1,45.39,45.39,0,0,1,17.3,20.4q6,13.3,5,31.5h-79.4q.39,16.6,9,26.9t22.4,10.3q12.79,0,20.1-6.2a32.49,32.49,0,0,0,10.1-14.6Zm-68.9-54.6q-8.1,9.19-9.3,22.8h61.8q-1.2-13.61-9.4-22.8t-21.6-9.2Q7482,1090.73,7473.94,1099.93Z"/>
          <path class="cls-5" d="M7703.53,1081.13a30.94,30.94,0,0,1,12.6,12.6q4.71,8.4,4.7,20.6v70.2H7704v-64.4q0-15.2-5.6-22.1t-17.2-6.9q-10.8,0-18.4,8.6t-7.6,25.6v59.2h-16.8v-64.4q0-15.2-5.5-22.1t-17.1-6.9q-10.8,0-18.4,8.9t-7.6,26.1v58.4H7573v-105.2h16v15h.6a34.28,34.28,0,0,1,13-12.8,35.75,35.75,0,0,1,17.8-4.6,36.36,36.36,0,0,1,18.3,4.6,30.62,30.62,0,0,1,12.5,13.6q12.81-18.2,34.8-18.2A36.67,36.67,0,0,1,7703.53,1081.13Z"/>
          <path class="cls-5" d="M7843.43,1154.53a48.1,48.1,0,0,1-15.8,23.1q-11.4,9.3-31.4,9.3a47,47,0,0,1-25.2-6.8,45.6,45.6,0,0,1-17.1-19.3q-6.11-12.49-6.1-28.9t6-28.9a45.11,45.11,0,0,1,16.9-19.3q10.91-6.8,25.3-6.8a47.68,47.68,0,0,1,25.9,7.1,45.39,45.39,0,0,1,17.3,20.4q6,13.3,5,31.5h-79.4q.41,16.6,9,26.9t22.4,10.3q12.8,0,20.1-6.2a32.41,32.41,0,0,0,10.1-14.6Zm-68.9-54.6q-8.1,9.19-9.3,22.8H7827q-1.2-13.61-9.4-22.8t-21.6-9.2Q7782.64,1090.73,7774.53,1099.93Z"/>
          <path class="cls-5" d="M7889.63,1079.33v15h.6a33.16,33.16,0,0,1,13.6-12.8,41.6,41.6,0,0,1,19.6-4.6q16.2,0,26.8,9.6t10.6,27.8v70.2H7944v-64.4q0-15.2-6.1-22.1t-18.9-6.9a26.68,26.68,0,0,0-24.6,15.5q-4,7.9-4,19.5v58.4h-16.8v-105.2Z"/>
          <path class="cls-5" d="M8034.43,1171.83a27.31,27.31,0,0,0,5.2-1.5v14.2a20.67,20.67,0,0,1-6.1,1.7,53.64,53.64,0,0,1-8.5.7q-13.39,0-19.4-5.5t-6-18.7v-70.4H7982v-13h17.6v-30.2h16.8v30.2h24.2v13h-24.2v68.6q0,6.4,2.5,9c1.67,1.73,4.63,2.6,8.9,2.6A32.51,32.51,0,0,0,8034.43,1171.83Z"/>
        </g>
      </g>
    </g>
  </g>
</svg>
