<svg xmlns="http://www.w3.org/2000/svg" viewBox="0 0 500 500">
  <defs>
    <style>
      .cls-1 {
        fill: #6259fa;
      }

      .cls-2 {
        fill: none;
      }
    </style>
  </defs>
  <g id="Layer_9" data-name="Layer 9">
    <g>
      <path class="cls-1" d="M81.42,381.72c7.63-7.65,15-14.59,21.8-22,4.67-5.09,9.83-7.13,16.77-7.06,29.31.31,58.63.13,87.94.13,27.69,0,55.38.07,83.07,0,21.42-.07,37.17-15.08,38.19-36.45.35-7.22.11-14.47.13-21.71,0-3.08,0-6.16,0-9.69-2.06,0-3.65,0-5.24,0-39.42,0-78.83.3-118.24-.18-29.43-.36-54.88-25.17-56.58-54.49-.63-10.81-.28-21.69-.37-32.54,0-1.44,0-2.87,0-4.6-10.48,0-20.31-.12-30.15,0-21.75.32-37.56,16.35-37.58,38.18q-.09,73.35,0,146.7C81.15,379,81.29,380.07,81.42,381.72ZM383,262.39a16,16,0,0,1,12.33,5c7.68,8,15.61,15.74,24.21,24.36v-4.41q0-72.81,0-145.62c0-23-16-38.94-39.15-38.95q-84.78,0-169.55,0c-23.63,0-39.41,15.72-39.46,39.4-.05,26.95-.08,53.91.06,80.86A48.35,48.35,0,0,0,173.09,236c4.76,16.41,19.07,26.44,37.36,26.45Q296.71,262.47,383,262.39Zm-.12-182c29.39.06,54.1,21.85,58.46,51a12.63,12.63,0,0,0,.66,2.09v188c-2.26,5.19-5.73,9.12-11.82,8.32a15.22,15.22,0,0,1-8.09-3.95c-12.88-12.52-25.54-25.27-38.15-38.07a8.9,8.9,0,0,0-7.19-2.92c-8.08.19-16.18.06-24.67.06-.11,1.58-.27,2.89-.28,4.2,0,9.23.22,18.47-.13,27.7-1.25,33.51-27.13,58.4-60.64,58.43q-83.47.06-166.93-.05a9.5,9.5,0,0,0-7.52,3c-12,12.3-24.29,24.41-36.47,36.58-.88.88-1.73,1.8-2.69,2.59-3.69,3.05-7.81,3.88-12.2,1.83a10.71,10.71,0,0,1-6.51-10.11c0-2.6-.05-5.2-.05-7.8,0-3.64,0-7.28,0-10.92q0-79.37,0-158.72c0-30.85,20.28-55.55,50.64-60.16,11.12-1.68,22.65-.66,34-.86,1.71,0,3.42,0,5.57,0,0-4.81-.17-9.16,0-13.5.49-10.43-.18-21.14,2-31.23,5.72-26.64,29.9-45.45,57.19-45.51Q295.49,80.22,382.88,80.39Z"/>
      <path class="cls-2" d="M216.61,181.38A11.35,11.35,0,0,0,227.77,193c5.95,0,11.25-5.09,11.27-10.74a11.44,11.44,0,0,0-11.24-11.59C221.85,170.66,216.62,175.67,216.61,181.38ZM295.3,193c6,0,11.22-4.89,11.29-10.62a11.3,11.3,0,0,0-11-11.71c-5.92,0-11.32,5-11.41,10.61A11.55,11.55,0,0,0,295.3,193Zm85.08-90.16c23.14,0,39.14,15.91,39.15,38.95q0,72.81,0,145.62v4.41c-8.6-8.62-16.53-16.37-24.21-24.36a16,16,0,0,0-12.33-5q-86.28.12-172.55,0c-18.29,0-32.6-10-37.36-26.45a48.35,48.35,0,0,1-1.66-12.91c-.14-26.95-.11-53.91-.06-80.86,0-23.68,15.83-39.39,39.46-39.4Q295.59,102.79,380.38,102.81ZM352,181.2a11.33,11.33,0,0,0,11,11.76c5.93.07,11.31-4.9,11.43-10.55a11.49,11.49,0,0,0-11.05-11.77C357.35,170.57,352.05,175.5,352,181.2Z"/>
      <path class="cls-1" d="M362.92,193a11.33,11.33,0,0,1-11-11.76c.09-5.7,5.39-10.63,11.34-10.56a11.49,11.49,0,0,1,11.05,11.77C374.23,188.06,368.85,193,362.92,193Z"/>
      <path class="cls-2" d="M324.08,284.9c1.59,0,3.18,0,5.24,0,0,3.53,0,6.61,0,9.69,0,7.24.22,14.49-.13,21.71-1,21.37-16.77,36.38-38.19,36.45-27.69.09-55.38,0-83.07,0-29.31,0-58.63.18-87.94-.13-6.94-.07-12.1,2-16.77,7.06-6.81,7.43-14.17,14.37-21.8,22-.13-1.65-.27-2.69-.27-3.72q0-73.35,0-146.7c0-21.83,15.83-37.86,37.58-38.18,9.84-.15,19.67,0,30.15,0,0,1.73,0,3.16,0,4.6.09,10.85-.26,21.73.37,32.54,1.7,29.32,27.15,54.13,56.58,54.49C245.25,285.2,284.66,284.88,324.08,284.9Z"/>
      <path class="cls-1" d="M306.59,182.35c-.07,5.73-5.32,10.66-11.29,10.62a11.55,11.55,0,0,1-11.12-11.72c.09-5.62,5.49-10.65,11.41-10.61A11.3,11.3,0,0,1,306.59,182.35Z"/>
      <path class="cls-1" d="M227.8,170.64A11.44,11.44,0,0,1,239,182.23c0,5.65-5.32,10.71-11.27,10.74a11.35,11.35,0,0,1-11.16-11.59C216.62,175.67,221.85,170.66,227.8,170.64Z"/>
      <path class="cls-2" d="M376.75,284.84a8.9,8.9,0,0,1,7.19,2.92c12.61,12.8,25.27,25.55,38.15,38.07a15.22,15.22,0,0,0,8.09,3.95c6.09.8,9.56-3.13,11.82-8.32V442H58V401.29h.66c0,2.6,0,5.2.05,7.8a10.71,10.71,0,0,0,6.51,10.11c4.39,2.05,8.51,1.22,12.2-1.83,1-.79,1.81-1.71,2.69-2.59,12.18-12.17,24.42-24.28,36.47-36.58a9.5,9.5,0,0,1,7.52-3q83.46.12,166.93.05c33.51,0,59.39-24.92,60.64-58.43.35-9.23.09-18.47.13-27.7,0-1.31.17-2.62.28-4.2C360.57,284.9,368.67,285,376.75,284.84Z"/>
      <path class="cls-2" d="M58,401.29V58H442v75.51a12.63,12.63,0,0,1-.66-2.09c-4.36-29.18-29.07-51-58.46-51q-87.39-.19-174.78,0c-27.29.06-51.47,18.87-57.19,45.51-2.17,10.09-1.5,20.8-2,31.23-.2,4.34,0,8.69,0,13.5-2.15,0-3.86,0-5.57,0-11.34.2-22.87-.82-34,.86C79,176.1,58.7,200.8,58.69,231.65q0,79.36,0,158.72c0,3.64,0,7.28,0,10.92Z"/>
    </g>
  </g>
</svg>
