<svg xmlns="http://www.w3.org/2000/svg" viewBox="0 0 500 500">
  <defs>
    <style>
      .cls-1 {
        fill: none;
      }

      .cls-2 {
        fill: #6259fa;
      }
    </style>
  </defs>
  <g id="Layer_9" data-name="Layer 9">
    <g>
      <path class="cls-1" d="M455.23,105.59c0-4-3.06-6.7-7.81-6.86-2.1-.07-4.21,0-6.2,0-4.94-22.59-18.47-36-40.73-40.75-.09-5.3,1.14-10.92-4.68-14h60.26v61.69h-.84Z"/>
      <path class="cls-2" d="M360.49,112.43c1.16,12.61,15.81,26.88,26,25.93V112.69c-1.15-.1-2.05-.25-3-.25C376,112.42,368.34,112.43,360.49,112.43Zm-22.17-13.6c2.37-.24,4.79,0,7.65,0,2-10.44,6.26-19.63,13.78-27.08a49.32,49.32,0,0,1,26.86-13.57c.51-5.15-1.21-10.87,4.38-14.19h4.82c5.82,3.11,4.59,8.73,4.68,14,22.26,4.72,35.79,18.16,40.73,40.75,2,0,4.1-.06,6.2,0,4.75.16,7.79,2.86,7.81,6.86v0c0,4-3,6.66-7.74,6.78-2,0-4,0-6.12,0-1,3.36-1.73,6.6-2.9,9.67-6.16,16-17.7,26.15-34.36,30.17-3.06.74-4,1.93-3.66,4.79a16.15,16.15,0,0,1-.16,4.39,6.78,6.78,0,0,1-7.05,5.84,6.65,6.65,0,0,1-6.38-6.5c-.16-2.39,0-4.8,0-6.58l-22-9.14-22,22.07c1.07.11,2.34.2,3.59.37a6.58,6.58,0,0,1,6,6.45c0,3.48-1.71,6.48-5.14,6.66a206.62,206.62,0,0,1-24-.06c-3.9-.25-5.11-3.86-5.13-7.53,0-6-.07-12.05,0-18.07.07-5.07,2.77-8.16,6.91-8.15s6.43,2.75,6.79,7.79c0,.62.12,1.24.12,1.31l21.84-21.74c-2.31-6.26-4.77-13.1-7.42-19.87a3.71,3.71,0,0,0-2.51-1.78,49.86,49.86,0,0,0-5.2-.14c-3.95-.26-6.64-2.94-6.73-6.59A6.77,6.77,0,0,1,338.32,98.83Zm62.32-.45h26.22c-2.79-13.38-14.4-24.74-26.22-25.82Zm.19,40.36c12.43-1.65,24.64-14.05,25.81-26H400.83ZM386.54,98.36V72.5C374,74,360.54,87.58,360.72,98.36Z"/>
      <path class="cls-1" d="M400.44,448.17c.15-2.25,0-4.52,0-7,22.69-4.91,36-18.54,40.79-40.78,2.64,0,5.06.19,7.44,0a6.89,6.89,0,0,0,6.54-6.8h.84v62.48H393.61v-.84C397.3,455.23,400.15,452.38,400.44,448.17Z"/>
      <path class="cls-1" d="M426.64,400.64c-1.16,11.91-12.44,23.42-25.82,26.21V400.64Z"/>
      <path class="cls-1" d="M426.64,112.7c-1.17,12-13.38,24.39-25.81,26v-26Z"/>
      <path class="cls-1" d="M400.65,360.64c11.42.26,24.86,13.68,26,25.92-.9.07-1.81.2-2.72.2-7.6,0-15.2,0-23.43,0,0-7.9,0-15.24,0-22.58C400.5,363,400.59,361.82,400.65,360.64Z"/>
      <path class="cls-1" d="M400.64,72.56c11.82,1.08,23.43,12.44,26.22,25.82H400.64Z"/>
      <path class="cls-1" d="M360.67,386.77c.34-12.85,15.93-26.25,25.82-26.12a18.44,18.44,0,0,1,.27,2.25c0,7.74,0,15.47,0,23.87h-26.1Z"/>
      <path class="cls-1" d="M360.72,98.36C360.54,87.58,374,74,386.54,72.5V98.36Z"/>
      <path class="cls-1" d="M360.49,112.43c7.85,0,15.46,0,23.06,0,.91,0,1.81.15,3,.25v25.67C376.3,139.31,361.65,125,360.49,112.43Z"/>
      <path class="cls-1" d="M360.53,400.74h26v25.78C375.29,426.27,361.5,412.69,360.53,400.74Z"/>
      <path class="cls-2" d="M360.53,400.74c1,11.95,14.76,25.53,26,25.78V400.74Zm-17-68.84,22.07,21.9,21.21-8.8c0-1.77-.13-4.18,0-6.56a6.65,6.65,0,0,1,6.36-6.52,6.85,6.85,0,0,1,7.1,5.79,2,2,0,0,1,.11.79c-1.55,6.68,2.51,7.95,7.87,9.67,16.49,5.27,26.93,16.79,31.65,33.45.44,1.53.75,3.11,1.24,5.17,2.32,0,4.69-.08,7.05,0,4.06.19,6.75,2.69,7,6.33,0,.15,0,.3,0,.45a6.89,6.89,0,0,1-6.54,6.8c-2.38.23-4.8,0-7.44,0-4.77,22.24-18.1,35.87-40.79,40.78,0,2.44.13,4.71,0,7-.29,4.21-3.14,7.06-6.83,7.06h-.36c-3.79-.18-6.29-3-6.45-7.27-.08-2.25,0-4.51,0-6.71-22.56-4.85-36.08-18.31-40.89-40.77-2.36,0-4.62.11-6.87,0-4.4-.28-7.26-3.21-7.12-7.11s2.95-6.32,7.21-6.54c6.63-.34,6.36-.44,8.52-6.58,1.85-5.25,4.41-10.25,6.68-15.4l-22.23-21.76c-.11.87-.21,2.22-.43,3.56a6.33,6.33,0,0,1-6.24,5.73c-3.46.22-6.58-1.52-6.77-4.93A204.6,204.6,0,0,1,318.7,323c.24-3.67,3.78-4.89,7.28-4.92,6,0,12-.06,18.07,0,5.14.06,8.24,2.61,8.35,6.72s-2.76,6.65-8,7A6.84,6.84,0,0,0,343.55,331.9Zm83.09,54.66c-1.13-12.24-14.57-25.66-26-25.92-.06,1.18-.15,2.37-.16,3.55,0,7.34,0,14.68,0,22.58,8.23,0,15.83,0,23.43,0C424.83,386.76,425.74,386.63,426.64,386.56Zm-25.82,40.29c13.38-2.79,24.66-14.3,25.82-26.21H400.82Zm-14.05-40.08c0-8.4,0-16.13,0-23.87a18.44,18.44,0,0,0-.27-2.25c-9.89-.13-25.48,13.27-25.82,26.12h26.1Z"/>
      <path class="cls-2" d="M249.89,167.4a82.2,82.2,0,1,1-82.48,81.89A82.06,82.06,0,0,1,249.89,167.4ZM223.21,274c3.94,3.88,7.08,4.09,11.24.47q26.78-23.33,53.44-46.76c3.85-3.38,4.26-7.37,1.35-10.51-2.76-3-6.66-2.94-10.31.21-4.75,4.11-9.46,8.27-14.2,12.41l-35.79,31.27c-1.46-1.74-2.61-3.22-3.88-4.6s-2.61-2.68-4-4c-3.72-3.55-7.59-3.82-10.56-.74s-2.53,6.95,1.05,10.58Q217.36,268.27,223.21,274Z"/>
      <path class="cls-1" d="M221.09,252.56c1.36,1.29,2.71,2.59,4,4s2.42,2.86,3.88,4.6l35.79-31.27c4.74-4.14,9.45-8.3,14.2-12.41,3.65-3.15,7.55-3.19,10.31-.21,2.91,3.14,2.5,7.13-1.35,10.51q-26.67,23.43-53.44,46.76c-4.16,3.62-7.3,3.41-11.24-.47s-7.78-7.73-11.63-11.64c-3.58-3.63-4-7.59-1.05-10.58S217.37,249,221.09,252.56Z"/>
      <path class="cls-2" d="M105.34,167c-8.53-.22-6.14-8-6.79-13.83-10.21-2-19.42-6.24-26.87-13.77a48.86,48.86,0,0,1-13.52-26.84c-5.18-.5-10.9,1.19-14.22-4.38v-4.82c3.14-6,9-4.36,14.21-4.83,1.9-10.43,6.24-19.39,13.62-26.79S88.37,60,98.49,58.1c.83-11.07.83-11.07,4.9-14.16h4.82c5.57,3.32,3.88,9,4.36,14,22.33,4.75,35.85,18.21,40.71,40.75,2.27,0,4.52-.1,6.75,0,4.45.25,7.31,3.06,7.26,7s-3,6.53-7.47,6.68c-2.12.07-4.24,0-5.65,0-3.16,7.64-6.1,14.75-9,21.81l22.09,22c.05-.71.08-1.72.19-2.73.4-4,3-6.6,6.66-6.65a6.73,6.73,0,0,1,6.88,6.46c.29,3.6.12,7.22.13,10.83,0,3.08.09,6.16,0,9.23-.19,5.09-2.68,7.65-7.77,7.75-6.28.14-12.58.13-18.86,0-4.73-.09-7.71-3-7.65-7s2.75-6.32,7.47-6.68l1.85-.16-21.92-22.1-21.68,9C111.68,158.82,114.74,167.27,105.34,167Zm-33-54.61C74.8,126,87,138,98.51,138.63V112.42H72.31Zm66.38-13.93c-1.19-12.28-15.09-25.87-26-25.75V98.49Zm-26,40.08c14-.87,26.4-17.27,25.83-25.81H112.67ZM98.5,98.36V72.42c-12.88,2-25.52,14.9-25.78,25.94Z"/>
      <path class="cls-2" d="M43.94,391c3.32-5.59,9-3.87,13.89-4.35,8-25.63,14-31.63,40.89-40.9,0-2-.07-4.1,0-6.22.19-4.7,3-7.7,7-7.61s6.46,3,6.63,7.52a13.88,13.88,0,0,1,0,2.81c-.48,3,1,3.84,3.78,4.72,6.18,2,12.12,4.66,17.91,7L156,332c-.65-.05-1.81-.09-3-.23a6.68,6.68,0,0,1-6.21-6.67,6.56,6.56,0,0,1,6.12-6.76c5.07-.34,10.17-.19,15.25-.2,12.05,0,12.94.9,12.94,13.09,0,4.15,0,8.3,0,12.45,0,5.46-2.51,8.65-6.71,8.77s-6.65-2.76-7-8.39a2.39,2.39,0,0,0-.09-.55.66.66,0,0,0,0,.11l-21.9,22.09,8.81,21.14c1.46,0,3.83-.09,6.18,0,4,.2,6.71,2.8,6.89,6.43s-2.52,6.79-6.64,7.15c-2.38.21-4.79,0-7.33,0-4.83,22.4-18.25,36-40.94,40.79,0,2.44.13,5,0,7.47a6.62,6.62,0,0,1-6.35,6.52h-.38a6.85,6.85,0,0,1-6.7-5.82,25.29,25.29,0,0,1-.19-4c0-1.32,0-2.65,0-4.18-22.23-4.79-35.85-18.15-40.7-40.61-5-.45-10.92,1.19-14.07-4.81Zm28.42,9.68c2.46,13.15,13.74,24.32,26.1,26.07V400.67Zm66.33-14.12c-.59-11.24-14.68-26.19-26-25.68v25.68Zm-26,40.13c12.59-1.48,25.94-14.95,25.83-25.84H112.65ZM98.71,386.47c0-7.92,0-15.53,0-23.14,0-.92-.14-1.83-.22-2.74-11.58.55-25,14.08-25.89,25.88Z"/>
      <path class="cls-1" d="M138.69,386.55h-26V360.87C124,360.36,138.1,375.31,138.69,386.55Z"/>
      <path class="cls-1" d="M138.69,98.49h-26V72.74C123.6,72.62,137.5,86.21,138.69,98.49Z"/>
      <path class="cls-1" d="M138.48,400.84c.11,10.89-13.24,24.36-25.83,25.84V400.84Z"/>
      <path class="cls-1" d="M138.5,112.76c.57,8.54-11.87,24.94-25.83,25.81V112.76Z"/>
      <path class="cls-1" d="M167.41,249.29a82.19,82.19,0,1,0,82.48-81.89A82.06,82.06,0,0,0,167.41,249.29ZM71.68,139.43C79.13,147,88.34,151.2,98.55,153.2c.65,5.79-1.74,13.61,6.79,13.83,9.4.24,6.34-8.21,7.18-12.88l21.68-9,21.92,22.1-1.85.16c-4.72.36-7.41,2.76-7.47,6.68s2.92,6.9,7.65,7c6.28.13,12.58.14,18.86,0,5.09-.1,7.58-2.66,7.77-7.75.12-3.07,0-6.15,0-9.23,0-3.61.16-7.23-.13-10.83a6.73,6.73,0,0,0-6.88-6.46c-3.67,0-6.26,2.63-6.66,6.65-.11,1-.14,2-.19,2.73l-22.09-22c2.91-7.06,5.85-14.17,9-21.81,1.41,0,3.53.06,5.65,0,4.51-.15,7.41-2.78,7.47-6.68s-2.81-6.73-7.26-7c-2.23-.12-4.48,0-6.75,0-4.86-22.54-18.38-36-40.71-40.75-.48-5,1.21-10.72-4.36-14H391c-5.59,3.32-3.87,9-4.38,14.19A49.32,49.32,0,0,0,359.75,71.7c-7.52,7.45-11.81,16.64-13.78,27.08-2.86,0-5.28-.19-7.65,0a6.77,6.77,0,0,0-6.41,7c.09,3.65,2.78,6.33,6.73,6.59a49.86,49.86,0,0,1,5.2.14,3.71,3.71,0,0,1,2.51,1.78c2.65,6.77,5.11,13.61,7.42,19.87L331.93,155.9c0-.07-.08-.69-.12-1.31-.36-5-2.74-7.78-6.79-7.79s-6.84,3.08-6.91,8.15c-.08,6,0,12.05,0,18.07,0,3.67,1.23,7.28,5.13,7.53a206.62,206.62,0,0,0,24,.06c3.43-.18,5.14-3.18,5.14-6.66a6.58,6.58,0,0,0-6-6.45c-1.25-.17-2.52-.26-3.59-.37l22-22.07,22,9.14c0,1.78-.13,4.19,0,6.58a6.65,6.65,0,0,0,6.38,6.5,6.78,6.78,0,0,0,7.05-5.84,16.15,16.15,0,0,0,.16-4.39c-.3-2.86.6-4.05,3.66-4.79,16.66-4,28.2-14.12,34.36-30.17,1.17-3.07,1.91-6.31,2.9-9.67,2.13,0,4.13,0,6.12,0,4.78-.12,7.74-2.74,7.74-6.78h.84v288h-.84c0-.15,0-.3,0-.45-.24-3.64-2.93-6.14-7-6.33-2.36-.1-4.73,0-7.05,0-.49-2.06-.8-3.64-1.24-5.17-4.72-16.66-15.16-28.18-31.65-33.45-5.36-1.72-9.42-3-7.87-9.67a2,2,0,0,0-.11-.79,6.85,6.85,0,0,0-7.1-5.79,6.65,6.65,0,0,0-6.36,6.52c-.15,2.38,0,4.79,0,6.56l-21.21,8.8-22.07-21.9a6.84,6.84,0,0,1,.86-.09c5.23-.34,8.1-2.85,8-7s-3.21-6.66-8.35-6.72c-6-.06-12.05,0-18.07,0-3.5,0-7,1.25-7.28,4.92a204.6,204.6,0,0,0-.05,24.39c.19,3.41,3.31,5.15,6.77,4.93a6.33,6.33,0,0,0,6.24-5.73c.22-1.34.32-2.69.43-3.56l22.23,21.76c-2.27,5.15-4.83,10.15-6.68,15.4-2.16,6.14-1.89,6.24-8.52,6.58-4.26.22-7.07,2.77-7.21,6.54s2.72,6.83,7.12,7.11c2.25.14,4.51,0,6.87,0,4.81,22.46,18.33,35.92,40.89,40.77,0,2.2-.07,4.46,0,6.71.16,4.32,2.66,7.09,6.45,7.27h.36v.84h-288v-.84H106a6.62,6.62,0,0,0,6.35-6.52c.16-2.51,0-5,0-7.47,22.69-4.82,36.11-18.39,40.94-40.79,2.54,0,4.95.17,7.33,0,4.12-.36,6.82-3.39,6.64-7.15s-2.89-6.23-6.89-6.43c-2.35-.11-4.72,0-6.18,0l-8.81-21.14,21.9-22.09a.66.66,0,0,1,0-.11,2.39,2.39,0,0,1,.09.55c.36,5.63,2.77,8.52,7,8.39s6.66-3.31,6.71-8.77c0-4.15,0-8.3,0-12.45,0-12.19-.89-13.11-12.94-13.09-5.08,0-10.18-.14-15.25.2a6.56,6.56,0,0,0-6.12,6.76,6.68,6.68,0,0,0,6.21,6.67c1.15.14,2.31.18,3,.23l-21.88,22c-5.79-2.3-11.73-5-17.91-7-2.78-.88-4.26-1.69-3.78-4.72a13.88,13.88,0,0,0,0-2.81c-.17-4.54-2.73-7.43-6.63-7.52s-6.86,2.91-7,7.61c-.08,2.12,0,4.24,0,6.22C71.85,355,65.87,361,57.83,386.64c-4.85.48-10.57-1.24-13.89,4.35V108.21c3.32,5.57,9,3.88,14.22,4.38A48.86,48.86,0,0,0,71.68,139.43Z"/>
      <path class="cls-1" d="M43.94,395.81c3.15,6,9.08,4.36,14.07,4.81,4.85,22.46,18.47,35.82,40.7,40.61,0,1.53,0,2.86,0,4.18a25.29,25.29,0,0,0,.19,4,6.85,6.85,0,0,0,6.7,5.82v.84H43.94Z"/>
      <path class="cls-1" d="M43.94,43.94h59.45C99.32,47,99.32,47,98.49,58.1,88.37,60,79.23,64.3,71.77,71.77S60.05,88.13,58.15,98.56C53,99,47.08,97.39,43.94,103.39Z"/>
      <path class="cls-1" d="M98.51,112.42v26.21C87,138,74.8,126,72.31,112.42h26.2Z"/>
      <path class="cls-1" d="M98.5,72.42V98.36H72.72C73,87.32,85.62,74.46,98.5,72.42Z"/>
      <path class="cls-1" d="M72.59,386.47c.84-11.8,14.31-25.33,25.89-25.88.08.91.22,1.82.22,2.74,0,7.61,0,15.22,0,23.14Z"/>
      <path class="cls-1" d="M72.36,400.67h26.1v26.07C86.1,425,74.82,413.82,72.36,400.67Z"/>
    </g>
  </g>
</svg>
