<svg xmlns="http://www.w3.org/2000/svg" viewBox="0 0 500 500">
  <defs>
    <style>
      .cls-1 {
        fill: #fff;
      }

      .cls-2 {
        fill: #6259fa;
      }
    </style>
  </defs>
  <g id="Layer_9" data-name="Layer 9">
    <g>
      <path class="cls-1" d="M442,64.74V87.2c-1.75-3.23-3.59-6.41-5.2-9.71a4,4,0,0,1,0-3C438.44,71.18,440.26,68,442,64.74Z"/>
      <path class="cls-1" d="M343.62,441.17c3,0,4.72-1.78,5-4.83.12-1.23.09-2.49.09-3.73q0-32,0-64v-4.23h82.85c0,23.27,0,46.22,0,69.17,0,3,.09,5.82,3.32,7.26s5.07-.76,7.11-2.55V442H343.62Z"/>
      <path class="cls-1" d="M428.37,68.68c-4.12,5-4.08,9.7-.05,14.69H395.4V68.68Z"/>
      <path class="cls-1" d="M336.72,159.59c-6.7,8.59-17.16,8.63-23.8,0-5.74-7.5-7.13-16.14-5.13-25.17,1.95-8.82,8.67-12.88,19.1-12.16,8.81.6,14.46,5.81,15.5,14.36.19,1.6.19,3.23.24,4.1C342.55,148.11,340.88,154.28,336.72,159.59Z"/>
      <path class="cls-1" d="M255.53,435.57c.05-.87,0-1.75,0-2.62V385.12a14,14,0,0,1,1.84-.3q39.12,0,78.23-.07c2.44,0,2.88,1.05,2.86,3.17-.07,10.47,0,20.95,0,31.43,0,5.62,0,11.23.08,16.84a4.68,4.68,0,0,0,5,5h.12V442H250.35v-.78C253.29,441.22,255.33,439,255.53,435.57Z"/>
      <path class="cls-2" d="M318.86,353.9c-1.64,0-3.39-2.19-4.87-3.65-.47-.47-.26-1.68-.26-2.54q0-36.31,0-72.61c0-.37,0-.75,0-1.12.35-4.8,3.87-6.94,8.1-4.6,14.83,8.2,29.64,16.44,44.29,25a7.91,7.91,0,0,1,3.13,5.73c.33,9.35.18,18.71.13,28.07,0,3.65-2.22,6.05-5.25,6s-5-2.31-5.09-5.81c-.1-7.86,0-15.72-.11-23.58a4.83,4.83,0,0,0-1.75-3.57c-10.46-6-21-11.91-31.59-17.81A8.69,8.69,0,0,0,324,283V305q0,20.58,0,41.17c0,1.36.37,3.12-.32,4C322.41,351.8,320.5,353.9,318.86,353.9Z"/>
      <path class="cls-1" d="M250.35,442H157.22v-.77c3.17-.09,5-2.38,5-6.58,0-6.74,0-13.48,0-20.21v-12h82.9v4.26c0,9.61,0,19.21,0,28.82,0,3.44,2.21,5.69,5.14,5.71h0Z"/>
      <path class="cls-1" d="M142.7,201.53c-.06,7.31-1.77,13.58-6.19,18.88-6.28,7.54-15.62,7.82-21.88.29-6.69-8-8.3-17.45-5.15-27.36,2.4-7.54,9.43-10.82,19.24-9.66,7.76.91,12.8,6,13.75,13.89C142.65,199.05,142.65,200.55,142.7,201.53Z"/>
      <path class="cls-2" d="M126.44,393.07c-3,.17-4.86-1.66-5.37-4.64a17.52,17.52,0,0,1-.11-3q0-30.09,0-60.18c0-7.43,3.51-9.54,9.89-6,13.47,7.53,26.89,15.16,40.42,22.59,3.26,1.78,4.62,4.08,4.5,7.77-.19,6.35,0,12.71-.07,19.06,0,4-1.86,6-5,6.08s-5.12-2.06-5.19-5.93c-.09-5.24.06-10.47-.1-15.7,0-1.17-.63-2.87-1.51-3.37-10.54-6.08-21.18-12-32.51-18.33V378.6c0,3.11.05,6.23,0,9.34S129.38,392.9,126.44,393.07Z"/>
      <path class="cls-2" d="M312.92,159.56c6.64,8.66,17.1,8.62,23.8,0,4.16-5.31,5.83-11.48,5.91-18.9-.05-.87-.05-2.5-.24-4.1-1-8.55-6.69-13.76-15.5-14.36-10.43-.72-17.15,3.34-19.1,12.16C305.79,143.42,307.18,152.06,312.92,159.56Zm-194,14c15.77-3.23,29.67,4.49,33.06,18.84,2.9,12.29.61,23.75-7.12,33.94-.66.88-1.39,1.71-2.51,3.09,1.58.11,2.72.26,3.86.26,11.35,0,22.76.71,34-.23,7.41-.63,14.75-3.26,21.9-5.64q22.34-7.43,44.4-15.64a22.32,22.32,0,0,0,8.08-5.69c6.12-6.57,11.73-13.59,17.77-20.24,7.09-7.8,15.9-11.8,26.62-11.26,3.21.17,6.44,0,10.33,0-1-1.17-1.55-1.88-2.16-2.55-10-11.11-12.76-24-9-38.26,2.89-10.82,11.76-17.48,22.94-18.37,22.82-1.83,34.41,13.62,31.44,35.49a38.68,38.68,0,0,1-11.78,23h30.91v-4c0-8.49,0-17,.06-25.45.05-7.88,3.55-13.71,10.81-16.83,2.39-1,2.29-2.52,2.29-4.41,0-18.09,0-36.18-.06-54.26,0-3.09.65-5.61,3.28-7.39H442v6.74c-1.74,3.24-3.56,6.44-5.16,9.75a4,4,0,0,0,0,3c1.61,3.3,3.45,6.48,5.2,9.71v3.74c-2,2.63-4.7,3.17-7.87,3.14-11.48-.13-22.95,0-34.43,0h-4.56v15.55c0,1.62.08,3.25,0,4.87-.29,5-.45,9.31,5.55,12.12,4.88,2.29,6.82,7.78,6.84,13.36.06,16.09.12,32.18,0,48.27a17.32,17.32,0,0,1-16.17,17.48c-7.7.69-15.45.76-23.17,1.13-9.59.46-15.29,6.44-15.33,16.13,0,10.1.06,20.21-.06,30.31a4.65,4.65,0,0,0,2.7,4.71c12.78,7.26,25.44,14.75,38.25,22,3.38,1.91,4.7,4.34,4.66,8.14-.13,12.84-.05,25.69-.06,38.54a17.36,17.36,0,0,1-.16,3c-.49,2.86-2.31,4.56-5.13,4.47a4.76,4.76,0,0,1-5-5c-.12-3.12,0-6.24-.06-9.36,0-9.1-.14-18.21.09-27.31.07-3-1-4.4-3.45-5.79-12.59-7.1-25-14.48-37.62-21.57-3.35-1.89-4.72-4.25-4.65-8.11.19-11.47,0-23,.08-34.43.07-14.9,10.62-25.61,25.58-26.08,6.73-.21,13.46-.49,20.19-.79,6.42-.28,8.92-2.91,8.93-9.4q0-22.26,0-44.53c0-5.71-2.63-8.85-7.3-8.87-4.95,0-7.64,3.08-7.66,8.94,0,9.49,0,19-.05,28.45,0,7.4-3.89,11.25-11.36,11.26-24,0-47.91.18-71.87-.09-7.71-.09-13.92,2.42-18.95,8-5.44,6-10.83,12.08-15.93,18.37a32.65,32.65,0,0,1-16,11.12c-5.21,1.63-10.31,3.61-14.77,5.19,1.58,4.76,3.07,9.28,4.73,14.26,9-2.87,18.67-5.83,28.26-9.17,2-.69,3.61-2.62,5.12-4.23,4.26-4.56,8.21-9.43,12.65-13.78a8.45,8.45,0,0,1,6.1-2.2c2.75.34,3.63,3,3.63,5.76q0,66.61,0,133.23c0,3.94-2.21,6.39-5.38,6.26s-5-2.52-5-6.63q0-57.63,0-115.26v-4c-.58.09-.9,0-1,.16-6.39,9.17-16.28,12-26.25,15.17-19,6-37.81,12.56-56.79,18.6A73.69,73.69,0,0,1,185,264.66c-3.45.38-7,0-10.47.09-8.8.19-14.86,6.09-15,14.8-.14,7.86-.18,15.72.09,23.57a6.12,6.12,0,0,0,2.76,4.13q18.48,11,37.19,21.57c3,1.74,4.46,3.89,4.41,7.48-.16,10.6-.05,21.2-.07,31.81,0,4.46-1.79,6.7-5.22,6.67s-5.15-2.32-5.16-6.8c0-9-.12-18,.06-26.94a5.39,5.39,0,0,0-3.15-5.57c-12.38-7-24.59-14.23-37-21.24-3.06-1.73-4.47-3.86-4.4-7.45.18-9,0-18,.08-26.95.12-13.91,9.56-24.07,23.42-25.32a11.27,11.27,0,0,1,2.24-.12c17.25,2.21,31.94-6.29,47.41-11.43,3.75-1.25,5.24-5.35,3.94-9s-5.14-5.48-9.2-4.16c-8.17,2.65-16.24,5.66-24.46,8.12a43.55,43.55,0,0,1-12.06,2c-24.58.17-49.16-.09-73.73.21A58.81,58.81,0,0,0,89.92,243c-6.91,2.2-9.46,6.7-9.46,14q0,29.38,0,58.76c0,7.67,4,13.27,11,14.93V266.38c0-1.24,0-2.5.08-3.74.26-2.91,2-4.62,4.82-4.73,3.06-.11,4.88,1.6,5.27,4.66a27,27,0,0,1,.12,3.37v119c0,5.69-1.73,8.33-5.33,8.21-3.43-.12-5-2.61-5-8.14,0-13.22-.06-26.45,0-39.67,0-2.32-.53-3.44-2.93-4.21-11.72-3.77-18.41-13-18.45-25.24-.07-19.71,0-39.42,0-59.13C70,245.79,75,237.84,85,234c6-2.33,12.76-2.9,19.19-4.18a26.78,26.78,0,0,1,4.38,0L106,226.35a39,39,0,0,1-7.17-33.57C101.24,182.15,108.2,175.8,118.9,173.6Zm17.61,46.81c4.42-5.3,6.13-11.57,6.19-18.88,0-1,0-2.48-.23-4-.95-7.91-6-13-13.75-13.89-9.81-1.16-16.84,2.12-19.24,9.66-3.15,9.91-1.54,19.31,5.15,27.36C120.89,228.23,130.23,228,136.51,220.41Zm291.81-137c-4-5-4.07-9.7.05-14.69h-33V83.37Z"/>
      <path class="cls-2" d="M64,441.22c-3.27.08-5.27-2.41-5.29-6.69q0-4.11,0-8.24t0-8.23c0-5,1.77-6.73,6.76-6.74q41,0,82,0h4.51c0-4.12,0-8,0-11.79,0-6.44,1.29-7.72,7.62-7.72h85.57v-9.31c0-6.74,1.26-8,8.12-8h85.2c0-4.66,0-9.1,0-13.54,0-5.85,1.45-7.28,7.29-7.28,29.44,0,58.89,0,88.33-.06,3.19,0,5.84.57,7.92,3.05v81.59c-2,1.79-3.92,4-7.11,2.55s-3.32-4.28-3.32-7.26c0-22.95,0-45.9,0-69.17H348.74v4.23q0,32,0,64c0,1.24,0,2.5-.09,3.73-.3,3.05-2.05,4.83-5,4.83h-.12a4.68,4.68,0,0,1-5-5c-.12-5.61-.07-11.22-.08-16.84,0-10.48,0-21,0-31.43,0-2.12-.42-3.17-2.86-3.17q-39.11.11-78.23.07a14,14,0,0,0-1.84.3V433c0,.87,0,1.75,0,2.62-.2,3.42-2.24,5.65-5.18,5.65h0c-2.93,0-5.12-2.27-5.14-5.71-.08-9.61,0-19.21,0-28.82v-4.26h-82.9v12c0,6.73,0,13.47,0,20.21,0,4.2-1.82,6.49-5,6.58s-5.21-2.3-5.27-6.7c0-4.1,0-8.19,0-12.54H69.09c0,4.28,0,8.49,0,12.69S67.13,441.15,64,441.22Z"/>
      <path class="cls-1" d="M157.22,442H58V426.29h.67q0,4.13,0,8.24c0,4.28,2,6.77,5.29,6.69s5.05-2.47,5.1-6.54,0-8.41,0-12.69h82.85c0,4.35,0,8.44,0,12.54.06,4.4,2,6.78,5.27,6.7Z"/>
      <path class="cls-1" d="M318.86,353.9c1.64,0,3.55-2.1,4.8-3.71.69-.89.32-2.65.32-4q0-20.6,0-41.17V283a8.69,8.69,0,0,1,1.61.39c10.55,5.9,21.13,11.76,31.59,17.81a4.83,4.83,0,0,1,1.75,3.57c.15,7.86,0,15.72.11,23.58.05,3.5,2.17,5.74,5.09,5.81s5.23-2.32,5.25-6c.05-9.36.2-18.72-.13-28.07a7.91,7.91,0,0,0-3.13-5.73c-14.65-8.52-29.46-16.76-44.29-25-4.23-2.34-7.75-.2-8.1,4.6,0,.37,0,.75,0,1.12q0,36.3,0,72.61c0,.86-.21,2.07.26,2.54C315.47,351.71,317.22,353.91,318.86,353.9ZM98.78,192.78A39,39,0,0,0,106,226.35l2.61,3.41a26.78,26.78,0,0,0-4.38,0C97.75,231.07,91,231.64,85,234c-10,3.87-15,11.82-14.94,22.79.08,19.71,0,39.42,0,59.13,0,12.27,6.73,21.47,18.45,25.24,2.4.77,2.95,1.89,2.93,4.21-.11,13.22-.06,26.45,0,39.67,0,5.53,1.53,8,5,8.14,3.6.12,5.33-2.52,5.33-8.21v-119a27,27,0,0,0-.12-3.37c-.39-3.06-2.21-4.77-5.27-4.66-2.87.11-4.56,1.82-4.82,4.73-.12,1.24-.08,2.5-.08,3.74v64.31c-6.9-1.66-10.94-7.26-11-14.93q-.07-29.38,0-58.76c0-7.28,2.55-11.78,9.46-14a58.81,58.81,0,0,1,16.82-2.86c24.57-.3,49.15,0,73.73-.21a43.55,43.55,0,0,0,12.06-2c8.22-2.46,16.29-5.47,24.46-8.12,4.06-1.32,7.9.54,9.2,4.16s-.19,7.71-3.94,9c-15.47,5.14-30.16,13.64-47.41,11.43a11.27,11.27,0,0,0-2.24.12c-13.86,1.25-23.3,11.41-23.42,25.32-.08,9,.1,18-.08,26.95-.07,3.59,1.34,5.72,4.4,7.45,12.37,7,24.58,14.27,37,21.24a5.39,5.39,0,0,1,3.15,5.57c-.18,9-.09,18-.06,26.94,0,4.48,1.79,6.77,5.16,6.8s5.21-2.21,5.22-6.67c0-10.61-.09-21.21.07-31.81.05-3.59-1.36-5.74-4.41-7.48q-18.69-10.6-37.19-21.57a6.12,6.12,0,0,1-2.76-4.13c-.27-7.85-.23-15.71-.09-23.57.16-8.71,6.22-14.61,15-14.8,3.49-.07,7,.29,10.47-.09a73.69,73.69,0,0,0,14.23-2.47c19-6,37.78-12.64,56.79-18.6,10-3.13,19.86-6,26.25-15.17.09-.12.41-.07,1-.16v4q0,57.63,0,115.26c0,4.11,1.87,6.51,5,6.63s5.38-2.32,5.38-6.26q0-66.62,0-133.23c0-2.77-.88-5.42-3.63-5.76a8.45,8.45,0,0,0-6.1,2.2c-4.44,4.35-8.39,9.22-12.65,13.78-1.51,1.61-3.15,3.54-5.12,4.23-9.59,3.34-19.3,6.3-28.26,9.17-1.66-5-3.15-9.5-4.73-14.26,4.46-1.58,9.56-3.56,14.77-5.19a32.65,32.65,0,0,0,16-11.12c5.1-6.29,10.49-12.37,15.93-18.37,5-5.55,11.24-8.06,18.95-8,24,.27,47.91.11,71.87.09,7.47,0,11.32-3.86,11.36-11.26,0-9.48,0-19,.05-28.45,0-5.86,2.71-9,7.66-8.94,4.67,0,7.29,3.16,7.3,8.87q0,22.26,0,44.53c0,6.49-2.51,9.12-8.93,9.4-6.73.3-13.46.58-20.19.79-15,.47-25.51,11.18-25.58,26.08-.05,11.48.11,23-.08,34.43-.07,3.86,1.3,6.22,4.65,8.11,12.59,7.09,25,14.47,37.62,21.57,2.46,1.39,3.52,2.83,3.45,5.79-.23,9.1-.09,18.21-.09,27.31,0,3.12-.06,6.24.06,9.36a4.76,4.76,0,0,0,5,5c2.82.09,4.64-1.61,5.13-4.47a17.36,17.36,0,0,0,.16-3c0-12.85-.07-25.7.06-38.54,0-3.8-1.28-6.23-4.66-8.14-12.81-7.21-25.47-14.7-38.25-22a4.65,4.65,0,0,1-2.7-4.71c.12-10.1,0-20.21.06-30.31,0-9.69,5.74-15.67,15.33-16.13,7.72-.37,15.47-.44,23.17-1.13a17.32,17.32,0,0,0,16.17-17.48c.14-16.09.08-32.18,0-48.27,0-5.58-2-11.07-6.84-13.36-6-2.81-5.84-7.11-5.55-12.12.1-1.62,0-3.25,0-4.87V94h4.56c11.48,0,22.95-.08,34.43,0,3.17,0,5.87-.51,7.87-3.14V356.67c-2.08-2.48-4.73-3.06-7.92-3.05-29.44.1-58.89.05-88.33.06-5.84,0-7.26,1.43-7.29,7.28,0,4.44,0,8.88,0,13.54h-85.2c-6.86,0-8.11,1.24-8.12,8v9.31H159.56c-6.33,0-7.59,1.28-7.62,7.72,0,3.83,0,7.67,0,11.79h-4.51q-41,0-82,0c-5,0-6.73,1.77-6.76,6.74q0,4.13,0,8.23H58V58H388.09c-2.63,1.78-3.3,4.3-3.28,7.39.1,18.08,0,36.17.06,54.26,0,1.89.1,3.38-2.29,4.41-7.26,3.12-10.76,8.95-10.81,16.83,0,8.48,0,17-.06,25.45v4H340.8a38.68,38.68,0,0,0,11.78-23c3-21.87-8.62-37.32-31.44-35.49-11.18.89-20.05,7.55-22.94,18.37-3.79,14.21-1.06,27.15,9,38.26.61.67,1.17,1.38,2.16,2.55-3.89,0-7.12.14-10.33,0-10.72-.54-19.53,3.46-26.62,11.26-6,6.65-11.65,13.67-17.77,20.24a22.32,22.32,0,0,1-8.08,5.69q-22.07,8.17-44.4,15.64c-7.15,2.38-14.49,5-21.9,5.64-11.28.94-22.69.25-34,.23-1.14,0-2.28-.15-3.86-.26,1.12-1.38,1.85-2.21,2.51-3.09,7.73-10.19,10-21.65,7.12-33.94-3.39-14.35-17.29-22.07-33.06-18.84C108.2,175.8,101.24,182.15,98.78,192.78Zm22.29,195.65c.51,3,2.36,4.81,5.37,4.64s4.78-2,4.87-5.13,0-6.23,0-9.34V331.46c11.33,6.35,22,12.25,32.51,18.33.88.5,1.47,2.2,1.51,3.37.16,5.23,0,10.46.1,15.7.07,3.87,2,6,5.19,5.93s5-2.13,5-6.08c.07-6.35-.12-12.71.07-19.06.12-3.69-1.24-6-4.5-7.77-13.53-7.43-27-15.06-40.42-22.59-6.38-3.57-9.88-1.46-9.89,6q0,30.09,0,60.18A17.52,17.52,0,0,0,121.07,388.43Z"/>
    </g>
  </g>
</svg>
