<svg xmlns="http://www.w3.org/2000/svg" viewBox="0 0 500 500">
  <defs>
    <style>
      .cls-1 {
        fill: #fff;
      }

      .cls-2 {
        fill: #6259fa;
      }
    </style>
  </defs>
  <g id="Layer_9" data-name="Layer 9">
    <g>
      <path class="cls-1" d="M465.7,447.19v18.5H439.33v-.84C454.69,464.85,459.86,461.39,465.7,447.19Z"/>
      <path class="cls-2" d="M465.7,381.6v65.59c-5.84,14.2-11,17.66-26.37,17.66H390.15q-24.86,0-24.89-24.7,0-9,0-18H315.07c0,6.58,0,12.87,0,19.16-.05,14.65-8.93,23.52-23.6,23.53h-82c-14.89,0-23.68-8.86-23.71-23.85,0-6.26,0-12.51,0-18.84H135.47c0,7.7.31,15.12-.07,22.5a20.86,20.86,0,0,1-20.81,20.12q-14.61.14-29.22.14t-29.21-.14a21.11,21.11,0,0,1-20.95-20.95q-.14-14.4-.13-28.8,0-14.82.13-29.64c.1-11.13,8.63-20.47,19.72-20.71,20.3-.43,40.63-.35,60.94,0,9.16.15,16.85,6.95,18.95,15.82a45.75,45.75,0,0,1,.73,9.6c.11,5.7,0,11.4,0,17.08h50.49c-2.65-27.64,5.54-49.45,32.52-61.33-11.87-10.3-17.82-23-18.58-38.17,0-.92-1.71-2.33-2.81-2.54-10.86-2.06-21.76-3.93-32.65-5.83-7.11-1.23-14.24-2.41-21.77-3.68,0,3.84,0,7.18,0,10.52-.11,13.06-9.17,22.31-22.18,22.39q-28.17.17-56.34,0c-12.45-.08-21.63-8.9-21.81-21.37q-.41-28.8,0-57.59c.16-12.25,8.63-21.15,20.85-21.4q29.21-.61,58.43,0c12.54.26,20.93,9.58,21.06,22.13,0,3.36,0,6.72,0,10.09,0,6.81,0,13.62,0,20.63l59,10.19,12.05-19.79c-17.89-23.17-36-46.7-54.29-70.1-1-1.23-3.31-1.93-5-1.94-17.79-.14-35.59-.05-53.39-.1-14,0-22.91-8.93-23-22.83q-.09-27.31,0-54.65c0-13.88,9-22.79,23-22.82,17.8,0,35.61.44,53.39-.16,13.91-.46,24.68,9.33,24.31,24.28-.39,16-.21,32,0,47.92.09,8.3-.28,16.32-7,22.5l53.64,69.42c4.85-1.72,9.08-3.78,13.54-4.63,3.66-.69,4.35-2.19,4.34-5.54-.11-37.7-.07-75.39-.07-113.09v-4.93c-7.42,0-14.27.13-21.1,0-13-.32-21.87-9.22-22-22.16q-.21-28.16,0-56.33c.07-10.24,5.91-17.86,15.59-21.06a18.49,18.49,0,0,0,1.87-.85h65.59c14.16,6,17.5,11.13,17.5,27q0,24.6,0,49.19c0,15.62-8.56,24.23-24.11,24.29-6.14,0-12.28,0-19,0v118a7.16,7.16,0,0,0,.08,2.5c.37.9,1,2.09,1.79,2.35,5.25,1.78,10.56,3.35,16.13,5.07L329,193.6a23.53,23.53,0,0,1-6.9-17.17c0-18.22-.06-36.44,0-54.66.08-14,9-22.78,23-22.81q27.12-.06,54.24,0c14.48,0,23.31,8.82,23.34,23.3q.06,26.69,0,53.39c0,14.81-8.73,23.59-23.45,23.62-17.52,0-35,.07-52.56-.06a7,7,0,0,0-6.32,3q-25.71,33.52-51.59,66.9c-.74,1-1.44,1.95-1.68,2.27,3.4,5.7,6.95,10.63,9.35,16.07,1.5,3.41,3.14,3.77,6.26,3.21,17.36-3.12,34.73-6.19,52.12-9.07,2.77-.46,3.31-1.62,3.28-4.11-.12-9-.09-17.94,0-26.91.06-12.85,8.44-22.2,21.15-22.46,19.33-.39,38.68-.35,58,0,11.95.2,20.82,8.68,21.05,20.29q.58,29.84,0,59.69c-.22,11.59-9.38,20.25-21,20.38q-29,.33-58,0c-12.06-.15-21-9.55-21.21-21.62-.06-3.62,0-7.24,0-11-1.23.07-2.06,0-2.87.17-16.95,3-33.89,6-50.88,8.84-2.81.47-3.58,1.45-3.73,4.19A49.78,49.78,0,0,1,284,344.22a12,12,0,0,0-1.15,1.33c4.9,3.17,9.94,5.77,14.18,9.32,12,10,17.69,23.18,18,38.72.08,4.55,0,9.11,0,13.68h50.21c0-7.07-.12-13.91,0-20.74.27-13.14,8.85-21.92,22-22,18.77-.2,37.56-.16,56.34,0,10.76.08,17.81,5.5,21.3,15.73A8.14,8.14,0,0,0,465.7,381.6Zm-14.33,32.79c0-9,0-17.92,0-26.89,0-6.12-2.54-8.66-8.7-8.68q-27.32-.07-54.63,0c-5.93,0-8.35,2.49-8.36,8.51q-.09,27.32,0,54.63c0,5.92,2.59,8.52,8.41,8.54q27.32.06,54.62,0c6,0,8.63-2.69,8.66-8.81C451.4,432.6,451.37,423.5,451.37,414.39Zm-7.26-136c0-9.24.06-18.49,0-27.73-.05-5.67-2.56-8.25-8.25-8.27q-27.52-.13-55.05,0c-5.82,0-8.37,2.74-8.38,8.62q-.06,27.11,0,54.21c0,6.34,2.59,8.94,9,9q26.89.06,53.79,0c6.41,0,8.91-2.49,8.95-8.89C444.15,296.35,444.11,287.39,444.11,278.42Zm-35.78-102q.1-27.31,0-54.63c0-5.9-2.65-8.49-8.49-8.5q-27.31-.06-54.63,0c-6.13,0-8.69,2.5-8.71,8.7q-.09,27.1,0,54.21c0,6.21,2.56,8.68,8.7,8.71,9,0,17.93,0,26.89,0,9.25,0,18.49,0,27.73,0C405.69,184.88,408.31,182.34,408.33,176.43ZM300.69,442.23c.07-16.52.33-33.06-.08-49.58-.51-20.47-16.13-35.3-36.65-35.43-8.55-.05-17.09,0-25.64,0-22.92,0-38.15,15.22-38.19,38.19q0,22.47,0,45a20.54,20.54,0,0,0,.36,4.58,7,7,0,0,0,13.89-1.07,42,42,0,0,0,.09-4.2q0-22.69,0-45.39c0-4.07,1.58-7.16,5.77-8.16a6.26,6.26,0,0,1,7.45,3.34,13,13,0,0,1,1.09,5.65c.08,18.39.05,36.78.05,55.4h41.45a17,17,0,0,0,1.72-.12V436.07q0-20,0-39.93a27.87,27.87,0,0,1,.18-4.19,6.58,6.58,0,0,1,6.56-6,6.45,6.45,0,0,1,7,4.83,19,19,0,0,1,.58,5.39c0,15.27,0,30.54,0,45.81,0,5.3,2.86,8.54,7.19,8.47C297.74,450.42,300.67,447.21,300.69,442.23ZM286.35,111.59q.09-27.11,0-54.21c0-6.12-2.69-8.71-8.75-8.74-9.11,0-18.21,0-27.32,0s-17.93,0-26.89,0c-6.15,0-8.87,2.56-8.89,8.59q-.1,27.32,0,54.63c0,5.9,2.61,8.45,8.53,8.47q27.32.09,54.63,0C283.8,120.32,286.33,117.77,286.35,111.59Zm0,195.36a35.92,35.92,0,1,0-35.77,35.93A35.87,35.87,0,0,0,286.33,307Zm-122-130.25q.15-27.52,0-55c0-5.89-2.68-8.33-8.63-8.35-9,0-17.93,0-26.89,0-9.25,0-18.49,0-27.73,0-5.89,0-8.55,2.57-8.57,8.43q-.11,27.31,0,54.63c0,5.93,2.62,8.54,8.43,8.55q27.53.08,55.05,0C161.63,184.9,164.3,182.38,164.32,176.7ZM128.46,278.37c0-9,0-17.93,0-26.89,0-6.44-2.47-9-8.8-9.08q-27.11-.09-54.21,0c-6.21,0-8.67,2.52-8.69,8.7q-.07,27.11,0,54.2c0,6.41,2.52,8.9,8.94,8.91q26.9.06,53.78,0c6.36,0,8.95-2.63,9-8.94C128.49,296.3,128.46,287.34,128.46,278.37Zm-7.28,163.32q.07-27.1,0-54.2c0-6.24-2.43-8.65-8.66-8.67q-27.09-.07-54.2,0c-6.41,0-8.83,2.51-8.84,9q0,26.89,0,53.78c0,6.36,2.59,8.93,8.93,9,9,0,17.93,0,26.89,0s17.93,0,26.9,0C118.65,450.49,121.16,448.08,121.18,441.69Z"/>
      <path class="cls-1" d="M465.7,34.3V381.6a8.14,8.14,0,0,1-.8-1.4c-3.49-10.23-10.54-15.65-21.3-15.73-18.78-.15-37.57-.19-56.34,0-13.11.13-21.69,8.91-22,22-.15,6.83,0,13.67,0,20.74H315.06c0-4.57.07-9.13,0-13.68-.29-15.54-6-28.71-18-38.72-4.24-3.55-9.28-6.15-14.18-9.32a12,12,0,0,1,1.15-1.33,49.78,49.78,0,0,0,16.54-35.17c.15-2.74.92-3.72,3.73-4.19,17-2.81,33.93-5.88,50.88-8.84.81-.14,1.64-.1,2.87-.17,0,3.77-.05,7.39,0,11,.2,12.07,9.15,21.47,21.21,21.62q29,.34,58,0c11.61-.13,20.77-8.79,21-20.38q.58-29.84,0-59.69c-.23-11.61-9.1-20.09-21.05-20.29-19.34-.33-38.69-.37-58,0-12.71.26-21.09,9.61-21.15,22.46-.05,9-.08,17.94,0,26.91,0,2.49-.51,3.65-3.28,4.11-17.39,2.88-34.76,5.95-52.12,9.07-3.12.56-4.76.2-6.26-3.21-2.4-5.44-5.95-10.37-9.35-16.07.24-.32.94-1.31,1.68-2.27q25.82-33.43,51.59-66.9a7,7,0,0,1,6.32-3c17.52.13,35,.09,52.56.06,14.72,0,23.43-8.81,23.45-23.62q0-26.7,0-53.39c0-14.48-8.86-23.28-23.34-23.3q-27.12,0-54.24,0c-14,0-22.9,8.86-23,22.81-.09,18.22,0,36.44,0,54.66A23.53,23.53,0,0,0,329,193.6l-53.38,69.1c-5.57-1.72-10.88-3.29-16.13-5.07-.79-.26-1.42-1.45-1.79-2.35a7.16,7.16,0,0,1-.08-2.5v-118c6.71,0,12.85,0,19,0,15.55-.06,24.1-8.67,24.11-24.29q0-24.6,0-49.19c0-15.83-3.34-21-17.5-27Z"/>
      <path class="cls-1" d="M451.36,387.5c0,9,0,17.93,0,26.89,0,9.11,0,18.21,0,27.31,0,6.12-2.63,8.8-8.66,8.81q-27.3.06-54.62,0c-5.82,0-8.39-2.62-8.41-8.54q-.09-27.32,0-54.63c0-6,2.43-8.49,8.36-8.51q27.32-.1,54.63,0C448.82,378.84,451.33,381.38,451.36,387.5Zm-16.43,24.83a6.77,6.77,0,0,0,.13-9.53c-2.86-3.24-7.28-3.34-10.77.09-5.28,5.2-10.37,10.58-15.72,16.06-1.06-1-1.45-1.38-1.88-1.74-3.86-3.25-7.91-3.27-10.79,0-2.71,3-2.38,7,1,10.46,2,2.12,4.09,4.24,6.26,6.22,3.32,3,6.93,3.28,10.13.18Q424.29,423.4,434.93,412.33Z"/>
      <path class="cls-1" d="M444.08,250.69c.09,9.24,0,18.49,0,27.73,0,9,0,17.93,0,26.9,0,6.4-2.54,8.88-8.95,8.89q-26.89.06-53.79,0c-6.36,0-8.94-2.62-9-9q0-27.11,0-54.21c0-5.88,2.56-8.6,8.38-8.62q27.53-.13,55.05,0C441.52,242.44,444,245,444.08,250.69Zm-17.59,26.7c3.76-3.79,4.18-8,1.21-11.1-3.19-3.35-7.31-3-11.35,1-5,4.94-9.83,10-14.94,15.17-.91-.77-1.33-1.13-1.76-1.48-4.06-3.35-7.86-3.47-10.81-.33s-2.64,7,1,10.78q2.63,2.73,5.35,5.35c4.22,4.06,7.79,4.07,12-.08Q416.89,287.11,426.49,277.39Z"/>
      <path class="cls-1" d="M439.33,464.85v.84H250.48v-.83h41c14.67,0,23.55-8.88,23.6-23.53,0-6.29,0-12.58,0-19.16h50.19q0,9,0,18,0,24.71,24.89,24.7Z"/>
      <path class="cls-2" d="M435.06,402.8a6.77,6.77,0,0,1-.13,9.53q-10.65,11-21.68,21.7c-3.2,3.1-6.81,2.86-10.13-.18-2.17-2-4.22-4.1-6.26-6.22-3.34-3.47-3.67-7.43-1-10.46,2.88-3.23,6.93-3.21,10.79,0,.43.36.82.76,1.88,1.74,5.35-5.48,10.44-10.86,15.72-16.06C427.78,399.46,432.2,399.56,435.06,402.8Z"/>
      <path class="cls-2" d="M427.7,266.29c3,3.13,2.55,7.31-1.21,11.1q-9.62,9.71-19.32,19.32c-4.22,4.15-7.79,4.14-12,.08q-2.73-2.62-5.35-5.35c-3.61-3.75-3.94-7.62-1-10.78s6.75-3,10.81.33c.43.35.85.71,1.76,1.48,5.11-5.2,10-10.23,14.94-15.17C420.39,263.26,424.51,262.94,427.7,266.29Z"/>
      <path class="cls-1" d="M408.33,121.8q.1,27.31,0,54.63c0,5.91-2.64,8.45-8.51,8.49-9.24.05-18.48,0-27.73,0-9,0-17.93,0-26.89,0-6.14,0-8.68-2.5-8.7-8.71q-.09-27.11,0-54.21c0-6.2,2.58-8.69,8.71-8.7q27.32,0,54.63,0C405.68,113.31,408.31,115.9,408.33,121.8Zm-17.84,26.57c4-4,4.36-8.25,1.17-11.4s-7.38-2.67-11.37,1.34c-4.92,4.94-9.77,10-14.7,15l-2-1.64c-3.75-3.06-7.65-3.15-10.49-.25s-2.66,7.19.78,10.79c1.64,1.72,3.34,3.38,5,5,4.65,4.56,8,4.62,12.6.11Q381,157.91,390.49,148.37Z"/>
      <path class="cls-2" d="M391.66,137c3.19,3.15,2.79,7.39-1.17,11.4q-9.45,9.54-19,19c-4.57,4.51-7.95,4.45-12.6-.11-1.7-1.66-3.4-3.32-5-5-3.44-3.6-3.72-7.78-.78-10.79s6.74-2.81,10.49.25l2,1.64c4.93-5,9.78-10.06,14.7-15C384.28,134.3,388.52,133.86,391.66,137Z"/>
      <path class="cls-1" d="M300.61,392.65c.41,16.52.15,33.06.08,49.58,0,5-2.95,8.19-7.11,8.26-4.33.07-7.17-3.17-7.19-8.47-.05-15.27,0-30.54,0-45.81a19,19,0,0,0-.58-5.39,6.45,6.45,0,0,0-7-4.83,6.58,6.58,0,0,0-6.56,6,27.87,27.87,0,0,0-.18,4.19q0,20,0,39.93V450.4a17,17,0,0,1-1.72.12H228.84c0-18.62,0-37-.05-55.4a13,13,0,0,0-1.09-5.65,6.26,6.26,0,0,0-7.45-3.34c-4.19,1-5.77,4.09-5.77,8.16q0,22.69,0,45.39a42,42,0,0,1-.09,4.2A7,7,0,0,1,200.49,445a20.54,20.54,0,0,1-.36-4.58q0-22.49,0-45c0-23,15.27-38.17,38.19-38.19,8.55,0,17.09-.05,25.64,0C284.48,357.35,300.1,372.18,300.61,392.65Z"/>
      <path class="cls-1" d="M286.35,57.38q.09,27.1,0,54.21c0,6.18-2.55,8.73-8.69,8.74q-27.32.09-54.63,0c-5.92,0-8.5-2.57-8.53-8.47q-.1-27.31,0-54.63c0-6,2.74-8.56,8.89-8.59,9,0,17.93,0,26.89,0s18.21,0,27.32,0C283.66,48.67,286.32,51.26,286.35,57.38Zm-17.43,26c3.81-3.85,4.11-7.93,1-11.08s-7.36-2.77-11.09.94c-5.06,5-10,10.13-15.3,15.44-.9-.71-1.34-1-1.76-1.4-3.94-3.38-7.84-3.61-10.81-.63-3.15,3.17-2.8,7.19,1,11.07,1.76,1.8,3.53,3.6,5.35,5.35,4.18,4,7.84,4,12-.09Q259.18,93.23,268.92,83.36Z"/>
      <path class="cls-1" d="M250.49,271.18a35.85,35.85,0,1,1-36,35.62A35.87,35.87,0,0,1,250.49,271.18Z"/>
      <path class="cls-2" d="M269.9,72.28c3.13,3.15,2.83,7.23-1,11.08q-9.75,9.86-19.61,19.6c-4.19,4.14-7.85,4.12-12,.09-1.82-1.75-3.59-3.55-5.35-5.35-3.79-3.88-4.14-7.9-1-11.07,3-3,6.87-2.75,10.81.63.42.36.86.69,1.76,1.4,5.26-5.31,10.24-10.41,15.3-15.44C262.54,69.51,266.84,69.2,269.9,72.28Z"/>
      <path class="cls-1" d="M250.48,464.86v.83H85.37v-.77q14.61,0,29.22-.14a20.86,20.86,0,0,0,20.81-20.12c.38-7.38.07-14.8.07-22.5h50.31c0,6.33,0,12.58,0,18.84,0,15,8.82,23.84,23.71,23.85Z"/>
      <path class="cls-1" d="M243.29,252.75c0,3.35-.68,4.85-4.34,5.54-4.46.85-8.69,2.91-13.54,4.63L171.77,193.5c6.73-6.18,7.1-14.2,7-22.5-.17-16-.35-32,0-47.92.37-15-10.4-24.74-24.31-24.28-17.78.6-35.59.12-53.39.16-13.93,0-22.92,8.94-23,22.82q-.1,27.33,0,54.65c0,13.9,9,22.79,23,22.83,17.8.05,35.6,0,53.39.1,1.71,0,4.06.71,5,1.94,18.28,23.4,36.4,46.93,54.29,70.1l-12.05,19.79-59-10.19c0-7,0-13.82,0-20.63,0-3.37,0-6.73,0-10.09-.13-12.55-8.52-21.87-21.06-22.13q-29.2-.61-58.43,0c-12.22.25-20.69,9.15-20.85,21.4q-.36,28.79,0,57.59c.18,12.47,9.36,21.29,21.81,21.37q28.17.19,56.34,0c13-.08,22.07-9.33,22.18-22.39,0-3.34,0-6.68,0-10.52,7.53,1.27,14.66,2.45,21.77,3.68,10.89,1.9,21.79,3.77,32.65,5.83,1.1.21,2.77,1.62,2.81,2.54.76,15.21,6.71,27.87,18.58,38.17-27,11.88-35.17,33.69-32.52,61.33H135.58c0-5.68.08-11.38,0-17.08a45.75,45.75,0,0,0-.73-9.6c-2.1-8.87-9.79-15.67-18.95-15.82-20.31-.34-40.64-.42-60.94,0-11.09.24-19.62,9.58-19.72,20.71q-.14,14.82-.13,29.64h-.77V34.3H217.63a18.49,18.49,0,0,1-1.87.85c-9.68,3.2-15.52,10.82-15.59,21.06q-.21,28.17,0,56.33c.09,12.94,9,21.84,22,22.16,6.83.16,13.68,0,21.1,0v4.93C243.22,177.36,243.18,215.05,243.29,252.75Z"/>
      <path class="cls-1" d="M164.33,121.65q.13,27.53,0,55c0,5.68-2.69,8.2-8.33,8.21q-27.53.08-55.05,0c-5.81,0-8.41-2.62-8.43-8.55q-.09-27.31,0-54.63c0-5.86,2.68-8.4,8.57-8.43,9.24,0,18.48,0,27.73,0,9,0,17.93,0,26.89,0C161.65,113.32,164.3,115.76,164.33,121.65Zm-16,24.33c1.35-1.47,1.29-5.72.11-7.57s-4.5-2.93-7-3.1c-1.66-.12-3.71,1.67-5.16,3.06-5,4.82-9.86,9.84-14.83,14.85l-1.93-1.59c-3.7-3-7.67-3.09-10.49-.17s-2.67,7.06.57,10.5c2.1,2.24,4.27,4.43,6.54,6.5,2.81,2.55,6.35,3.34,9.13.72C133.22,161.71,141,154,148.31,146Z"/>
      <path class="cls-2" d="M148.42,138.41c1.18,1.85,1.24,6.1-.11,7.57-7.32,8.06-15.09,15.73-23,23.2-2.78,2.62-6.32,1.83-9.13-.72-2.27-2.07-4.44-4.26-6.54-6.5-3.24-3.44-3.41-7.54-.57-10.5s6.79-2.86,10.49.17l1.93,1.59c5-5,9.81-10,14.83-14.85,1.45-1.39,3.5-3.18,5.16-3.06C143.92,135.48,147.26,136.57,148.42,138.41Z"/>
      <path class="cls-1" d="M128.45,251.48c0,9,0,17.93,0,26.89s0,17.93,0,26.9c0,6.31-2.62,8.92-9,8.94q-26.89.06-53.78,0c-6.42,0-8.92-2.5-8.94-8.91q-.07-27.1,0-54.2c0-6.18,2.48-8.67,8.69-8.7q27.11-.09,54.21,0C126,242.43,128.43,245,128.45,251.48Zm-16.37,24.41a6.76,6.76,0,0,0-.63-10.1c-3.07-2.63-6.82-2.45-10.16.83C96,271.81,90.87,277.16,85.61,282.5c-1-.88-1.6-1.45-2.24-2-3.55-2.9-7.32-2.88-10.16,0s-2.7,7.1.51,10.48c2.11,2.24,4.27,4.46,6.55,6.53,3.17,2.89,6.82,3.18,9.82.3Q101.3,287.11,112.08,275.89Z"/>
      <path class="cls-1" d="M121.18,387.49q.07,27.09,0,54.2c0,6.39-2.53,8.8-9,8.83-9,0-17.93,0-26.9,0s-17.92,0-26.89,0c-6.34,0-8.91-2.6-8.93-9q0-26.88,0-53.78c0-6.45,2.43-8.95,8.84-9q27.1-.07,54.2,0C118.75,378.84,121.16,381.25,121.18,387.49Zm-17.54,26.16c3.74-3.77,4.1-8,1.08-11.09s-7.26-2.95-11.07.85c-5.05,5-10,10.2-15.07,15.4L76.33,417c-3.69-3-7.75-2.92-10.49.12s-2.54,6.91.85,10.48c1.73,1.83,3.54,3.59,5.34,5.35,4.43,4.31,7.92,4.35,12.29,0Q94,423.36,103.64,413.65Z"/>
      <path class="cls-2" d="M111.45,265.79a6.76,6.76,0,0,1,.63,10.1q-10.76,11.22-22,22c-3,2.88-6.65,2.59-9.82-.3-2.28-2.07-4.44-4.29-6.55-6.53-3.21-3.38-3.37-7.55-.51-10.48s6.61-2.93,10.16,0c.64.51,1.24,1.08,2.24,2,5.26-5.34,10.39-10.69,15.68-15.88C104.63,263.34,108.38,263.16,111.45,265.79Z"/>
      <path class="cls-2" d="M104.72,402.56c3,3.08,2.66,7.32-1.08,11.09Q94,423.36,84.32,433c-4.37,4.32-7.86,4.28-12.29,0-1.8-1.76-3.61-3.52-5.34-5.35C63.3,424,63,420.22,65.84,417.1s6.8-3.09,10.49-.12l2.25,1.83c5.08-5.2,10-10.35,15.07-15.4C97.46,399.61,101.59,399.36,104.72,402.56Z"/>
      <path class="cls-1" d="M85.37,464.92v.77H34.31V415h.77q0,14.4.13,28.8a21.11,21.11,0,0,0,20.95,20.95Q70.77,464.92,85.37,464.92Z"/>
    </g>
  </g>
</svg>
