<svg xmlns="http://www.w3.org/2000/svg" viewBox="0 0 500 500">
  <defs>
    <style>
      .cls-1 {
        fill: #6259fa;
      }

      .cls-2 {
        fill: none;
      }
    </style>
  </defs>
  <g id="Layer_9" data-name="Layer 9">
    <g>
      <path class="cls-1" d="M365.62,277.88a65.17,65.17,0,0,1,6.85,0,5.81,5.81,0,0,1,5.55,6c.15,3.44-1.67,6.07-5.06,6.37a78.91,78.91,0,0,1-14.5,0c-3.44-.32-5.13-3.1-4.93-6.47a5.79,5.79,0,0,1,5.67-5.89c2.13-.19,4.28,0,6.42,0Z"/>
      <path class="cls-2" d="M372.47,277.92a65.17,65.17,0,0,0-6.85,0v0c-2.14,0-4.29-.15-6.42,0a5.79,5.79,0,0,0-5.67,5.89c-.2,3.37,1.49,6.15,4.93,6.47a78.91,78.91,0,0,0,14.5,0c3.39-.3,5.21-2.93,5.06-6.37A5.81,5.81,0,0,0,372.47,277.92Zm-40.3-51.37c1.75-.34,2.68-.23,3.11-.64,4.17-4,8.61-7.86,12.12-12.41.9-1.17-.53-5.61-2.17-6.84s-5.56-1.28-7.26-.1a43.42,43.42,0,0,0-9.69,9.59c-1.16,1.55-1.22,4.75-.46,6.69C328.5,224.57,331,225.6,332.17,226.55Zm.63,114.68c-1.84,1.53-4.52,2.7-5.13,4.55a9,9,0,0,0,1.08,7c2.27,3.23,5.39,5.9,8.36,8.57s6.31,2.5,8.88.05,2.73-6.25.05-9.2-5.33-5.59-8.19-8.18C336.65,343,335,342.4,332.8,341.23Zm-31.43,2c5.77,5.59,13.17,6.25,20.45,2.76,7.09-3.4,10.62-9.34,10.76-17.24a18,18,0,0,0-5.13-12.88c-2.56-2.71-5.24-5.31-7.88-7.95-12.49-12.48-24.88-25.06-37.51-37.4A18.65,18.65,0,0,0,256,270.3c-7.4,7-8.5,18.71-1.48,26Q277.52,320.14,301.37,343.19Zm-32.72-85a40.2,40.2,0,1,0-39.87-40.63A40.24,40.24,0,0,0,268.65,258.19Zm-6.09,128.89a6.41,6.41,0,0,0,6.36,6.29,6.57,6.57,0,0,0,6.44-6.25c.17-2,0-4,0-6,0-2.15.16-4.31,0-6.44a6.3,6.3,0,0,0-6.59-6c-3.61.28-5.93,2.35-6.16,6A114.71,114.71,0,0,0,262.56,387.08Zm-55.72-1.62c9.3-8.25,18.4-16.16,27.32-24.29,7.07-6.44,8.76-15.18,4.64-23-3.32-6.34-8.62-10-15.84-10.16-11.93-.21-23.85-.11-35.78-.14-7.76,0-9.37-2.21-6.85-9.38l24-68.18c5.18-14.71-2.56-25.57-18.23-25.6H166.22c14.61-28.58,54.64-63.13,111-59.53,50.55,3.24,94.08,39.39,107.23,89.3,12.88,48.9-7.63,101.64-50.11,129.47C291.45,412,238.88,407,206.84,385.46Zm-5.3-160.17c3.91,3,9.35-.37,9.46-6-.14-.46-.15-1.83-.84-2.56-3.52-3.73-6.89-7.73-11-10.69-1.47-1.06-5.32-.19-7.25,1.07a5.06,5.06,0,0,0-1,7.62A65.85,65.85,0,0,0,201.54,225.29Z"/>
      <path class="cls-1" d="M327.67,345.78c.61-1.85,3.29-3,5.13-4.55,2.16,1.17,3.85,1.73,5.05,2.82,2.86,2.59,5.6,5.33,8.19,8.18s2.55,6.73-.05,9.2-6,2.57-8.88-.05-6.09-5.34-8.36-8.57A9,9,0,0,1,327.67,345.78Z"/>
      <path class="cls-1" d="M335.28,225.91c-.43.41-1.36.3-3.11.64-1.18-1-3.67-2-4.35-3.71-.76-1.94-.7-5.14.46-6.69a43.42,43.42,0,0,1,9.69-9.59c1.7-1.18,5.63-1.12,7.26.1s3.07,5.67,2.17,6.84C343.89,218.05,339.45,221.88,335.28,225.91Z"/>
      <path class="cls-1" d="M308.7,332.46c3.11,3.09,6.48,3.25,9.11.73s2.51-6.22-.41-9.16q-21.67-21.82-43.52-43.48c-1.25-1.24-3-2-5.19-3.32-1.87,1.56-4.59,2.71-4.93,4.37-.47,2.26,0,5.7,1.54,7.25C279.59,303.56,294.16,318,308.7,332.46ZM256,270.3a18.65,18.65,0,0,1,26.09.18c12.63,12.34,25,24.92,37.51,37.4,2.64,2.64,5.32,5.24,7.88,7.95a18,18,0,0,1,5.13,12.88c-.14,7.9-3.67,13.84-10.76,17.24-7.28,3.49-14.68,2.83-20.45-2.76q-23.82-23.07-46.88-46.9C247.47,289,248.57,277.27,256,270.3Z"/>
      <path class="cls-2" d="M298.41,42.61c5.9,0,8.42,2.44,8.51,8.32.11,6.46.13,12.92,0,19.37-.12,5.42-2.61,7.81-8,7.85-10,.07-20.09,0-30.13,0-9.61,0-19.22,0-28.84,0-6.57,0-8.89-2.25-9-8.69-.07-6.17-.1-12.34,0-18.51.1-5.87,2.64-8.34,8.51-8.35Q268.93,42.57,298.41,42.61Z"/>
      <path class="cls-2" d="M105.82,457.29a4.45,4.45,0,0,1-3.84.19A4.66,4.66,0,0,1,100.3,454c0-1.5.76-3,1.28-4.51,8-22.87,16.19-45.71,24.15-68.61,4.52-13-3.54-24.37-17.26-24.54-7.9-.1-15.81,0-23.71,0-11.29-.11-17.13-8.28-13.42-18.84q14.76-42,29.66-84c3.78-10.64,11.2-15.81,22.54-15.82q31.26,0,62.52,0c6.7,0,8.21,2.16,6,8.51-8,22.74-16.08,45.44-23.93,68.23-1.18,3.44-2.1,7.34-1.71,10.87,1,9.5,8.5,15.44,18.62,15.52,12.07.09,24.15.05,36.22,0,3.06,0,5.85,1.06,6.21,4.09.25,2.18-1.25,4.58-2.08,6.85-.18.48-.81.79-1.24,1.17l-46.82,41.42q-20.51,18.13-41,36.28c-4.55,4-5.35,7.85-2.43,11s6.44,2.69,10.88-1.21l10-8.83,10.19-9c1.75,1.24,3,2.17,4.33,3.06,47,31.69,97.83,40.45,151.89,23.31,81.1-25.71,129.89-103.45,119-188.13-5.11-39.74-22.85-73.37-51.41-101.36a64.18,64.18,0,0,0-6.74-6c-2.92-2.14-6.08-1.93-8.53.81s-2.4,5.79,0,8.57c1.41,1.61,3.11,3,4.65,4.48,41.82,41,58.7,90.57,47.6,148-19.2,99.18-124,155.08-217.64,117.16A147.76,147.76,0,0,1,175,413.63l21.38-18.88c1.09.64,1.72,1,2.33,1.36,27.56,17.18,57.54,23.35,89.55,18.82,73.57-10.42,124.07-81,110.73-154.3C384,178.32,297.5,130.4,219.8,161.5c-29.51,11.82-51.78,32-67.19,59.79-.74,1.33-2.18,3.18-3.34,3.22-9.42.26-18.85.14-28.75.14.69-1.88,1.12-3.23,1.68-4.52,37.8-86.6,142.08-121.77,224.73-75.8a25,25,0,0,0,3.84,1.92c4.71,1.65,9.5-2.23,8.22-7a10,10,0,0,0-4.44-5.27,168.77,168.77,0,0,0-53.85-19.89c-1.48-.28-3.87-1.69-3.92-2.68-.36-6.56-.19-13.15-.19-19.91,1.59-.16,2.7-.31,3.82-.37,10.9-.63,18.74-7.92,19.28-18.78a208.17,208.17,0,0,0-.15-25,18.94,18.94,0,0,0-18.62-17.56Q285,29.61,269,29.6v-.8H471.2V471.2H107.28c4-2.74,8.12-5.25,11.86-8.28,3.44-2.79,3.68-6.6,1.22-9.46s-6.2-3-9.58-.28C109.1,454.53,107.65,456.22,105.82,457.29Z"/>
      <path class="cls-2" d="M262.58,218.37c.21,3.64,2.56,5.67,6.11,6a6.35,6.35,0,0,0,6.65-5.93c.21-2.12,0-4.28,0-6.42s.17-4.3,0-6.43a6.31,6.31,0,0,0-6.57-6c-3.62.25-5.94,2.31-6.18,5.91A108,108,0,0,0,262.58,218.37Zm6.48,26.88a27.26,27.26,0,1,1,27.14-27.08A27.19,27.19,0,0,1,269.06,245.25Z"/>
      <path class="cls-2" d="M281.3,91.23a3.26,3.26,0,0,1,2.2,2.27c.19,5.86.1,11.72.1,17.84H254.5V91.13C263.61,91.13,272.46,91.07,281.3,91.23Z"/>
      <path class="cls-1" d="M262.6,205.52c.24-3.6,2.56-5.66,6.18-5.91a6.31,6.31,0,0,1,6.57,6c.2,2.13,0,4.28,0,6.43s.17,4.3,0,6.42a6.35,6.35,0,0,1-6.65,5.93c-3.55-.35-5.9-2.38-6.11-6A108,108,0,0,1,262.6,205.52Z"/>
      <path class="cls-1" d="M268.92,393.37a6.41,6.41,0,0,1-6.36-6.29,114.71,114.71,0,0,1,0-12.44c.23-3.62,2.55-5.69,6.16-6a6.3,6.3,0,0,1,6.59,6c.2,2.13,0,4.29,0,6.44,0,2,.14,4,0,6A6.57,6.57,0,0,1,268.92,393.37Z"/>
      <path class="cls-1" d="M241.71,218a27.25,27.25,0,1,0,27.34-27.23A27.19,27.19,0,0,0,241.71,218Zm26.94,40.23a40.2,40.2,0,1,1,40.49-40A40.18,40.18,0,0,1,268.65,258.19Z"/>
      <path class="cls-2" d="M268.69,277.23c2.16,1.36,3.94,2.08,5.19,3.32Q295.72,302.21,317.4,324c2.92,2.94,3,6.72.41,9.16s-6,2.36-9.11-.73c-14.54-14.46-29.11-28.9-43.4-43.61-1.51-1.55-2-5-1.54-7.25C264.1,279.94,266.82,278.79,268.69,277.23Z"/>
      <path class="cls-1" d="M199.16,206.08c4.11,3,7.48,7,11,10.69.69.73.7,2.1.84,2.56-.11,5.59-5.55,8.91-9.46,6A65.85,65.85,0,0,1,191,214.77a5.06,5.06,0,0,1,1-7.62C193.84,205.89,197.69,205,199.16,206.08Z"/>
      <path class="cls-2" d="M143.23,138.14,156,151.31,136.7,170.78l-13.19-12.94Z"/>
      <path class="cls-1" d="M230.93,69.47c.08,6.44,2.4,8.67,9,8.69,9.62,0,19.23,0,28.84,0,10,0,20.09,0,30.13,0,5.43,0,7.92-2.43,8-7.85.14-6.45.12-12.91,0-19.37-.09-5.88-2.61-8.31-8.51-8.32q-29.48,0-59,0c-5.87,0-8.41,2.48-8.51,8.35C230.83,57.13,230.86,63.3,230.93,69.47ZM186.1,224.67c15.67,0,23.41,10.89,18.23,25.6l-24,68.18c-2.52,7.17-.91,9.36,6.85,9.38,11.93,0,23.85-.07,35.78.14,7.22.13,12.52,3.82,15.84,10.16,4.12,7.86,2.43,16.6-4.64,23-8.92,8.13-18,16-27.32,24.29,32,21.52,84.61,26.52,127.46-1.55,42.48-27.83,63-80.57,50.11-129.47-13.15-49.91-56.68-86.06-107.23-89.3-56.32-3.6-96.35,31-111,59.53Zm-62.59-66.83,13.19,12.94L156,151.31l-12.8-13.17Zm-25.57-2.07c2.77,2.78,5.38,2.84,8.17,0q17.17-17.25,34.43-34.43c2.78-2.77,2.84-5.37,0-8.16-8.36-8.3-16.64-16.67-25-24.94a27.54,27.54,0,0,0-4-2.72,24.7,24.7,0,0,0-4.07,2.64c-11.53,11.43-23,22.93-34.47,34.39-2.78,2.77-2.8,5.43,0,8.2Q85.49,143.25,97.94,155.77Zm10.53,200.54c13.72.17,21.78,11.53,17.26,24.54-8,22.9-16.1,45.74-24.15,68.61-.52,1.48-1.29,3-1.28,4.51a4.66,4.66,0,0,0,1.68,3.51,4.45,4.45,0,0,0,3.84-.19c1.83-1.07,3.28-2.76,5-4.11,3.38-2.71,7.13-2.57,9.58.28s2.22,6.67-1.22,9.46c-3.74,3-7.89,5.54-11.86,8.28h-6.9c-12.85-5.73-15.75-12.66-11-26.17q11.84-33.48,23.65-67c2.28-6.45.61-8.82-6.24-8.84-7.47,0-14.94.08-22.42,0-19.91-.3-31.84-17.1-25.31-35.87C68.91,305.16,79,277.06,88.84,248.9a36.05,36.05,0,0,1,14-18.54,7,7,0,0,0,2.62-3.18,176.27,176.27,0,0,1,22-42.76,14,14,0,0,0,.88-1.78c-4.66-4.66-9.25-9.4-14.06-13.91-.67-.63-2.59-.58-3.6-.11-8.31,3.86-15.19,2.89-21.69-3.52q-12.74-12.56-25.3-25.3c-8-8.1-7.91-18.24.15-26.37Q81,96.14,98.31,79c8.08-8,18.2-8,26.34,0s15.88,15.82,23.8,23.76c8.26,8.27,9.26,14.82,4.07,24.77l15.33,15.35c8.89-5,18-10.49,27.4-15.24A149.61,149.61,0,0,1,237.3,114.1c2.78-.48,4.25-1.3,4.08-4.6-.31-6-.08-12-.08-18.13L236.48,91c-9.27-.63-17.27-7.48-18-16.74a184.66,184.66,0,0,1,0-27.53c.71-9.57,9-16.93,18.65-17q16-.13,31.9-.15t31.91.17a18.94,18.94,0,0,1,18.62,17.56,208.17,208.17,0,0,1,.15,25c-.54,10.86-8.38,18.15-19.28,18.78-1.12.06-2.23.21-3.82.37,0,6.76-.17,13.35.19,19.91.05,1,2.44,2.4,3.92,2.68a168.77,168.77,0,0,1,53.85,19.89,10,10,0,0,1,4.44,5.27c1.28,4.81-3.51,8.69-8.22,7a25,25,0,0,1-3.84-1.92c-82.65-46-186.93-10.8-224.73,75.8-.56,1.29-1,2.64-1.68,4.52,9.9,0,19.33.12,28.75-.14,1.16,0,2.6-1.89,3.34-3.22,15.41-27.8,37.68-48,67.19-59.79C297.5,130.4,384,178.32,399,260.63c13.34,73.32-37.16,143.88-110.73,154.3-32,4.53-62-1.64-89.55-18.82-.61-.38-1.24-.72-2.33-1.36L175,413.63a147.76,147.76,0,0,0,33.18,18.69c93.64,37.92,198.44-18,217.64-117.16,11.1-57.38-5.78-107-47.6-148-1.54-1.5-3.24-2.87-4.65-4.48-2.42-2.78-2.43-5.86,0-8.57s5.61-2.95,8.53-.81a64.18,64.18,0,0,1,6.74,6c28.56,28,46.3,61.62,51.41,101.36,10.89,84.68-37.9,162.42-119,188.13C267.13,466,216.26,457.26,169.3,425.57c-1.31-.89-2.58-1.82-4.33-3.06l-10.19,9-10,8.83c-4.44,3.9-8,4.3-10.88,1.21s-2.12-6.95,2.43-11q20.47-18.17,41-36.28l46.82-41.42c.43-.38,1.06-.69,1.24-1.17.83-2.27,2.33-4.67,2.08-6.85-.36-3-3.15-4.1-6.21-4.09-12.07,0-24.15.07-36.22,0-10.12-.08-17.57-6-18.62-15.52-.39-3.53.53-7.43,1.71-10.87C176,291.56,184,268.86,192,246.12c2.23-6.35.72-8.51-6-8.51q-31.26,0-62.52,0c-11.34,0-18.76,5.18-22.54,15.82q-14.9,42-29.66,84c-3.71,10.56,2.13,18.73,13.42,18.84C92.66,356.35,100.57,356.21,108.47,356.31Zm175.13-245c0-6.12.09-12-.1-17.84a3.26,3.26,0,0,0-2.2-2.27c-8.84-.16-17.69-.1-26.8-.1v20.21Z"/>
      <path class="cls-2" d="M107.46,88.19a24.7,24.7,0,0,1,4.07-2.64,27.54,27.54,0,0,1,4,2.72c8.38,8.27,16.66,16.64,25,24.94,2.81,2.79,2.75,5.39,0,8.16q-17.25,17.17-34.43,34.43c-2.79,2.81-5.4,2.75-8.17,0q-12.45-12.54-25-25c-2.77-2.77-2.75-5.43,0-8.2C84.48,111.12,95.93,99.62,107.46,88.19Z"/>
      <path class="cls-2" d="M106.82,369.23c6.85,0,8.52,2.39,6.24,8.84q-11.81,33.49-23.65,67c-4.78,13.51-1.88,20.44,11,26.17H28.8V28.8H269v.8q-15.94,0-31.9.15c-9.61.09-17.94,7.45-18.65,17a184.66,184.66,0,0,0,0,27.53c.71,9.26,8.71,16.11,18,16.74l4.82.33c0,6.17-.23,12.16.08,18.13.17,3.3-1.3,4.12-4.08,4.6a149.61,149.61,0,0,0-42.05,13.56c-9.45,4.75-18.51,10.26-27.4,15.24l-15.33-15.35c5.19-10,4.19-16.5-4.07-24.77-7.92-7.94-15.8-15.9-23.8-23.76s-18.26-8-26.34,0Q81,96.12,63.86,113.43c-8.06,8.13-8.12,18.27-.15,26.37Q76.27,152.55,89,165.1c6.5,6.41,13.38,7.38,21.69,3.52,1-.47,2.93-.52,3.6.11,4.81,4.51,9.4,9.25,14.06,13.91a14,14,0,0,1-.88,1.78,176.27,176.27,0,0,0-22,42.76,7,7,0,0,1-2.62,3.18,36.05,36.05,0,0,0-14,18.54C79,277.06,68.91,305.16,59.09,333.33c-6.53,18.77,5.4,35.57,25.31,35.87C91.88,369.31,99.35,369.2,106.82,369.23Z"/>
    </g>
  </g>
</svg>
