<svg xmlns="http://www.w3.org/2000/svg" viewBox="0 0 500 500">
  <defs>
    <style>
      .cls-1 {
        fill: #fff;
      }

      .cls-2 {
        fill: #6259fa;
      }
    </style>
  </defs>
  <g id="Layer_9" data-name="Layer 9">
    <g>
      <path class="cls-1" d="M465.7,159.91V465.69H34.31v-16c.3.91.63,1.82.88,2.75a16.45,16.45,0,0,0,16.08,12.37q143,0,285.9,0a16.28,16.28,0,0,0,16.59-16.06c.22-7.14.21-14.3,0-21.44a16.47,16.47,0,0,0-16.49-16.25c-6.45-.15-12.9,0-19.34-.06-1.21,0-2.41-.15-3.51-.22a10.22,10.22,0,0,1-.21-1.24c0-6.87,0-13.74-.07-20.6-.12-9.33-5.74-14.86-15-14.92-2.81,0-5.69-.43-8.4.07-7.83,1.46-12.62-2.81-17-8.27-8.06-10.12-8-22.46.34-32.31,5-5.95,11.27-10.06,19.23-10.95,4.33-.48,6.9-2.65,7.67-7,1-5.77,2.55-11.49,3.19-17.31,2.62-23.69-.2-47-5.9-70-7.23-29.12-18.73-56.32-37.95-79.71-21.62-26.3-48.77-41.55-83.66-40.93-1.62,0-3.38-1-4.86-1.94-4.53-2.77-8.79-6-13.47-8.51-11.39-6-23.24-8-35.56-2.78-7.37,3.15-8.37,7.29-3.31,13.61s10.28,12.82,15.63,19.5c-1.81,1.67-3.35,3.08-4.86,4.52Q91.5,168.78,52.75,205.51c-4.11,3.89-4.7,6.31-2.36,10.68q11.51,21.48,23.13,42.88c2.61,4.8,5.62,5.82,10.42,3.49Q99,255.21,114,247.66c4.2-2.12,5.26-4.89,3.9-9.38-.8-2.63-1.68-5.24-2.93-9.09,5.85.55,10.91.9,15.94,1.51,11.59,1.41,23.21,3.31,33.6-5.07,2.72,5.57,3,11,.48,16.08a70.16,70.16,0,0,1-9.17,14.47c-7.84,9.14-16.23,17.8-24.46,26.6-18.07,19.31-28.77,41.86-30,68.5-.34,7.47-.06,15-.06,22.75H90.67c-11.1,0-16.21,5.07-16.24,16.13,0,6.83,0,13.66,0,20.87H69c-5.75,0-11.49-.06-17.24,0-8.91.14-13.58,4.23-17.44,15.12V34.3H347.13c-1.06.33-2.11.68-3.18,1a26.08,26.08,0,1,0,14.66.35c-1.31-.42-2.61-.88-3.91-1.32h111v89.88H465a6.07,6.07,0,0,0-1.94-4.49c-3-2.86-6.67-2.51-10.34,1.14-3.85,3.84-7.61,7.79-11.81,12.09-4-4.11-7.51-7.87-11.15-11.54-4.15-4.19-7.78-4.69-10.93-1.65s-2.6,7.07,1.61,11.25c3.66,3.62,7.4,7.16,11.46,11.08-4.46,4.31-8.44,8-12.29,11.9-3.46,3.45-3.71,7.5-.84,10.34s6.74,2.66,10.34-.92c3.86-3.85,7.56-7.86,11.8-12.29,4.23,4.37,8,8.33,11.81,12.17,3.66,3.65,7.31,4,10.32,1.14a6.11,6.11,0,0,0,2-4.49ZM443.83,361.65a26,26,0,1,0-26,25.82A26.07,26.07,0,0,0,443.83,361.65ZM424.54,300q0-38.65,0-77.32c0-6.31-2.22-8.45-8.67-8.46H357.72V139.87c1.29,1.48,2.19,2.45,3,3.47,3.63,4.44,7.13,9,10.89,13.33a6.63,6.63,0,0,0,9.41.87c2.68-2.23,3.13-5.9,1.1-9.08a21.16,21.16,0,0,0-1.53-2Q369,132.09,357.34,117.73c-4.56-5.61-8.64-5.55-13.28.18Q333,131.62,321.9,145.37c-4.49,5.57-4.86,9.55-1.19,12.34s7.22,1.46,11.55-3.85c3.64-4.46,7.25-8.94,10.88-13.42l.85.45v4.53q0,36.56,0,73.11c0,6.84,2.28,9.1,9.07,9.11q18.69,0,37.39,0h20.63v5.19q0,33.61,0,67.23c0,5.47,2.31,8.38,6.57,8.48C422.14,308.66,424.54,305.72,424.54,300ZM277.48,68.22c3.33-3.37,3.1-7.63-.19-10.27-2.9-2.33-6.3-2.11-9.4,1-4,4-7.79,8.26-12.13,12.9-4.38-4.61-7.88-8.41-11.51-12.08-4-4.06-7.89-4.44-10.95-1.25s-2.54,6.83,1.37,10.64,7.76,7.2,12.14,11.25c-4.9,4.74-9.11,8.61-13.08,12.71-3.45,3.56-2.92,8.47,1,10.75,3.29,1.92,6.21,1.05,8.71-1.54,4-4.1,7.83-8.26,12-12.68,2.57,2.7,4.38,4.64,6.24,6.54s3.72,4.32,6,5.84c2,1.35,4.84,2.78,7,2.45,5.35-.79,6.84-7.23,2.77-11.43s-8.27-7.87-13.08-12.4C269.21,76.1,273.48,72.29,277.48,68.22Z"/>
      <path class="cls-1" d="M465.7,124.18v35.73H465a9,9,0,0,0-2.93-6.22c-3.8-3.83-7.69-7.58-11.95-11.76,4.31-4.14,8.21-7.76,12-11.51a9,9,0,0,0,2.91-6.24Z"/>
      <path class="cls-2" d="M463.07,119.69a6.07,6.07,0,0,1,1.94,4.49,9,9,0,0,1-2.91,6.24c-3.75,3.75-7.65,7.37-12,11.51,4.26,4.18,8.15,7.93,11.95,11.76a9,9,0,0,1,2.93,6.22,6.11,6.11,0,0,1-2,4.49c-3,2.85-6.66,2.51-10.32-1.14-3.85-3.84-7.58-7.8-11.81-12.17-4.24,4.43-7.94,8.44-11.8,12.29-3.6,3.58-7.4,3.83-10.34.92s-2.62-6.89.84-10.34c3.85-3.86,7.83-7.59,12.29-11.9-4.06-3.92-7.8-7.46-11.46-11.08-4.21-4.18-4.75-8.21-1.61-11.25s6.78-2.54,10.93,1.65c3.64,3.67,7.19,7.43,11.15,11.54,4.2-4.3,8-8.25,11.81-12.09C456.4,117.18,460.06,116.83,463.07,119.69Z"/>
      <path class="cls-2" d="M418.13,335.46a26,26,0,1,1-26.31,26.05A26.07,26.07,0,0,1,418.13,335.46Zm12.24,26a12.72,12.72,0,0,0-12.64-12.54,12.55,12.55,0,0,0,0,25.09A12.65,12.65,0,0,0,430.37,361.46Z"/>
      <path class="cls-2" d="M424.54,222.69q0,38.67,0,77.32c0,5.71-2.4,8.65-6.87,8.54-4.26-.1-6.56-3-6.57-8.48q0-33.61,0-67.23v-5.19H390.46q-18.69,0-37.39,0c-6.79,0-9.07-2.27-9.07-9.11q0-36.56,0-73.11v-4.53l-.85-.45c-3.63,4.48-7.24,9-10.88,13.42-4.33,5.31-8,6.53-11.55,3.85s-3.3-6.77,1.19-12.34q11.07-13.76,22.16-27.46c4.64-5.73,8.72-5.79,13.28-.18q11.67,14.34,23.27,28.73a21.16,21.16,0,0,1,1.53,2c2,3.18,1.58,6.85-1.1,9.08a6.63,6.63,0,0,1-9.41-.87c-3.76-4.33-7.26-8.89-10.89-13.33-.83-1-1.73-2-3-3.47v74.36h58.15C422.32,214.24,424.54,216.38,424.54,222.69Z"/>
      <path class="cls-1" d="M417.73,348.92a12.55,12.55,0,1,1-12.45,12.37A12.86,12.86,0,0,1,417.73,348.92Z"/>
      <path class="cls-2" d="M358.61,35.62A25.84,25.84,0,1,1,344,35.27c1.07-.29,2.12-.64,3.18-1h7.57C356,34.74,357.3,35.2,358.61,35.62Zm4.62,24.85a12.5,12.5,0,0,0-12.46-12.64,12.56,12.56,0,0,0-.18,25.11A12.52,12.52,0,0,0,363.23,60.47Z"/>
      <path class="cls-1" d="M350.77,47.83a12.56,12.56,0,0,1-.18,25.11,12.56,12.56,0,0,1,.18-25.11Z"/>
      <path class="cls-2" d="M353.77,427.33c.2,7.14.21,14.3,0,21.44a16.28,16.28,0,0,1-16.59,16.06q-143,0-285.9,0a16.45,16.45,0,0,1-16.08-12.37c-.25-.93-.58-1.84-.88-2.75V426.17c3.86-10.89,8.53-15,17.44-15.12,5.75-.08,11.49,0,17.24,0h5.44c0-7.21,0-14,0-20.87,0-11.06,5.14-16.12,16.24-16.13h10.7c0-7.79-.28-15.28.06-22.75,1.2-26.64,11.9-49.19,30-68.5,8.23-8.8,16.62-17.46,24.46-26.6A70.16,70.16,0,0,0,165,241.71c2.52-5.06,2.24-10.51-.48-16.08-10.39,8.38-22,6.48-33.6,5.07-5-.61-10.09-1-15.94-1.51,1.25,3.85,2.13,6.46,2.93,9.09,1.36,4.49.3,7.26-3.9,9.38q-15,7.56-30.1,14.9c-4.8,2.33-7.81,1.31-10.42-3.49q-11.62-21.4-23.13-42.88c-2.34-4.37-1.75-6.79,2.36-10.68q38.75-36.73,77.51-73.45c1.51-1.44,3.05-2.85,4.86-4.52-5.35-6.68-10.5-13.08-15.63-19.5s-4.06-10.46,3.31-13.61c12.32-5.26,24.17-3.19,35.56,2.78,4.68,2.46,8.94,5.74,13.47,8.51,1.48.9,3.24,2,4.86,1.94,34.89-.62,62,14.63,83.66,40.93,19.22,23.39,30.72,50.59,37.95,79.71,5.7,23,8.52,46.28,5.9,70-.64,5.82-2.15,11.54-3.19,17.31-.77,4.35-3.34,6.52-7.67,7-8,.89-14.19,5-19.23,10.95-8.35,9.85-8.4,22.19-.34,32.31,4.35,5.46,9.14,9.73,17,8.27,2.71-.5,5.59-.09,8.4-.07,9.27.06,14.89,5.59,15,14.92.1,6.86,0,13.73.07,20.6a10.22,10.22,0,0,0,.21,1.24c1.1.07,2.3.22,3.51.22,6.44,0,12.89-.09,19.34.06A16.47,16.47,0,0,1,353.77,427.33Zm-13.37,1.92c.06-3.38-1.36-4.79-4.76-4.79q-141.4.06-282.81,0c-3.47,0-4.79,1.54-4.76,4.82.06,5.19,0,10.37,0,15.55,0,6.36.25,6.6,6.66,6.6H334.61c5.27,0,5.74-.48,5.76-5.78C340.38,440.17,340.29,434.71,340.4,429.25Zm-40-18.46v-23H88.14v23Zm-9.58-112.92c2.61-24.31-.52-48.1-6.88-71.51-7.43-27.33-18.81-52.77-38.05-74s-42.89-32.8-72.22-31c-2.23.13-4.74-1.32-6.82-2.55-6.38-3.74-12.38-8.17-19-11.45-3.71-1.85-8.28-2-13.18-3a14.65,14.65,0,0,0,.76,2.12q5.63,7.08,11.28,14.13c5.81,7.29,5.68,9-1,15.39q-39.37,37.31-78.78,74.56c-2.21,2.08-2.65,3.59-1,6.33,3.89,6.64,7.38,13.51,11,20.29,2,3.64,3.93,7.27,6,11l20.64-10.25c-.49-1.61-.79-2.68-1.14-3.73-2.8-8.43.78-15.38,9.55-17.25a48.41,48.41,0,0,1,12.91-.48c6.42.38,12.79,1.62,19.21,1.86s11.88-2.13,15.26-8.43c1.06-2,4-4.18,6-4.1,2.25.09,5,2.2,6.44,4.23,2.46,3.52,4.06,7.64,6,11.53,5.1,10.31,4.31,20.3-1.74,29.95a50.34,50.34,0,0,1-4.43,6.63c-9,10.21-18.2,20.16-27,30.51-6.33,7.44-13,14.83-17.93,23.17-11.36,19.09-14.58,39.93-10.59,62H261.27c-2.24-6.56-5.6-12.93-6.47-19.63-2.31-17.84,8.88-35.64,26.79-42,6.47-2.32,8.67-5.79,9-11.76C290.63,299.55,290.73,298.71,290.81,297.87Z"/>
      <path class="cls-1" d="M335.64,424.46c3.4,0,4.82,1.41,4.76,4.79-.11,5.46,0,10.92,0,16.39,0,5.3-.49,5.78-5.76,5.78H54.75c-6.41,0-6.65-.24-6.66-6.6,0-5.18,0-10.36,0-15.55,0-3.28,1.29-4.83,4.76-4.82Q194.24,424.52,335.64,424.46Z"/>
      <path class="cls-1" d="M300.39,387.8v23H88.14v-23Z"/>
      <path class="cls-1" d="M283.93,226.36c6.36,23.41,9.49,47.2,6.88,71.51-.08.84-.18,1.68-.23,2.52-.32,6-2.52,9.44-9,11.76-17.91,6.4-29.1,24.2-26.79,42,.87,6.7,4.23,13.07,6.47,19.63H116.08c-4-22.11-.77-42.95,10.59-62,5-8.34,11.6-15.73,17.93-23.17,8.79-10.35,18-20.3,27-30.51a50.34,50.34,0,0,0,4.43-6.63c6-9.65,6.84-19.64,1.74-29.95-1.92-3.89-3.52-8-6-11.53-1.41-2-4.19-4.14-6.44-4.23-2-.08-5,2.12-6,4.1-3.38,6.3-8.71,8.68-15.26,8.43s-12.79-1.48-19.21-1.86a48.41,48.41,0,0,0-12.91.48c-8.77,1.87-12.35,8.82-9.55,17.25.35,1.05.65,2.12,1.14,3.73L82.89,248.14c-2-3.77-4-7.4-6-11-3.66-6.78-7.15-13.65-11-20.29-1.61-2.74-1.17-4.25,1-6.33q39.47-37.18,78.78-74.56c6.71-6.36,6.84-8.1,1-15.39q-5.64-7.07-11.28-14.13a14.65,14.65,0,0,1-.76-2.12c4.9,1.06,9.47,1.18,13.18,3,6.59,3.28,12.59,7.71,19,11.45,2.08,1.23,4.59,2.68,6.82,2.55,29.33-1.76,52.94,9.75,72.22,31S276.5,199,283.93,226.36Zm-11.22,57.92c.1-3.21,0-6.44,0-9.66h-.51c0-2.8.1-5.6,0-8.4s-.44-5.58-.74-8.37c-3-28.2-10.69-54.89-26.09-79-11.53-18-26-33-45.63-42.23-4.58-2.16-8.28-1.22-10.1,2.36-2,3.86-.14,7,4.37,9.79,7,4.31,14.32,8.43,20.36,13.9,22.23,20.12,33.87,46.18,40.31,74.91,3.45,15.38,4.57,31,4.75,46.72.05,4.81,2.57,7.49,6.64,7.47S272.57,289.1,272.71,284.28Z"/>
      <path class="cls-2" d="M277.29,58c3.29,2.64,3.52,6.9.19,10.27-4,4.07-8.27,7.88-13.09,12.44,4.81,4.53,9.11,8.3,13.08,12.4s2.58,10.64-2.77,11.43c-2.2.33-5-1.1-7-2.45-2.29-1.52-4.05-3.84-6-5.84s-3.67-3.84-6.24-6.54c-4.17,4.42-8,8.58-12,12.68-2.5,2.59-5.42,3.46-8.71,1.54-3.89-2.28-4.42-7.19-1-10.75,4-4.1,8.18-8,13.08-12.71-4.38-4-8.35-7.56-12.14-11.25s-4.3-7.59-1.37-10.64,6.92-2.81,10.95,1.25c3.63,3.67,7.13,7.47,11.51,12.08,4.34-4.64,8.13-8.88,12.13-12.9C271,55.84,274.39,55.62,277.29,58Z"/>
      <path class="cls-2" d="M272.73,274.62c0,3.22.08,6.45,0,9.66-.14,4.82-2.58,7.51-6.65,7.52s-6.59-2.66-6.64-7.47c-.18-15.72-1.3-31.34-4.75-46.72-6.44-28.73-18.08-54.79-40.31-74.91-6-5.47-13.36-9.59-20.36-13.9-4.51-2.77-6.33-5.93-4.37-9.79,1.82-3.58,5.52-4.52,10.1-2.36,19.65,9.27,34.1,24.23,45.63,42.23,15.4,24.08,23.07,50.77,26.09,79,.3,2.79.61,5.58.74,8.37s0,5.6,0,8.4Z"/>
    </g>
  </g>
</svg>
