<svg xmlns="http://www.w3.org/2000/svg" viewBox="0 0 500 500">
  <defs>
    <style>
      .cls-1 {
        fill: #6259fa;
      }

      .cls-2 {
        fill: #fff;
      }
    </style>
  </defs>
  <g id="Layer_9" data-name="Layer 9">
    <g>
      <path class="cls-1" d="M396.27,158.6a22,22,0,0,1,31.06-.51c8.57,8.42,8.56,21.93-.4,30.91q-59.88,60.08-120,119.89c-1.78,1.77-4.9,2.56-7.53,3-2.89.51-5.94.12-8.91.12h0c-3.25,0-6.5.12-9.74,0-4.45-.21-7.12-2.69-7.27-7.13-.21-6.76-.28-13.54.07-20.28a10.08,10.08,0,0,1,2.84-6Q336.22,218.5,396.27,158.6Zm16.1,25.48c3.08-3.85,8.88-6.26,6.93-12.51a9.49,9.49,0,0,0-5.58-5.45c-6.14-1.68-8.8,3.66-12.43,7.19Zm-124.8,113.6c7,1.74,11.84-.34,16.76-5.36,25.44-26,51.31-51.56,77-77.28,1.12-1.12,2.18-2.29,3.34-3.51l-11-10.61c-.89.84-1.88,1.73-2.82,2.67-26.4,26.39-52.64,52.93-79.3,79C286.56,287.47,287.12,292.36,287.57,297.68Zm106.93-96.8,7.54-6.55-10.59-10.56-6.94,6.51Z"/>
      <path class="cls-2" d="M419.3,171.57c1.95,6.25-3.85,8.66-6.93,12.51l-11.08-10.77c3.63-3.53,6.29-8.87,12.43-7.19A9.49,9.49,0,0,1,419.3,171.57Z"/>
      <path class="cls-2" d="M391.45,183.77,402,194.33l-7.54,6.55-10-10.6Z"/>
      <path class="cls-1" d="M393.35,41.67c3.72,2,4.94,5.17,4.93,9.39-.13,30.19-.07,60.37-.07,90.56v3.78H384.54V55.77h-305V443.41h256.2V429.27c0-8.39,0-16.79,0-25.18,0-6.6,2.44-9,9.14-9,13,0,25.95,0,39.36,0V242.89h14v4.23q0,75.93.06,151.87a13.09,13.09,0,0,1-4.1,10.08q-22.54,22.24-44.81,44.78a11.74,11.74,0,0,1-9,3.72q-132.79-.1-265.57-.06c-7.14,0-9.37-2.26-9.37-9.55q0-198.37-.06-396.73c0-4.14,1.12-7.36,4.7-9.56ZM372.46,409.18H349.84v22.64Z"/>
      <path class="cls-2" d="M304.33,292.32c-4.92,5-9.78,7.1-16.76,5.36-.45-5.32-1-10.21,4-15.06,26.66-26.1,52.9-52.64,79.3-79,.94-.94,1.93-1.83,2.82-2.67l11,10.61c-1.16,1.22-2.22,2.39-3.34,3.51C355.64,240.76,329.77,266.33,304.33,292.32Z"/>
      <path class="cls-2" d="M349.84,409.18h22.62l-22.62,22.64Z"/>
      <path class="cls-1" d="M319.76,347c-6.07-5.61-11.39-10.55-16.76-15.52,3.86-4,6.85-7.07,10.15-10.46l15.29,16.37,16.14-16.64,9.59,9.92c-5.16,5.06-10.42,10.23-16.14,15.83l16.27,15.83-10,9.81-15-15.89-15.79,16.21L303.58,362Z"/>
      <path class="cls-1" d="M321.81,166.43a13.85,13.85,0,1,0-13.71-14.1A13.87,13.87,0,0,0,321.81,166.43Zm.12,13.89a27.75,27.75,0,1,1,27.66-27.64A27.83,27.83,0,0,1,321.93,180.32Z"/>
      <path class="cls-2" d="M321.81,166.43a13.85,13.85,0,0,1,.06-27.7,13.85,13.85,0,1,1-.06,27.7Z"/>
      <path class="cls-1" d="M295.25,180.55a5.65,5.65,0,0,1,5.67,5.84c.21,9.31.07,18.62.07,28.2h-13.5c-.14-3-.28-6-.48-10.09-36.68,40.83-51.23,88.09-47.84,141.88H225.35c-3.61-57.73,12.67-108.47,52.11-152.06H266.88V180.47C276.39,180.47,285.82,180.32,295.25,180.55Z"/>
      <path class="cls-2" d="M100.17,159.47a27.68,27.68,0,1,0,27.64-27.66A27.64,27.64,0,0,0,100.17,159.47ZM148.9,381.21a27.66,27.66,0,1,0-27.84-27.75A27.74,27.74,0,0,0,148.9,381.21Zm16.46-132.39c5.26-5,10.48-10.07,15.13-14.56L170.74,224,155,240.08l-14.87-15.92-10.29,10,15.89,15.39L129.85,265l10.52,10.59,15.43-16.46,15,15.42,11-9.82C176.35,259.47,171.15,254.42,165.36,248.82Zm23.28,82.11c38-49.49,39.39-99.27,4.24-150.71h10.67V166.48H181.5c-11.49,0-12.36.88-12.36,12.52v21.81H183v-8.2a92.85,92.85,0,0,1,20.93,54.29c1.63,28.19-7.32,52.92-26,74.31,1.79,1.64,3.37,3.09,5,4.53S186.26,328.78,188.64,330.93Zm67.21-177.36-8,7.05,9.95,10.48c7-7,13.92-13.75,20.65-20.75,2.68-2.79,2.9-6.37.18-9.18-6.84-7.07-14-13.87-21.06-20.87l-9.66,10,8.15,7-.57,1.42H169.65v13.93h85.84Zm-39-37.2,15.55-17.09q8.22,8.59,15,15.7l10.47-9.57-16.61-16,15.51-14.83L246.64,64.39l-15.52,16c-5-5.32-10-10.59-14.57-15.41l-10.21,9.39,16.33,15.89-16.34,15.12ZM231.76,416a27.71,27.71,0,1,0-27.62-28.15A27.7,27.7,0,0,0,231.76,416Zm226.57,42.36H340.4v-.76a11.74,11.74,0,0,0,9-3.72q22.31-22.5,44.81-44.78a13.09,13.09,0,0,0,4.1-10.08q-.14-75.94-.06-151.87v-4.23h-14V395.08c-13.41,0-26.39,0-39.36,0-6.7,0-9.12,2.4-9.14,9,0,8.39,0,16.79,0,25.18v14.14H79.56V55.77h305V145.4h13.67v-3.78c0-30.19-.06-60.37.07-90.56,0-4.22-1.21-7.34-4.93-9.39h65Zm-136.4-278a27.75,27.75,0,1,0-27.67-28.09A27.73,27.73,0,0,0,321.93,180.32ZM319.76,347l-16.18,15,9.95,10.47,15.79-16.21,15,15.89,10-9.81L338,346.53c5.72-5.6,11-10.77,16.14-15.83l-9.59-9.92-16.14,16.64-15.29-16.37c-3.3,3.39-6.29,6.48-10.15,10.46C308.37,336.48,313.69,341.42,319.76,347Zm-39-35c3.24.15,6.49,0,9.74,0h0c3,0,6,.39,8.91-.12,2.63-.46,5.75-1.25,7.53-3q60.16-59.79,120-119.89c9-9,9-22.49.4-30.91a22,22,0,0,0-31.06.51q-60,59.9-119.9,120a10.08,10.08,0,0,0-2.84,6c-.35,6.74-.28,13.52-.07,20.28C273.61,309.3,276.28,311.78,280.73,312ZM287,204.5c.2,4.1.34,7.11.48,10.09H301c0-9.58.14-18.89-.07-28.2a5.65,5.65,0,0,0-5.67-5.84c-9.43-.23-18.86-.08-28.37-.08v13.85h10.58c-39.44,43.59-55.72,94.33-52.11,152.06h13.82C235.78,292.59,250.33,245.33,287,204.5Z"/>
      <path class="cls-1" d="M278.6,141.17c2.72,2.81,2.5,6.39-.18,9.18-6.73,7-13.69,13.78-20.65,20.75l-9.95-10.48,8-7.05-.36-.94H169.65V138.7h85.81l.57-1.42-8.15-7,9.66-10C264.64,127.3,271.76,134.1,278.6,141.17Z"/>
      <path class="cls-1" d="M259.48,388.4a27.67,27.67,0,1,1-27.34-27.84A27.7,27.7,0,0,1,259.48,388.4ZM218,388.05a14.07,14.07,0,0,0,13.81,14.06,13.89,13.89,0,0,0,13.84-13.53,13.59,13.59,0,0,0-13.51-14.14A13.78,13.78,0,0,0,218,388.05Z"/>
      <path class="cls-1" d="M231.12,80.44l15.52-16,10.11,10.23L241.24,89.45l16.61,16L247.38,115q-6.78-7.11-15-15.7l-15.55,17.09-10.49-10.94,16.34-15.12L206.34,74.42,216.55,65C221.11,69.85,226.1,75.12,231.12,80.44Z"/>
      <path class="cls-2" d="M218,388.05a13.78,13.78,0,0,1,14.14-13.61,13.59,13.59,0,0,1,13.51,14.14,13.89,13.89,0,0,1-13.84,13.53A14.07,14.07,0,0,1,218,388.05Z"/>
      <path class="cls-1" d="M192.88,180.22c35.15,51.44,33.72,101.22-4.24,150.71-2.38-2.15-4.07-3.66-5.75-5.19s-3.17-2.89-5-4.53c18.66-21.39,27.61-46.12,26-74.31A92.85,92.85,0,0,0,183,192.61v8.2H169.14V179c0-11.64.87-12.52,12.36-12.52h22.05v13.74Z"/>
      <path class="cls-1" d="M180.49,234.26c-4.65,4.49-9.87,9.51-15.13,14.56,5.79,5.6,11,10.65,16.43,15.92l-11,9.82-15-15.42L140.37,275.6,129.85,265l15.83-15.42L129.79,234.2l10.29-10L155,240.08,170.74,224Z"/>
      <path class="cls-1" d="M134.92,353.67a13.68,13.68,0,0,0,13.58,13.71,13.83,13.83,0,1,0,.17-27.65A13.67,13.67,0,0,0,134.92,353.67Zm41.51-.23a27.69,27.69,0,1,1-27.76-27.55A27.74,27.74,0,0,1,176.43,353.44Z"/>
      <path class="cls-2" d="M148.67,339.73a13.83,13.83,0,1,1-.17,27.65,13.83,13.83,0,0,1,.17-27.65Z"/>
      <path class="cls-2" d="M127.9,145.64A13.83,13.83,0,1,1,114,159.58,14,14,0,0,1,127.9,145.64Z"/>
      <path class="cls-1" d="M114,159.58a13.86,13.86,0,0,0,14.06,13.71,13.83,13.83,0,0,0-.18-27.65A14,14,0,0,0,114,159.58Zm41.5-.28a27.68,27.68,0,1,1-27.71-27.49A27.46,27.46,0,0,1,155.52,159.3Z"/>
      <path class="cls-2" d="M65.46,448c0,7.29,2.23,9.55,9.37,9.55q132.78,0,265.57.06v.76H41.67V41.67H70.1c-3.58,2.2-4.7,5.42-4.7,9.56Q65.49,249.59,65.46,448Z"/>
    </g>
  </g>
</svg>
