<svg xmlns="http://www.w3.org/2000/svg" viewBox="0 0 500 500">
  <defs>
    <style>
      .cls-1 {
        fill: #fff;
      }

      .cls-2 {
        fill: #6259fa;
      }
    </style>
  </defs>
  <g id="Layer_9" data-name="Layer 9">
    <g>
      <path class="cls-1" d="M471.2,354V471.2H356.58c7.45-3.45,9.91-9.35,9.6-17.38-.44-11.58-.11-23.19-.11-35.23,13,0,25.61.05,38.22,0,6.88,0,12.07-4.21,13.3-10.6a25.58,25.58,0,0,0,.22-4.72c0-11.92,0-23.84,0-36.4h4.29c11.35,0,22.71,0,34.06,0,8.4,0,14.22-5.33,14.25-12.88Z"/>
      <path class="cls-1" d="M470.42,302a12.85,12.85,0,0,0-13.11-12.68c-12.93-.12-25.87,0-39.14,0V263.55c1.27-.06,2.65-.18,4-.18,11.36,0,22.71,0,34.07,0,8.33,0,14.15-5.39,14.15-12.91h.78v51.74h-.78Z"/>
      <path class="cls-1" d="M470.42,250.38c0-7.55-5.84-12.86-14.24-12.88-12.62,0-25.24,0-38.1,0V211.61h4.38c11.21,0,22.43,0,33.64,0,8.43,0,14.24-5.27,14.32-12.81h.78v51.64h-.78Z"/>
      <path class="cls-1" d="M470.42,198.8c.08-7.7-5.81-13-14.5-13.05-12.49,0-25,0-37.78,0V159.87h11.05c9.06,0,18.11,0,27.17,0,8.25-.05,14.06-5.44,14.06-12.92h.78V198.8Z"/>
      <path class="cls-1" d="M470.42,146.79c-.08-7.39-5.83-12.74-13.9-12.78-11.36,0-22.71,0-34.07,0h-4.63c0-12.86.27-25.33-.17-37.77-.13-3.44-1.56-7.63-3.9-10s-6.54-3.73-10-3.85c-12.33-.45-24.69-.18-37.7-.18V78c0-11.35,0-22.7,0-34.06,0-8.39-5.32-14.22-12.86-14.26v-.85h118V146.94h-.78Z"/>
      <path class="cls-1" d="M470.42,354c0-7.55-5.8-12.95-14.15-13-12.62,0-25.25,0-38.16,0V315.1h30.13c3,0,6,.07,9.06,0,7.52-.21,13.12-5.77,13.12-12.9h.78V354Z"/>
      <path class="cls-1" d="M353.2,29.66c-7.55-.05-13,5.79-13,14.12,0,12.63,0,25.26,0,38.18H314.31V65.66c0-7.47.07-14.95,0-22.42-.08-7.86-5.59-13.58-12.89-13.58v-.85h51.8Z"/>
      <path class="cls-1" d="M349.68,471.2H304.83c7.44-3.45,9.9-9.33,9.6-17.36-.45-11.58-.12-23.19-.12-35h25.88v4c0,10.34.34,20.69-.11,31C339.73,461.87,342.22,467.76,349.68,471.2Z"/>
      <path class="cls-2" d="M288.45,198.76c.06,7.53,5.9,12.82,14.3,12.84,12.32,0,24.65,0,37.21,0v129H314.31V334.4c0-10.5.06-21,0-31.48-.05-8-5.61-13.73-13-13.68s-12.79,5.83-12.83,13.87c-.05,12.47,0,24.94,0,37.63H262.56v-4c0-16.09.09-32.19-.08-48.29,0-3.22,1.06-4.73,3.9-6.11,13.56-6.57,27-13.34,40.46-20.17a13,13,0,0,0,7.34-13.46c-.74-5.26-4.5-9.81-9.88-10.63a16.34,16.34,0,0,0-9.1,1.18c-17.07,8.22-34,16.77-50.91,25.28-5.26,2.64-7.65,7-7.63,12.94.06,19.4,0,38.8,0,58.21v5H159.16V315.1h4.08c11.07,0,22.14,0,33.21,0,8.44,0,14.25-5.25,14.34-12.8.08-7.7-5.82-13-14.51-13.05-12.2,0-24.41,0-36.92,0V160.12h25.57v4q0,16.17,0,32.34c0,9.21,5,15.11,12.82,15.18s13.05-5.91,13.05-15.39c0-11.91,0-23.82,0-36h25.69c.06,1.42.18,2.81.18,4.2,0,16-.11,31.91.11,47.86.05,3.45-1.13,5-4.1,6.43-13.44,6.49-26.78,13.21-40.1,19.94-5.45,2.76-8.22,7.89-7.55,13.36s4.6,10.1,10.11,10.91a15.74,15.74,0,0,0,8.7-1.14c17.07-8.24,34-16.79,50.92-25.27,5.44-2.73,7.85-7.2,7.83-13.27-.08-19.4,0-38.81,0-58.21V160.1h77.3v25.64H323.7c-7.05,0-14.09,0-21.14,0C294.25,185.8,288.39,191.23,288.45,198.76Z"/>
      <path class="cls-1" d="M249.62,28.81H301.4v.85h-.21c-7.22.1-12.68,5.79-12.73,13.51-.08,11.5,0,23,0,34.49v4.39H262.76c-.07-1.38-.19-2.76-.19-4.14,0-11.35,0-22.7,0-34.06,0-8.36-5.39-14.19-12.93-14.19Z"/>
      <path class="cls-1" d="M297.92,471.2H253.07c7.44-3.45,9.91-9.33,9.6-17.36-.44-11.58-.11-23.19-.11-35h25.88v4c0,10.34.34,20.69-.11,31C288,461.87,290.47,467.76,297.92,471.2Z"/>
      <path class="cls-1" d="M249.62,28.81v.85c-7.54,0-12.9,5.83-12.93,14.2,0,12.62,0,25.24,0,38.12H210.8c0-12.16,0-24.19,0-36.22a28.77,28.77,0,0,0-.25-5.58,13,13,0,0,0-12.66-10.54v-.83Z"/>
      <path class="cls-1" d="M246.17,471.2H201.32c7.44-3.45,9.91-9.33,9.6-17.36-.45-11.58-.12-23.19-.12-35h25.88v4c0,10.34.34,20.69-.11,31C236.22,461.87,238.71,467.76,246.17,471.2Z"/>
      <path class="cls-1" d="M304.3,238c5.38.82,9.14,5.37,9.88,10.63a13,13,0,0,1-7.34,13.46c-13.44,6.83-26.9,13.6-40.46,20.17-2.84,1.38-3.94,2.89-3.9,6.11.17,16.1.08,32.2.08,48.29v4h25.88c0-12.69,0-25.16,0-37.63,0-8,5.45-13.81,12.83-13.87s13,5.7,13,13.68c.08,10.49,0,21,0,31.48v6.25H340v-129c-12.56,0-24.89,0-37.21,0-8.4,0-14.24-5.31-14.3-12.84s5.8-13,14.11-13c7.05,0,14.09,0,21.14,0h16.16V160.1h-77.3V165c0,19.4-.05,38.81,0,58.21,0,6.07-2.39,10.54-7.83,13.27-16.94,8.48-33.85,17-50.92,25.27a15.74,15.74,0,0,1-8.7,1.14c-5.51-.81-9.45-5.52-10.11-10.91s2.1-10.6,7.55-13.36c13.32-6.73,26.66-13.45,40.1-19.94,3-1.44,4.15-3,4.1-6.43-.22-15.95-.09-31.9-.11-47.86,0-1.39-.12-2.78-.18-4.2H210.8c0,12.22,0,24.13,0,36,0,9.48-5.09,15.46-13.05,15.39s-12.81-6-12.82-15.18q0-16.17,0-32.34v-4H159.36V289.23c12.51,0,24.72,0,36.92,0,8.69,0,14.59,5.35,14.51,13.05-.09,7.55-5.9,12.78-14.34,12.8-11.07,0-22.14,0-33.21,0h-4.08v25.56h77.52v-5c0-19.41,0-38.81,0-58.21,0-5.9,2.37-10.3,7.63-12.94,16.93-8.51,33.84-17.06,50.91-25.28A16.34,16.34,0,0,1,304.3,238ZM351,134c10.06,0,15,5,15,15.11q0,50.87,0,101.72V351.26c0,10.72-4.82,15.59-15.45,15.59H148.44c-10.35,0-15.26-4.94-15.26-15.34q0-101.07,0-202.15c0-10.42,4.9-15.36,15.23-15.36Z"/>
      <path class="cls-1" d="M146.12,28.81h51.76v.83c-.37,0-.75,0-1.13.05A12.86,12.86,0,0,0,185,42.38c-.16,11.35,0,22.71,0,34.06v5.48H159.05V77.41c0-11.35,0-22.71,0-34.06-.05-8-5.55-13.69-12.91-13.69Z"/>
      <path class="cls-1" d="M194.42,471.2H149.56c7.45-3.45,9.91-9.33,9.6-17.36-.44-11.58-.11-23.19-.11-35h25.88v4c0,10.34.34,20.69-.11,31C184.47,461.87,187,467.76,194.42,471.2Z"/>
      <path class="cls-1" d="M146,29.66c-7.38,0-12.82,5.81-12.85,13.83-.06,12.76,0,25.52,0,38.76h-26.5c-3.88,0-7.76,0-11.64,0-8.12.13-13.54,5.44-13.59,13.53-.08,12.5,0,25,0,38.21h-4.2c-10.35,0-20.71.34-31-.11-8-.36-13.94,2.13-17.38,9.59V28.81H146.12v.85Z"/>
      <path class="cls-1" d="M81.66,408c1.23,6.36,6.45,10.51,13.33,10.55,12.5.07,25,0,38.18,0v4.22c0,10.34.34,20.7-.11,31-.35,8,2.14,13.93,9.6,17.37H28.8V357.36c3.45,7.45,9.34,9.91,17.37,9.6,11.59-.44,23.2-.11,35.25-.11,0,12.26,0,24.14,0,36A27.58,27.58,0,0,0,81.66,408Z"/>
      <path class="cls-2" d="M133.18,351.51c0,10.4,4.91,15.33,15.26,15.34H350.62c10.63,0,15.44-4.87,15.45-15.59V250.83q0-50.87,0-101.72c0-10.1-5-15.11-15-15.11H148.4c-10.33,0-15.22,4.94-15.23,15.36Q133.17,250.45,133.18,351.51ZM470.42,250.38v.06c0,7.52-5.82,12.88-14.15,12.91-11.36,0-22.71,0-34.07,0-1.38,0-2.76.12-4,.18v25.69c13.27,0,26.21-.09,39.14,0A12.85,12.85,0,0,1,470.42,302v.23c0,7.13-5.6,12.69-13.12,12.9-3,.09-6,0-9.06,0H418.11V341c12.91,0,25.54,0,38.16,0,8.35,0,14.19,5.42,14.15,13s-5.85,12.85-14.25,12.88c-11.35,0-22.71,0-34.06,0h-4.29c0,12.56,0,24.48,0,36.4a25.58,25.58,0,0,1-.22,4.72c-1.23,6.39-6.42,10.56-13.3,10.6-12.61.07-25.21,0-38.22,0,0,12-.33,23.65.11,35.23.31,8-2.15,13.93-9.6,17.38h-6.9c-7.46-3.44-9.95-9.33-9.6-17.36.45-10.32.11-20.67.11-31v-4H314.31c0,11.82-.33,23.43.12,35,.3,8-2.16,13.91-9.6,17.36h-6.91c-7.45-3.44-9.94-9.33-9.59-17.36.45-10.32.11-20.67.11-31v-4H262.56c0,11.82-.33,23.43.11,35,.31,8-2.16,13.91-9.6,17.36h-6.9c-7.46-3.44-9.95-9.33-9.6-17.36.45-10.32.11-20.67.11-31v-4H210.8c0,11.82-.33,23.43.12,35,.31,8-2.16,13.91-9.6,17.36h-6.9c-7.46-3.44-9.95-9.33-9.6-17.36.45-10.32.11-20.67.11-31v-4H159.05c0,11.82-.33,23.43.11,35,.31,8-2.15,13.91-9.6,17.36h-6.9c-7.46-3.44-9.95-9.34-9.6-17.37.45-10.32.11-20.68.11-31v-4.22c-13.19,0-25.68.05-38.18,0-6.88,0-12.1-4.19-13.33-10.55a27.58,27.58,0,0,1-.23-5.15c0-11.88,0-23.76,0-36-12,0-23.66-.33-35.25.11-8,.31-13.92-2.15-17.37-9.6v-6.9c3.44-7.45,9.33-9.95,17.36-9.59,10.32.45,20.68.11,31,.11h4V315.1c-11.82,0-23.43-.33-35,.12-8,.31-13.92-2.16-17.37-9.6v-6.9c3.44-7.46,9.33-10,17.36-9.6,10.32.46,20.68.11,31,.11h4V263.36c-11.82,0-23.43-.33-35,.11-8,.31-13.92-2.15-17.37-9.6V247c3.44-7.45,9.33-9.95,17.36-9.59,10.32.45,20.68.11,31,.11h4V211.61c-11.82,0-23.43-.33-35,.12-8,.31-13.92-2.16-17.37-9.6v-6.9c3.44-7.46,9.33-9.95,17.36-9.6,10.32.46,20.68.11,31,.11h4V159.87c-11.82,0-23.43-.33-35,.11-8,.31-13.92-2.15-17.37-9.6v-6.9c3.44-7.46,9.34-9.95,17.38-9.59,10.33.45,20.69.11,31,.11h4.2c0-13.21-.06-25.71,0-38.21,0-8.09,5.47-13.4,13.59-13.53,3.88-.05,7.76,0,11.64,0h26.5c0-13.24,0-26,0-38.76,0-8,5.47-13.79,12.85-13.83h.08c7.36,0,12.86,5.74,12.91,13.69.07,11.35,0,22.71,0,34.06v4.51h25.88V76.44c0-11.35-.11-22.71,0-34.06a12.86,12.86,0,0,1,11.77-12.69c.38,0,.76-.05,1.13-.05a13,13,0,0,1,12.66,10.54,28.77,28.77,0,0,1,.25,5.58c0,12,0,24.06,0,36.22h25.88c0-12.88,0-25.5,0-38.12,0-8.37,5.39-14.2,12.93-14.2s12.9,5.83,12.93,14.19c0,11.36,0,22.71,0,34.06,0,1.38.12,2.76.19,4.14h25.68V77.66c0-11.49-.06-23,0-34.49.05-7.72,5.51-13.41,12.73-13.51h.21c7.3,0,12.81,5.72,12.89,13.58.09,7.47,0,14.95,0,22.42V82h25.88c0-12.92,0-25.55,0-38.18,0-8.33,5.45-14.17,13-14.12S366,35.53,366.06,43.92c0,11.36,0,22.71,0,34.06v4.27c13,0,25.37-.27,37.7.18,3.44.12,7.64,1.52,10,3.85s3.77,6.51,3.9,10c.44,12.44.17,24.91.17,37.77h4.63c11.36,0,22.71,0,34.07,0,8.07,0,13.82,5.39,13.9,12.78v.15c0,7.48-5.81,12.87-14.06,12.92-9.06,0-18.11,0-27.17,0H418.14v25.87c12.8,0,25.29,0,37.78,0,8.69,0,14.58,5.35,14.5,13.05-.08,7.54-5.89,12.78-14.32,12.81-11.21,0-22.43,0-33.64,0h-4.38v25.88c12.86,0,25.48,0,38.1,0C464.58,237.52,470.4,242.83,470.42,250.38Z"/>
      <path class="cls-1" d="M28.8,150.38c3.45,7.45,9.33,9.91,17.37,9.6,11.58-.44,23.19-.11,35-.11v25.87h-4c-10.34,0-20.7.35-31-.11-8-.35-13.92,2.14-17.36,9.6Z"/>
      <path class="cls-1" d="M28.8,202.13c3.45,7.44,9.33,9.91,17.37,9.6,11.58-.45,23.19-.12,35-.12v25.88h-4c-10.34,0-20.7.34-31-.11-8-.36-13.92,2.14-17.36,9.59Z"/>
      <path class="cls-1" d="M28.8,253.87c3.45,7.45,9.33,9.91,17.37,9.6,11.58-.44,23.19-.11,35-.11v25.87h-4c-10.34,0-20.7.35-31-.11-8-.35-13.92,2.14-17.36,9.6Z"/>
      <path class="cls-1" d="M28.8,305.62c3.45,7.44,9.33,9.91,17.37,9.6,11.58-.45,23.19-.12,35-.12V341h-4c-10.34,0-20.7.34-31-.11-8-.36-13.92,2.14-17.36,9.59Z"/>
    </g>
  </g>
</svg>
