<svg id="Layer_1" data-name="Layer 1" xmlns="http://www.w3.org/2000/svg" viewBox="0 0 15.78 18">
  <defs>
    <style>
      .cls-1 {
        fill: #6259fa;
      }
    </style>
  </defs>
  <path class="cls-1" d="M3.2,3.16V14.83H13.57a1.62,1.62,0,0,1,1.51.75A1.56,1.56,0,0,1,13.86,18h-.3C10,18,6.37,18,2.78,18A2.66,2.66,0,0,1,.51,16.92,2.44,2.44,0,0,1,0,15.43Q0,9,0,2.55A2.54,2.54,0,0,1,2.52,0C5.67,0,8.82,0,12,0h1.79a1.59,1.59,0,0,1,1.57,1.5,1.58,1.58,0,0,1-1.45,1.63,3.46,3.46,0,0,1-.46,0H3.2Zm5.47,7.4c-.56,0-1.12,0-1.67,0A1.54,1.54,0,0,1,5.59,8.92,1.56,1.56,0,0,1,7,7.43c1.08,0,2.17,0,3.25,0A1.58,1.58,0,0,1,11.76,9a1.56,1.56,0,0,1-1.41,1.58C9.79,10.58,9.23,10.55,8.67,10.56Z"/>
</svg>
