<svg id="Layer_1" data-name="Layer 1" xmlns="http://www.w3.org/2000/svg" viewBox="0 0 95.83 18">
  <defs>
    <style>
      .cls-1 {
        fill: #fff;
      }
    </style>
  </defs>
  <path class="cls-1" d="M63,5.56v10.8a1.59,1.59,0,1,1-3.17,0V2.24a3.3,3.3,0,0,1,.15-1A1.8,1.8,0,0,1,62.71.32a3.14,3.14,0,0,1,.66.6q4.73,5.7,9.42,11.4a2.13,2.13,0,0,0,.19.22V1.63A1.52,1.52,0,0,1,73.83.21,1.5,1.5,0,0,1,75.47.3a1.46,1.46,0,0,1,.68,1.25V16a1.9,1.9,0,0,1-1.39,2,1.93,1.93,0,0,1-2.07-.75c-2.41-2.89-4.79-5.79-7.18-8.7L63.16,5.64a.47.47,0,0,1-.07-.12ZM46.91,18A9,9,0,1,1,56,9,9,9,0,0,1,46.91,18Zm0-3.16A5.85,5.85,0,1,0,41,9,5.88,5.88,0,0,0,46.91,14.84Zm-22.59,0h.4c2.83,0,5.66,0,8.49,0a1.66,1.66,0,0,1,1.7,1.24A1.59,1.59,0,0,1,33.53,18H22.07A3.12,3.12,0,0,1,21,17.8a1.84,1.84,0,0,1-1.07-2.51,3.58,3.58,0,0,1,.55-.84Q25.24,9,30,3.53l.3-.35-.34,0H21.69l-.56,0a1.57,1.57,0,0,1-1.38-1.61A1.58,1.58,0,0,1,21.19,0H32.64a2.51,2.51,0,0,1,1.47.38,1.85,1.85,0,0,1,.67,2.29,2.72,2.72,0,0,1-.52.82q-4.8,5.49-9.63,11ZM3.2,3.16V14.83H13.57a1.62,1.62,0,0,1,1.51.75A1.56,1.56,0,0,1,13.86,18h-.3C10,18,6.37,18,2.78,18A2.66,2.66,0,0,1,.51,16.92,2.44,2.44,0,0,1,0,15.43Q0,9,0,2.55A2.54,2.54,0,0,1,2.52,0C5.67,0,8.82,0,12,0h1.79a1.59,1.59,0,0,1,1.57,1.5,1.58,1.58,0,0,1-1.45,1.63,3.46,3.46,0,0,1-.46,0H3.2ZM80.68,9c0-2.11,0-4.22,0-6.33A2.57,2.57,0,0,1,82.88,0a2.22,2.22,0,0,1,.45,0h11A1.54,1.54,0,0,1,95.83.9,1.57,1.57,0,0,1,94.6,3.14l-.56,0H84.19c-.34,0-.34,0-.34.35v11c0,.37,0,.37.35.37H94.27a1.62,1.62,0,0,1,1.47.73A1.56,1.56,0,0,1,94.53,18H83.45a2.65,2.65,0,0,1-2.21-1,2.61,2.61,0,0,1-.57-1.7Q80.69,12.14,80.68,9Zm-72,1.57c-.56,0-1.12,0-1.67,0A1.54,1.54,0,0,1,5.59,8.92,1.56,1.56,0,0,1,7,7.43c1.08,0,2.17,0,3.25,0A1.58,1.58,0,0,1,11.76,9a1.56,1.56,0,0,1-1.41,1.58C9.79,10.58,9.23,10.55,8.67,10.56Zm80.67,0c-.56,0-1.12,0-1.67,0A1.55,1.55,0,0,1,86.26,9,1.57,1.57,0,0,1,87.7,7.44q1.65,0,3.3,0a1.56,1.56,0,0,1,0,3.11c-.57,0-1.14,0-1.7,0Z"/>
</svg>
